<?xml version="1.0" standalone="no"?>
 <!DOCTYPE svg PUBLIC "-//W3C//DTD SVG 1.1//EN" 
 "http://www.w3.org/Graphics/SVG/1.1/DTD/svg11.dtd"> 
<svg
  xmlns:svg="http://www.w3.org/2000/svg"
  xmlns="http://www.w3.org/2000/svg"
  xmlns:xlink="http://www.w3.org/1999/xlink"
  version="1.1"
  width="0.114300cm" height="0.114300cm" viewBox="0 0 1143000 1143000">
<title>SVG Picture created as KEMgonomics-brd.svg date 2022/06/07 22:57:21 </title>
  <desc>Picture generated by PCBNEW </desc>
<g style="fill:#000000; fill-opacity:1.000000;stroke:#000000; stroke-opacity:1.000000;
stroke-linecap:round; stroke-linejoin:round;"
 transform="translate(0 0) scale(1 1)">
</g>
<g style="fill:#000000; fill-opacity:0.0; 
stroke:#000000; stroke-width:0.000000; stroke-opacity:1; 
stroke-linecap:round; stroke-linejoin:round;">
</g>
<g style="fill:#008400; fill-opacity:0.0; 
stroke:#008400; stroke-width:0.000000; stroke-opacity:1; 
stroke-linecap:round; stroke-linejoin:round;">
</g>
<g style="fill:#008400; fill-opacity:0.0; 
stroke:#008400; stroke-width:150000.000000; stroke-opacity:1; 
stroke-linecap:round; stroke-linejoin:round;">
<path d="M1075000 1075000
L75000 1075000
" />
<path d="M75000 1075000
L1075000 75000
" />
<path d="M1075000 1075000
L1075000 75000
" />
</g>
<g style="fill:#008400; fill-opacity:0.0; 
stroke:#008400; stroke-width:100000.000000; stroke-opacity:1; 
stroke-linecap:round; stroke-linejoin:round;">
<path d="M198296271 95095749
L193507989 81940053
" />
<path d="M193507989 81940053
L206663685 77151771
" />
<path d="M206663685 77151771
L211451967 90307467
" />
<path d="M211451967 90307467
L198296271 95095749
" />
<path d="M289510809 56660031
L289510809 42660031
" />
<path d="M289510809 42660031
L303510809 42660031
" />
<path d="M303510809 56660031
L289510809 56660031
" />
<path d="M303510809 42660031
L303510809 56660031
" />
<path d="M282420611 37130014
L268420611 37130014
" />
<path d="M268420611 23130014
L282420611 23130014
" />
<path d="M268420611 37130014
L268420611 23130014
" />
<path d="M282420611 23130014
L282420611 37130014
" />
<path d="M100447125 38091741
L113602821 42880023
" />
<path d="M108814539 56035719
L95658843 51247437
" />
<path d="M113602821 42880023
L108814539 56035719
" />
<path d="M95658843 51247437
L100447125 38091741
" />
<path d="M90913394 49520234
L77757698 44731952
" />
<path d="M77757698 44731952
L82545980 31576256
" />
<path d="M82545980 31576256
L95701676 36364538
" />
<path d="M95701676 36364538
L90913394 49520234
" />
<path d="M97741873 16834525
L92953591 29990221
" />
<path d="M84586177 12046243
L97741873 16834525
" />
<path d="M79797895 25201939
L84586177 12046243
" />
<path d="M92953591 29990221
L79797895 25201939
" />
<path d="M174274533 43021188
L169486251 29865492
" />
<path d="M182641947 25077210
L187430229 38232906
" />
<path d="M187430229 38232906
L174274533 43021188
" />
<path d="M169486251 29865492
L182641947 25077210
" />
<path d="M226605026 90166302
L231393308 103321998
" />
<path d="M231393308 103321998
L218237612 108110280
" />
<path d="M213449330 94954584
L226605026 90166302
" />
<path d="M218237612 108110280
L213449330 94954584
" />
<circle cx="309010809.000000" cy="49660031.000000" r="2200000.000000" /> 
<path d="M22650001 3600001
L36650001 3600001
" />
<path d="M36650001 3600001
L36650001 17600001
" />
<path d="M36650001 17600001
L22650001 17600001
" />
<path d="M22650001 17600001
L22650001 3600001
" />
<path d="M30529408 76190046
L16529408 76190046
" />
<path d="M16529408 62190046
L30529408 62190046
" />
<path d="M16529408 76190046
L16529408 62190046
" />
<path d="M30529408 62190046
L30529408 76190046
" />
<path d="M254246523 -984725
L259034805 12170971
" />
<path d="M241090827 3803557
L254246523 -984725
" />
<path d="M245879109 16959253
L241090827 3803557
" />
<path d="M259034805 12170971
L245879109 16959253
" />
<path d="M59856554 38216469
L64644836 25060773
" />
<path d="M77800532 29849055
L73012250 43004751
" />
<path d="M64644836 25060773
L77800532 29849055
" />
<path d="M73012250 43004751
L59856554 38216469
" />
<path d="M41955410 31700984
L46743692 18545288
" />
<path d="M46743692 18545288
L59899388 23333570
" />
<path d="M59899388 23333570
L55111106 36489266
" />
<path d="M55111106 36489266
L41955410 31700984
" />
<path d="M254039901 95079313
L249251619 81923617
" />
<path d="M262407315 77135335
L267195597 90291031
" />
<path d="M249251619 81923617
L262407315 77135335
" />
<path d="M267195597 90291031
L254039901 95079313
" />
<circle cx="118879344.000000" cy="21840884.000000" r="2200000.000000" /> 
<path d="M187387395 23350007
L200543091 18561725
" />
<path d="M200543091 18561725
L205331373 31717421
" />
<path d="M192175677 36505703
L187387395 23350007
" />
<path d="M205331373 31717421
L192175677 36505703
" />
<path d="M223232519 25201939
L210076823 29990221
" />
<path d="M210076823 29990221
L205288541 16834525
" />
<path d="M218444237 12046243
L223232519 25201939
" />
<path d="M205288541 16834525
L218444237 12046243
" />
<path d="M285430413 17600001
L285430413 3600001
" />
<path d="M299430413 3600001
L299430413 17600001
" />
<path d="M299430413 17600001
L285430413 17600001
" />
<path d="M285430413 3600001
L299430413 3600001
" />
<path d="M129463769 68925523
L124675487 82081219
" />
<path d="M116308073 64137241
L129463769 68925523
" />
<path d="M111519791 77292937
L116308073 64137241
" />
<path d="M124675487 82081219
L111519791 77292937
" />
<path d="M86833001 88580266
L73677305 83791984
" />
<path d="M91621283 75424570
L86833001 88580266
" />
<path d="M78465587 70636288
L91621283 75424570
" />
<path d="M73677305 83791984
L78465587 70636288
" />
<circle cx="184151070.000000" cy="21840885.000000" r="2200000.000000" /> 
<path d="M265155399 70761016
L251999703 75549298
" />
<path d="M251999703 75549298
L247211421 62393602
" />
<path d="M247211421 62393602
L260367117 57605320
" />
<path d="M260367117 57605320
L265155399 70761016
" />
<path d="M-2520593 76190046
L-2520593 62190046
" />
<path d="M11479407 62190046
L11479407 76190046
" />
<path d="M-2520593 62190046
L11479407 62190046
" />
<path d="M11479407 76190046
L-2520593 76190046
" />
<path d="M97699041 31717421
L102487323 18561725
" />
<path d="M102487323 18561725
L115643019 23350007
" />
<path d="M110854737 36505703
L97699041 31717421
" />
<path d="M115643019 23350007
L110854737 36505703
" />
<path d="M61896752 18686455
L66685034 5530759
" />
<path d="M66685034 5530759
L79840730 10319041
" />
<path d="M75052448 23474737
L61896752 18686455
" />
<path d="M79840730 10319041
L75052448 23474737
" />
<path d="M40623099 77135335
L53778795 81923617
" />
<path d="M48990513 95079313
L35834817 90291031
" />
<path d="M53778795 81923617
L48990513 95079313
" />
<path d="M35834817 90291031
L40623099 77135335
" />
<path d="M272501006 76190046
L272501006 62190046
" />
<path d="M272501006 62190046
L286501006 62190046
" />
<path d="M286501006 62190046
L286501006 76190046
" />
<path d="M286501006 76190046
L272501006 76190046
" />
<path d="M247254256 77276500
L234098560 82064782
" />
<path d="M242465974 64120804
L247254256 77276500
" />
<path d="M234098560 82064782
L229310278 68909086
" />
<path d="M229310278 68909086
L242465974 64120804
" />
<path d="M301470611 23130014
L301470611 37130014
" />
<path d="M287470611 37130014
L287470611 23130014
" />
<path d="M287470611 23130014
L301470611 23130014
" />
<path d="M301470611 37130014
L287470611 37130014
" />
<path d="M171526449 49395505
L184682145 44607223
" />
<path d="M189470427 57762919
L176314731 62551201
" />
<path d="M176314731 62551201
L171526449 49395505
" />
<path d="M184682145 44607223
L189470427 57762919
" />
<path d="M127423569 88455537
L122635287 101611233
" />
<path d="M122635287 101611233
L109479591 96822951
" />
<path d="M114267873 83667255
L127423569 88455537
" />
<path d="M109479591 96822951
L114267873 83667255
" />
<path d="M191467794 62410038
L204623490 57621756
" />
<path d="M196256076 75565734
L191467794 62410038
" />
<path d="M209411772 70777452
L196256076 75565734
" />
<path d="M204623490 57621756
L209411772 70777452
" />
<path d="M62604637 44590789
L75760333 49379071
" />
<path d="M57816355 57746485
L62604637 44590789
" />
<path d="M70972051 62534767
L57816355 57746485
" />
<path d="M75760333 49379071
L70972051 62534767
" />
<path d="M245171224 42863588
L258326920 38075306
" />
<path d="M249959506 56019284
L245171224 42863588
" />
<path d="M263115202 51231002
L249959506 56019284
" />
<path d="M258326920 38075306
L263115202 51231002
" />
<path d="M213492165 109837483
L200336469 114625765
" />
<path d="M200336469 114625765
L195548187 101470069
" />
<path d="M208703883 96681787
L213492165 109837483
" />
<path d="M195548187 101470069
L208703883 96681787
" />
<circle cx="291066205.000000" cy="98245062.000000" r="2200000.000000" /> 
<circle cx="11964209.000000" cy="98245062.000000" r="2200000.000000" /> 
<path d="M307591205 95720062
L293591205 95720062
" />
<path d="M293591205 95720062
L293591205 81720062
" />
<path d="M293591205 81720062
L307591205 81720062
" />
<path d="M307591205 81720062
L307591205 95720062
" />
<path d="M131503965 49395508
L126715683 62551204
" />
<path d="M113559987 57762922
L118348269 44607226
" />
<path d="M118348269 44607226
L131503965 49395508
" />
<path d="M126715683 62551204
L113559987 57762922
" />
<path d="M195591020 116352966
L182435324 121141248
" />
<path d="M177647042 107985552
L190802738 103197270
" />
<path d="M190802738 103197270
L195591020 116352966
" />
<path d="M182435324 121141248
L177647042 107985552
" />
<path d="M128755881 43021188
L115600185 38232906
" />
<path d="M120388467 25077210
L133544163 29865492
" />
<path d="M115600185 38232906
L120388467 25077210
" />
<path d="M133544163 29865492
L128755881 43021188
" />
<path d="M55266502 92601393
L68422198 97389675
" />
<path d="M68422198 97389675
L63633916 110545371
" />
<path d="M63633916 110545371
L50478220 105757089
" />
<path d="M50478220 105757089
L55266502 92601393
" />
<path d="M236345380 5530759
L241133662 18686455
" />
<path d="M241133662 18686455
L227977966 23474737
" />
<path d="M227977966 23474737
L223189684 10319041
" />
<path d="M223189684 10319041
L236345380 5530759
" />
<path d="M288541205 95720062
L274541205 95720062
" />
<path d="M288541205 81720062
L288541205 95720062
" />
<path d="M274541205 95720062
L274541205 81720062
" />
<path d="M274541205 81720062
L288541205 81720062
" />
<path d="M194215876 56035717
L189427594 42880021
" />
<path d="M207371572 51247435
L194215876 56035717
" />
<path d="M202583290 38091739
L207371572 51247435
" />
<path d="M189427594 42880021
L202583290 38091739
" />
<circle cx="139755479.000000" cy="80120643.000000" r="2200000.000000" /> 
<path d="M91578447 90307467
L96366729 77151771
" />
<path d="M109522425 81940053
L104734143 95095749
" />
<path d="M104734143 95095749
L91578447 90307467
" />
<path d="M96366729 77151771
L109522425 81940053
" />
<path d="M227312912 64261969
L214157216 69050251
" />
<path d="M214157216 69050251
L209368934 55894555
" />
<path d="M209368934 55894555
L222524630 51106273
" />
<path d="M222524630 51106273
L227312912 64261969
" />
<path d="M207328738 36364538
L220484434 31576256
" />
<path d="M212117020 49520234
L207328738 36364538
" />
<path d="M225272716 44731952
L212117020 49520234
" />
<path d="M220484434 31576256
L225272716 44731952
" />
<path d="M18569605 56660031
L18569605 42660031
" />
<path d="M32569605 42660031
L32569605 56660031
" />
<path d="M18569605 42660031
L32569605 42660031
" />
<path d="M32569605 56660031
L18569605 56660031
" />
<path d="M75717502 64261969
L80505784 51106273
" />
<path d="M93661480 55894555
L88873198 69050251
" />
<path d="M88873198 69050251
L75717502 64261969
" />
<path d="M80505784 51106273
L93661480 55894555
" />
<path d="M34609803 23130014
L34609803 37130014
" />
<path d="M20609803 23130014
L34609803 23130014
" />
<path d="M20609803 37130014
L20609803 23130014
" />
<path d="M34609803 37130014
L20609803 37130014
" />
<path d="M-4560792 95720063
L-4560792 81720063
" />
<path d="M-4560792 81720063
L9439208 81720063
" />
<path d="M9439208 81720063
L9439208 95720063
" />
<path d="M9439208 95720063
L-4560792 95720063
" />
<path d="M71637106 103321998
L76425388 90166302
" />
<path d="M89581084 94954584
L84792802 108110280
" />
<path d="M76425388 90166302
L89581084 94954584
" />
<path d="M84792802 108110280
L71637106 103321998
" />
<path d="M225229883 29849054
L238385579 25060772
" />
<path d="M238385579 25060772
L243173861 38216468
" />
<path d="M230018165 43004750
L225229883 29849054
" />
<path d="M243173861 38216468
L230018165 43004750
" />
<circle cx="65175912.000000" cy="2294434.000000" r="2200000.000000" /> 
<path d="M261075005 31700984
L247919309 36489266
" />
<path d="M243131027 23333570
L256286723 18545288
" />
<path d="M247919309 36489266
L243131027 23333570
" />
<path d="M256286723 18545288
L261075005 31700984
" />
<path d="M17600000 17600000
L3600000 17600000
" />
<path d="M3600000 3600000
L17600000 3600000
" />
<path d="M3600000 17600000
L3600000 3600000
" />
<path d="M17600000 3600000
L17600000 17600000
" />
<path d="M247763912 92601393
L252552194 105757089
" />
<path d="M234608216 97389675
L247763912 92601393
" />
<path d="M252552194 105757089
L239396498 110545371
" />
<path d="M239396498 110545371
L234608216 97389675
" />
<path d="M13519605 56660030
L-480395 56660030
" />
<path d="M-480395 56660030
L-480395 42660030
" />
<path d="M-480395 42660030
L13519605 42660030
" />
<path d="M13519605 42660030
L13519605 56660030
" />
<path d="M245214059 57746485
L232058363 62534767
" />
<path d="M232058363 62534767
L227270081 49379071
" />
<path d="M227270081 49379071
L240425777 44590789
" />
<path d="M240425777 44590789
L245214059 57746485
" />
<path d="M266380413 17600001
L266380413 3600001
" />
<path d="M266380413 3600001
L280380413 3600001
" />
<path d="M280380413 3600001
L280380413 17600001
" />
<path d="M280380413 17600001
L266380413 17600001
" />
<path d="M55776158 77276500
L60564440 64120804
" />
<path d="M68931854 82064782
L55776158 77276500
" />
<path d="M73720136 68909086
L68931854 82064782
" />
<path d="M60564440 64120804
L73720136 68909086
" />
<path d="M229353109 83791984
L216197413 88580266
" />
<path d="M216197413 88580266
L211409131 75424570
" />
<path d="M211409131 75424570
L224564827 70636288
" />
<path d="M224564827 70636288
L229353109 83791984
" />
<path d="M107439394 116352966
L112227676 103197270
" />
<path d="M120595090 121141248
L107439394 116352966
" />
<path d="M125383372 107985552
L120595090 121141248
" />
<path d="M112227676 103197270
L125383372 107985552
" />
<path d="M284460809 56660031
L270460809 56660031
" />
<path d="M270460809 56660031
L270460809 42660031
" />
<path d="M270460809 42660031
L284460809 42660031
" />
<path d="M284460809 42660031
L284460809 56660031
" />
<path d="M305551006 76190046
L291551006 76190046
" />
<path d="M291551006 62190046
L305551006 62190046
" />
<path d="M305551006 62190046
L305551006 76190046
" />
<path d="M291551006 76190046
L291551006 62190046
" />
<path d="M37875015 70761016
L42663297 57605320
" />
<path d="M55818993 62393602
L51030711 75549298
" />
<path d="M42663297 57605320
L55818993 62393602
" />
<path d="M51030711 75549298
L37875015 70761016
" />
<path d="M186722341 64137241
L191510623 77292937
" />
<path d="M191510623 77292937
L178354927 82081219
" />
<path d="M178354927 82081219
L173566645 68925523
" />
<path d="M173566645 68925523
L186722341 64137241
" />
<path d="M188762541 83667255
L193550823 96822951
" />
<path d="M175606845 88455537
L188762541 83667255
" />
<path d="M180395127 101611233
L175606845 88455537
" />
<path d="M193550823 96822951
L180395127 101611233
" />
<path d="M43995609 12170971
L48783891 -984725
" />
<path d="M61939587 3803557
L57151305 16959253
" />
<path d="M48783891 -984725
L61939587 3803557
" />
<path d="M57151305 16959253
L43995609 12170971
" />
<path d="M15559802 23130015
L15559802 37130015
" />
<path d="M1559802 37130015
L1559802 23130015
" />
<path d="M15559802 37130015
L1559802 37130015
" />
<path d="M1559802 23130015
L15559802 23130015
" />
<circle cx="-5980395.000000" cy="49660030.000000" r="2200000.000000" /> 
<path d="M28489209 95720062
L14489209 95720062
" />
<path d="M14489209 81720062
L28489209 81720062
" />
<path d="M14489209 95720062
L14489209 81720062
" />
<path d="M28489209 81720062
L28489209 95720062
" />
<path d="M111562620 62410038
L106774338 75565734
" />
<path d="M98406924 57621756
L111562620 62410038
" />
<path d="M93618642 70777452
L98406924 57621756
" />
<path d="M106774338 75565734
L93618642 70777452
" />
<path d="M94326531 96681787
L107482227 101470069
" />
<path d="M107482227 101470069
L102693945 114625765
" />
<path d="M102693945 114625765
L89538249 109837483
" />
<path d="M89538249 109837483
L94326531 96681787
" />
<circle cx="237854503.000000" cy="2294434.000000" r="2200000.000000" /> 
<path d="M39915212 51231002
L44703494 38075306
" />
<path d="M44703494 38075306
L57859190 42863588
" />
<path d="M57859190 42863588
L53070908 56019284
" />
<path d="M53070908 56019284
L39915212 51231002
" />
<circle cx="163274935.000000" cy="80120643.000000" r="2200000.000000" /> 
<g >
</g>
<g >
</g>
<g >
</g>
<g >
</g>
<g >
</g>
<g >
</g>
<g >
</g>
<g >
</g>
<g >
</g>
<g >
</g>
<g >
</g>
<g >
</g>
<g >
</g>
<g >
</g>
<g >
</g>
<g >
</g>
<g >
</g>
<g >
</g>
<g >
</g>
<g >
</g>
<g >
</g>
<g >
</g>
<g >
</g>
<g >
</g>
<g >
</g>
<g >
</g>
<g >
</g>
<g >
</g>
<g >
</g>
<g >
</g>
<g >
</g>
<g >
</g>
<g >
</g>
<g >
</g>
<g >
</g>
<g >
</g>
<g >
</g>
<g >
</g>
<g >
</g>
<g >
</g>
<g >
</g>
<g >
</g>
<g >
</g>
<g >
</g>
<g >
</g>
<g >
</g>
<g >
</g>
<g >
</g>
<g >
</g>
<g >
</g>
<g >
</g>
<g >
</g>
<g >
</g>
<g >
</g>
<g >
</g>
<g >
</g>
<g >
</g>
<g >
</g>
<g >
</g>
<g >
</g>
<g >
</g>
<g >
</g>
<g >
</g>
<g >
</g>
<g >
</g>
<g >
</g>
<g >
</g>
<g >
</g>
<g >
</g>
<g >
</g>
<g >
</g>
<g >
</g>
<g >
</g>
<g >
</g>
<g >
</g>
<g >
</g>
<g >
</g>
<g >
</g>
<g >
</g>
<g >
</g>
<g >
</g>
<g >
</g>
<g >
</g>
<g >
</g>
<g >
</g>
<g >
</g>
<g >
</g>
<g >
</g>
<g >
</g>
<g >
</g>
<g >
</g>
<g >
</g>
<g >
</g>
<g >
</g>
<g >
</g>
<g >
</g>
<g >
</g>
<g >
</g>
<g >
</g>
<g >
</g>
<g >
</g>
<g >
</g>
<g >
</g>
<g >
</g>
<g >
</g>
<g >
</g>
<g >
</g>
<g >
</g>
<g >
</g>
<g >
</g>
<g >
</g>
<g >
</g>
<g >
</g>
<g >
</g>
<g >
</g>
<g >
</g>
<g >
</g>
<g >
</g>
<g >
</g>
<g >
</g>
<g >
</g>
<g >
</g>
<g >
</g>
<g >
</g>
<g >
</g>
<g >
</g>
<g >
</g>
<g >
</g>
<g >
</g>
<g >
</g>
<g >
</g>
<g >
</g>
<g >
</g>
<g >
</g>
<g >
</g>
<g >
</g>
<g >
</g>
<g >
</g>
<g >
</g>
<g >
</g>
<g >
</g>
<g >
</g>
<g >
</g>
<g >
</g>
<g >
</g>
<g >
</g>
<g >
</g>
<g >
</g>
<g >
</g>
<g >
</g>
<g >
</g>
<g >
</g>
<g >
</g>
<g >
</g>
<g >
</g>
<g >
</g>
<g >
</g>
<g >
</g>
<g >
</g>
<g >
</g>
<g >
</g>
</g> 
</svg>
