<?xml version="1.0" encoding="UTF-8" standalone="no"?>
<!DOCTYPE svg PUBLIC "-//W3C//DTD SVG 1.1//EN" "http://www.w3.org/Graphics/SVG/1.1/DTD/svg11.dtd">
<svg width="100%" height="100%" viewBox="0 0 1361 756" version="1.1" xmlns="http://www.w3.org/2000/svg" xmlns:xlink="http://www.w3.org/1999/xlink" xml:space="preserve" xmlns:serif="http://www.serif.com/" style="fill-rule:evenodd;clip-rule:evenodd;stroke-linecap:round;stroke-linejoin:round;">
    <g transform="matrix(1.33333,0,0,1.33333,107.659,147.807)">
        <path d="M3.047,0.213L3.047,3.047L0.213,3.047L3.047,0.213" style="fill:rgb(0,132,0);fill-opacity:0;fill-rule:nonzero;stroke:rgb(255,0,0);stroke-width:0.43px;"/>
    </g>
    <g id="アクリル外形">
        <path d="M79.083,168.972C73.864,168.972 69.634,164.742 69.634,159.524L69.634,141.677C69.634,131.24 78.095,122.779 88.532,122.779L291.748,122.779C291.748,122.779 294.228,122.76 297.373,123.905L639.338,248.37C649.145,251.94 650.632,259.899 650.632,272.592C650.632,475.934 651.948,475.93 618.451,567.96C607.874,597.021 600.458,617.397 599.253,620.706C598.956,621.522 598.433,622.618 597.736,623.924C585.821,646.234 560.102,657.388 535.672,650.842C420.79,620.063 83.95,529.807 83.95,529.807C82.685,529.448 81.436,529.037 80.256,528.463L80.256,528.463C78.388,527.553 76.666,526.333 75.169,524.836C71.625,521.292 69.634,516.485 69.634,511.474L69.634,216.217C69.634,213.711 70.63,211.307 72.402,209.535C74.174,207.763 76.577,206.768 79.083,206.768C96.091,206.768 130.106,206.768 130.106,206.768L130.106,168.972L79.083,168.972Z" style="fill:none;fill-rule:nonzero;stroke:rgb(0,132,0);stroke-width:1.89px;"/>
    </g>
</svg>
