<?xml version="1.0" encoding="UTF-8" standalone="no"?>
<!DOCTYPE svg PUBLIC "-//W3C//DTD SVG 1.1//EN" "http://www.w3.org/Graphics/SVG/1.1/DTD/svg11.dtd">
<svg width="100%" height="100%" viewBox="0 0 1361 756" version="1.1" xmlns="http://www.w3.org/2000/svg" xmlns:xlink="http://www.w3.org/1999/xlink" xml:space="preserve" xmlns:serif="http://www.serif.com/" style="fill-rule:evenodd;clip-rule:evenodd;stroke-linecap:round;stroke-linejoin:round;">
    <g transform="matrix(1.33333,0,0,1.33333,107.659,147.807)">
        <path d="M3.047,0.213L3.047,3.047L0.213,3.047L3.047,0.213" style="fill:rgb(0,132,0);fill-opacity:0;fill-rule:nonzero;stroke:rgb(255,0,0);stroke-width:0.43px;"/>
    </g>
    <g id="ネジ・スペーサー穴">
        <g transform="matrix(1.90702,0,0,1.90702,-115.627,-106.985)">
            <circle cx="108.042" cy="131.718" r="4.36" style="fill:none;stroke:rgb(255,0,0);stroke-width:0.99px;stroke-miterlimit:1.5;"/>
        </g>
        <g transform="matrix(1.90702,0,0,1.90702,386.149,-6.7366)">
            <circle cx="108.042" cy="131.718" r="4.36" style="fill:none;stroke:rgb(255,0,0);stroke-width:0.99px;stroke-miterlimit:1.5;"/>
        </g>
        <g transform="matrix(1.90702,0,0,1.90702,427.755,195.643)">
            <circle cx="108.042" cy="131.718" r="4.36" style="fill:none;stroke:rgb(255,0,0);stroke-width:0.99px;stroke-miterlimit:1.5;"/>
        </g>
        <g transform="matrix(1.90702,0,0,1.90702,377.834,367.642)">
            <circle cx="108.042" cy="131.718" r="4.36" style="fill:none;stroke:rgb(255,0,0);stroke-width:0.99px;stroke-miterlimit:1.5;"/>
        </g>
        <g transform="matrix(1.90702,0,0,1.90702,175.363,329.044)">
            <circle cx="108.042" cy="131.718" r="4.36" style="fill:none;stroke:rgb(255,0,0);stroke-width:0.99px;stroke-miterlimit:1.5;"/>
        </g>
        <g transform="matrix(1.90702,0,0,1.90702,164.528,-86.7336)">
            <circle cx="108.042" cy="131.718" r="4.36" style="fill:none;stroke:rgb(255,0,0);stroke-width:0.99px;stroke-miterlimit:1.5;"/>
        </g>
        <g transform="matrix(1.90702,0,0,1.90702,-115.627,75.5242)">
            <circle cx="108.042" cy="131.718" r="4.36" style="fill:none;stroke:rgb(255,0,0);stroke-width:0.99px;stroke-miterlimit:1.5;"/>
        </g>
        <g transform="matrix(1.90702,0,0,1.90702,-96.2053,267.86)">
            <circle cx="108.042" cy="131.718" r="4.36" style="fill:none;stroke:rgb(255,0,0);stroke-width:0.99px;stroke-miterlimit:1.5;"/>
        </g>
    </g>
</svg>
