<?xml version="1.0" encoding="UTF-8" standalone="no"?>
<!DOCTYPE svg PUBLIC "-//W3C//DTD SVG 1.1//EN" "http://www.w3.org/Graphics/SVG/1.1/DTD/svg11.dtd">
<svg width="100%" height="100%" viewBox="0 0 1701 1134" version="1.1" xmlns="http://www.w3.org/2000/svg" xmlns:xlink="http://www.w3.org/1999/xlink" xml:space="preserve" xmlns:serif="http://www.serif.com/" style="fill-rule:evenodd;clip-rule:evenodd;stroke-linecap:round;stroke-linejoin:round;">
    <g id="カット2-R0G0B255-" serif:id="カット2(R0G0B255)">
        <path d="M47.244,74.54C42.026,74.54 37.795,70.309 37.795,65.091L37.795,56.693C37.795,46.256 46.256,37.795 56.693,37.795L259.909,37.795C259.909,37.795 262.389,37.777 265.534,38.921L607.499,163.386C617.306,166.956 618.794,174.916 618.794,187.608L618.794,391.227C618.794,393.432 618.408,395.619 617.654,397.691C607.366,425.957 571.874,523.47 557.692,562.434C554.341,571.642 544.508,576.761 535.043,574.225C448.137,550.938 52.111,444.823 52.111,444.823C50.846,444.464 49.597,444.054 48.418,443.479L48.417,443.479C46.55,442.569 44.827,441.349 43.33,439.852C39.786,436.308 37.795,431.502 37.795,426.49L37.795,140.682C37.795,138.176 38.791,135.772 40.563,134C42.335,132.228 44.738,131.233 47.244,131.233C67.522,131.233 113.386,131.233 113.386,131.233L113.386,74.54L47.244,74.54ZM895.39,37.795C895.39,37.795 897.87,37.777 901.016,38.921C901.016,38.921 1170.79,137.158 1223.52,156.36C1228.42,158.145 1230.95,163.567 1229.16,168.47C1224.62,180.96 1216.88,202.212 1216.88,202.212L1248.07,213.561C1251.8,214.922 1254.29,218.477 1254.28,222.454C1254.28,231.098 1254.28,239.314 1254.28,247.121L1254.28,391.227C1254.28,393.432 1253.89,395.619 1253.13,397.691L1222.1,482.968L1222.09,482.977C1211.52,512.037 1204.1,532.413 1202.9,535.722L1202.9,535.722L1193.17,562.434C1189.82,571.642 1179.99,576.761 1170.53,574.225C1083.62,550.938 687.593,444.823 687.593,444.823C686.328,444.464 685.079,444.054 683.899,443.479L683.899,443.479C682.031,442.569 680.309,441.349 678.812,439.852C675.268,436.308 673.277,431.502 673.277,426.49L673.277,56.693C673.277,46.256 681.738,37.795 692.174,37.795L895.39,37.795ZM278.056,1059.32C272.837,1059.32 268.607,1063.55 268.607,1068.77L268.607,1077.16C268.607,1087.6 277.068,1096.06 287.505,1096.06L490.721,1096.06C490.721,1096.06 493.201,1096.08 496.346,1094.94L838.311,970.472C848.118,966.902 849.605,958.943 849.605,946.251L849.605,742.631C849.605,740.426 849.219,738.239 848.466,736.167C838.178,707.902 802.686,610.388 788.504,571.424C785.152,562.216 775.319,557.098 765.855,559.634C678.948,582.92 282.923,689.035 282.923,689.035C281.658,689.394 280.409,689.805 279.229,690.379L279.229,690.379C277.361,691.289 275.639,692.509 274.142,694.006C270.598,697.55 268.607,702.357 268.607,707.369L268.607,993.177C268.607,995.683 269.602,998.086 271.374,999.858C273.146,1001.63 275.55,1002.62 278.056,1002.62C298.333,1002.62 344.197,1002.62 344.197,1002.62L344.197,1059.32L278.056,1059.32ZM1126.2,1096.06C1126.2,1096.06 1128.68,1096.08 1131.83,1094.94C1131.83,1094.94 1401.6,996.7 1454.33,977.498C1459.23,975.713 1461.76,970.291 1459.97,965.388C1455.43,952.898 1447.69,931.647 1447.69,931.647L1478.88,920.297C1482.61,918.937 1485.1,915.382 1485.09,911.404C1485.1,902.76 1485.09,894.544 1485.09,886.738L1485.09,742.631C1485.09,740.426 1484.7,738.239 1483.95,736.167L1452.91,650.89L1452.91,650.882C1442.33,621.821 1434.91,601.446 1433.71,598.136L1433.71,598.136L1423.99,571.424C1420.63,562.216 1410.8,557.098 1401.34,559.634C1314.43,582.92 918.404,689.035 918.404,689.035C917.139,689.394 915.891,689.805 914.711,690.379L914.71,690.379C912.843,691.289 911.12,692.509 909.623,694.006C906.079,697.55 904.088,702.357 904.088,707.369L904.088,1077.16C904.088,1087.6 912.549,1096.06 922.986,1096.06L1126.2,1096.06ZM1500.73,60.627C1500.73,52.074 1506.47,44.587 1514.73,42.373C1534.36,37.115 1567.66,28.193 1567.66,28.193C1577.74,25.492 1588.1,31.474 1590.8,41.555L1643.4,237.847C1643.4,237.847 1644.06,240.238 1643.77,243.572L1612.05,606.099C1611.14,616.496 1603.84,619.992 1591.58,623.277C1566.12,630.099 1543.96,636.058 1524.47,641.245C1518.8,642.749 1512.75,641.534 1508.1,637.957C1503.45,634.379 1500.73,628.845 1500.73,622.979C1500.73,521.976 1500.73,140.004 1500.73,60.627ZM177.383,1075.1C177.383,1083.65 171.638,1091.14 163.376,1093.35C143.754,1098.61 110.454,1107.53 110.454,1107.53C100.373,1110.24 90.011,1104.25 87.31,1094.17L34.714,897.879C34.714,897.879 34.054,895.488 34.345,892.154L66.062,529.628C66.972,519.23 74.275,515.734 86.535,512.449C111.994,505.627 134.148,499.668 153.642,494.481C159.312,492.977 165.359,494.192 170.009,497.77C174.658,501.347 177.383,506.881 177.383,512.747C177.383,613.75 177.383,995.722 177.383,1075.1Z" style="fill:none;fill-rule:nonzero;"/>
    </g>
    <g id="カット1-R255G0B0-" serif:id="カット1(R255G0B0)">
        <path d="M62.479,57.055C64.878,57.055 66.826,59.003 66.826,61.402C66.826,63.8 64.878,65.748 62.479,65.748C60.081,65.748 58.133,63.8 58.133,61.402C58.133,59.003 60.081,57.055 62.479,57.055ZM189.373,144.171C191.772,144.171 193.72,146.118 193.72,148.517C193.72,150.916 191.772,152.864 189.373,152.864C186.974,152.864 185.027,150.916 185.027,148.517C185.027,146.118 186.974,144.171 189.373,144.171ZM479.554,220.041C481.953,220.041 483.901,221.988 483.901,224.387C483.901,226.786 481.953,228.734 479.554,228.734C477.155,228.734 475.208,226.786 475.208,224.387C475.208,221.988 477.155,220.041 479.554,220.041ZM525.128,141.025C527.527,141.025 529.475,142.973 529.475,145.372C529.475,147.77 527.527,149.718 525.128,149.718C522.729,149.718 520.782,147.77 520.782,145.372C520.782,142.973 522.729,141.025 525.128,141.025ZM604.03,361.295C606.429,361.295 608.376,363.243 608.376,365.642C608.376,368.04 606.429,369.988 604.03,369.988C601.631,369.988 599.684,368.04 599.684,365.642C599.684,363.243 601.631,361.295 604.03,361.295ZM526.269,549.219C528.668,549.219 530.615,551.167 530.615,553.566C530.615,555.965 528.668,557.912 526.269,557.912C523.87,557.912 521.922,555.965 521.922,553.566C521.922,551.167 523.87,549.219 526.269,549.219ZM349.763,493.849C352.162,493.849 354.109,495.797 354.109,498.196C354.109,500.595 352.162,502.542 349.763,502.542C347.364,502.542 345.417,500.595 345.417,498.196C345.417,495.797 347.364,493.849 349.763,493.849ZM322.154,67.149C324.553,67.149 326.501,69.096 326.501,71.495C326.501,73.894 324.553,75.842 322.154,75.842C319.756,75.842 317.808,73.894 317.808,71.495C317.808,69.096 319.756,67.149 322.154,67.149ZM53.366,246.168C55.765,246.168 57.713,248.116 57.713,250.515C57.713,252.914 55.765,254.861 53.366,254.861C50.967,254.861 49.02,252.914 49.02,250.515C49.02,248.116 50.967,246.168 53.366,246.168ZM121.039,429.797C123.438,429.797 125.386,431.744 125.386,434.143C125.386,436.542 123.438,438.49 121.039,438.49C118.64,438.49 116.693,436.542 116.693,434.143C116.693,431.744 118.64,429.797 121.039,429.797ZM293.291,1076.8C295.69,1076.8 297.638,1074.86 297.638,1072.46C297.638,1070.06 295.69,1068.11 293.291,1068.11C290.892,1068.11 288.945,1070.06 288.945,1072.46C288.945,1074.86 290.892,1076.8 293.291,1076.8ZM420.185,989.688C422.584,989.688 424.531,987.74 424.531,985.341C424.531,982.942 422.584,980.995 420.185,980.995C417.786,980.995 415.838,982.942 415.838,985.341C415.838,987.74 417.786,989.688 420.185,989.688ZM710.366,913.817C712.765,913.817 714.712,911.87 714.712,909.471C714.712,907.072 712.765,905.124 710.366,905.124C707.967,905.124 706.019,907.072 706.019,909.471C706.019,911.87 707.967,913.817 710.366,913.817ZM755.94,992.833C758.339,992.833 760.286,990.886 760.286,988.487C760.286,986.088 758.339,984.14 755.94,984.14C753.541,984.14 751.593,986.088 751.593,988.487C751.593,990.886 753.541,992.833 755.94,992.833ZM834.842,772.563C837.241,772.563 839.188,770.616 839.188,768.217C839.188,765.818 837.241,763.87 834.842,763.87C832.443,763.87 830.495,765.818 830.495,768.217C830.495,770.616 832.443,772.563 834.842,772.563ZM757.08,584.639C759.479,584.639 761.427,582.691 761.427,580.292C761.427,577.894 759.479,575.946 757.08,575.946C754.681,575.946 752.734,577.894 752.734,580.292C752.734,582.691 754.681,584.639 757.08,584.639ZM580.575,640.009C582.973,640.009 584.921,638.061 584.921,635.662C584.921,633.264 582.973,631.316 580.575,631.316C578.176,631.316 576.228,633.264 576.228,635.662C576.228,638.061 578.176,640.009 580.575,640.009ZM552.966,1066.71C555.365,1066.71 557.313,1064.76 557.313,1062.36C557.313,1059.96 555.365,1058.02 552.966,1058.02C550.567,1058.02 548.62,1059.96 548.62,1062.36C548.62,1064.76 550.567,1066.71 552.966,1066.71ZM284.178,887.69C286.577,887.69 288.524,885.742 288.524,883.343C288.524,880.945 286.577,878.997 284.178,878.997C281.779,878.997 279.831,880.945 279.831,883.343C279.831,885.742 281.779,887.69 284.178,887.69ZM351.851,704.061C354.25,704.061 356.197,702.114 356.197,699.715C356.197,697.316 354.25,695.369 351.851,695.369C349.452,695.369 347.505,697.316 347.505,699.715C347.505,702.114 349.452,704.061 351.851,704.061ZM1303.66,877.344L1321.76,927.066L1371.48,908.969L1353.38,859.246L1303.66,877.344M1303.82,933.594L1285.72,883.872L1236,901.969L1254.1,951.692L1303.82,933.594M1293.43,957.686L1243.71,975.784L1261.81,1025.51L1311.53,1007.41L1293.43,957.686M1027.72,1004.51L1027.72,1057.43L1080.63,1057.43L1080.63,1004.51L1027.72,1004.51M1057.5,835.986L1057.5,783.073L1004.59,783.073L1004.59,835.986L1057.5,835.986M1218.07,908.497L1168.34,926.595L1186.44,976.317L1236.16,958.22L1218.07,908.497M1150.41,933.123L1100.68,951.22L1118.78,1000.94L1168.51,982.845L1150.41,933.123M1413.33,760.807L1363.61,778.904L1381.7,828.626L1431.42,810.529L1413.33,760.807M1220.58,754.341L1238.68,804.063L1288.4,785.966L1270.3,736.243L1220.58,754.341M985.5,783.073L932.587,783.073L932.587,835.986L985.5,835.986L985.5,783.073M1379.19,982.783L1361.09,933.061L1311.37,951.158L1329.47,1000.88L1379.19,982.783M1243.87,1032.03L1225.78,982.312L1176.05,1000.41L1194.15,1050.13L1243.87,1032.03M1077.55,729.777L1095.65,779.5L1145.37,761.402L1127.27,711.68L1077.55,729.777M1355.89,705.09L1373.99,754.812L1423.71,736.715L1405.62,686.992L1355.89,705.09M1228.45,884.405L1210.35,834.683L1160.63,852.781L1178.73,902.503L1228.45,884.405M1421.04,834.621L1371.32,852.718L1389.41,902.441L1439.14,884.343L1421.04,834.621M1446.85,958.157L1428.75,908.435L1379.03,926.533L1397.12,976.255L1446.85,958.157M1132.9,671.323L1151,721.045L1200.72,702.948L1182.62,653.226L1132.9,671.323M1306.33,779.438L1356.06,761.34L1337.96,711.618L1288.24,729.715L1306.33,779.438M1065.21,856.887L1012.3,856.887L1012.3,909.8L1065.21,909.8L1065.21,856.887M1246.39,877.877L1296.11,859.78L1278.01,810.058L1228.29,828.155L1246.39,877.877M1072.92,930.701L1020.01,930.701L1020.01,983.614L1072.92,983.614L1072.92,930.701M977.789,709.258L924.876,709.258L924.876,762.172L977.789,762.172L977.789,709.258M1262.59,662.429L1212.87,680.527L1230.96,730.249L1280.69,712.151L1262.59,662.429M1008.63,1057.43L1008.63,1004.51L955.72,1004.51L955.72,1057.43L1008.63,1057.43M993.211,909.8L993.211,856.887L940.298,856.887L940.298,909.8L993.211,909.8M1171.02,828.689L1220.74,810.591L1202.64,760.869L1152.92,778.966L1171.02,828.689M1366.28,680.998L1416,662.901L1397.91,613.178L1348.18,631.276L1366.28,680.998M1134.99,785.494L1085.26,803.592L1103.36,853.314L1153.08,835.217L1134.99,785.494M1158.12,1006.94L1108.4,1025.03L1126.49,1074.76L1176.22,1056.66L1158.12,1006.94M948.009,983.614L1000.92,983.614L1000.92,930.701L948.009,930.701L948.009,983.614M1049.79,762.172L1049.79,709.258L996.876,709.258L996.876,762.172L1049.79,762.172M1345.67,785.432L1295.95,803.53L1314.05,853.252L1363.77,835.154L1345.67,785.432M1280.53,655.901L1298.62,705.623L1348.35,687.526L1330.25,637.804L1280.53,655.901M1142.7,859.309L1092.97,877.406L1111.07,927.128L1160.79,909.031L1142.7,859.309M928.773,1076.8C931.172,1076.8 933.119,1074.86 933.119,1072.46C933.119,1070.06 931.172,1068.11 928.773,1068.11C926.374,1068.11 924.426,1070.06 924.426,1072.46C924.426,1074.86 926.374,1076.8 928.773,1076.8ZM1391.42,992.833C1393.82,992.833 1395.77,990.886 1395.77,988.487C1395.77,986.088 1393.82,984.14 1391.42,984.14C1389.02,984.14 1387.08,986.088 1387.08,988.487C1387.08,990.886 1389.02,992.833 1391.42,992.833ZM1470.32,772.563C1472.72,772.563 1474.67,770.616 1474.67,768.217C1474.67,765.818 1472.72,763.87 1470.32,763.87C1467.92,763.87 1465.98,765.818 1465.98,768.217C1465.98,770.616 1467.92,772.563 1470.32,772.563ZM1392.56,584.639C1394.96,584.639 1396.91,582.691 1396.91,580.292C1396.91,577.894 1394.96,575.946 1392.56,575.946C1390.16,575.946 1388.21,577.894 1388.21,580.292C1388.21,582.691 1390.16,584.639 1392.56,584.639ZM1216.06,640.009C1218.45,640.009 1220.4,638.061 1220.4,635.662C1220.4,633.264 1218.45,631.316 1216.06,631.316C1213.66,631.316 1211.71,633.264 1211.71,635.662C1211.71,638.061 1213.66,640.009 1216.06,640.009ZM1188.45,1066.71C1190.85,1066.71 1192.79,1064.76 1192.79,1062.36C1192.79,1059.96 1190.85,1058.02 1188.45,1058.02C1186.05,1058.02 1184.1,1059.96 1184.1,1062.36C1184.1,1064.76 1186.05,1066.71 1188.45,1066.71ZM919.659,887.69C922.058,887.69 924.006,885.742 924.006,883.343C924.006,880.945 922.058,878.997 919.659,878.997C917.26,878.997 915.313,880.945 915.313,883.343C915.313,885.742 917.26,887.69 919.659,887.69ZM987.333,704.061C989.731,704.061 991.679,702.114 991.679,699.715C991.679,697.316 989.731,695.369 987.333,695.369C984.934,695.369 982.986,697.316 982.986,699.715C982.986,702.114 984.934,704.061 987.333,704.061ZM1072.85,256.514L1090.94,206.792L1140.67,224.89L1122.57,274.612L1072.85,256.514M1073.01,200.264L1054.91,249.986L1005.19,231.889L1023.29,182.167L1073.01,200.264M1062.62,176.172L1012.9,158.075L1031,108.352L1080.72,126.45L1062.62,176.172M796.908,129.343L796.908,76.43L849.822,76.43L849.822,129.343L796.908,129.343M826.689,297.872L826.689,350.786L773.775,350.786L773.775,297.872L826.689,297.872M987.254,225.361L937.531,207.264L955.629,157.541L1005.35,175.639L987.254,225.361M919.596,200.736L869.873,182.638L887.971,132.916L937.693,151.013L919.596,200.736M1182.52,373.052L1132.79,354.954L1150.89,305.232L1200.61,323.329L1182.52,373.052M989.767,379.517L1007.87,329.795L1057.59,347.893L1039.49,397.615L989.767,379.517M754.689,350.786L701.775,350.786L701.775,297.872L754.689,297.872L754.689,350.786M1148.38,151.075L1130.28,200.798L1080.56,182.7L1098.66,132.978L1148.38,151.075M1013.06,101.824L994.965,151.547L945.242,133.449L963.34,83.727L1013.06,101.824M846.741,404.081L864.838,354.358L914.56,372.456L896.463,422.178L846.741,404.081M1125.08,428.768L1143.18,379.046L1192.9,397.143L1174.81,446.866L1125.08,428.768M997.64,249.453L979.543,299.175L929.82,281.078L947.918,231.355L997.64,249.453M1190.23,299.237L1140.51,281.14L1158.6,231.418L1208.33,249.515L1190.23,299.237M1216.04,175.701L1197.94,225.423L1148.22,207.326L1166.31,157.603L1216.04,175.701M902.086,462.535L920.183,412.813L969.905,430.91L951.808,480.633L902.086,462.535M1075.52,354.421L1125.25,372.518L1107.15,422.24L1057.42,404.143L1075.52,354.421M834.4,276.971L781.486,276.971L781.486,224.058L834.4,224.058L834.4,276.971M1015.58,255.981L1065.3,274.078L1047.2,323.801L997.478,305.703L1015.58,255.981M842.111,203.157L789.197,203.157L789.197,150.244L842.111,150.244L842.111,203.157M746.978,424.6L694.064,424.6L694.064,371.687L746.978,371.687L746.978,424.6M1031.78,471.429L982.056,453.332L1000.15,403.609L1049.88,421.707L1031.78,471.429M777.822,76.43L777.822,129.343L724.908,129.343L724.908,76.43L777.822,76.43M762.4,224.058L762.4,276.971L709.486,276.971L709.486,224.058L762.4,224.058M940.207,305.17L989.929,323.267L971.832,372.989L922.109,354.892L940.207,305.17M1135.47,452.86L1185.19,470.958L1167.09,520.68L1117.37,502.583L1135.47,452.86M904.174,348.364L854.452,330.267L872.549,280.544L922.271,298.642L904.174,348.364M927.307,126.921L877.584,108.824L895.682,59.102L945.404,77.199L927.307,126.921M717.197,150.244L770.111,150.244L770.111,203.157L717.197,203.157L717.197,150.244M818.978,371.687L818.978,424.6L766.064,424.6L766.064,371.687L818.978,371.687M1114.86,348.426L1065.14,330.329L1083.23,280.606L1132.96,298.704L1114.86,348.426M1049.71,477.957L1067.81,428.235L1117.53,446.332L1099.44,496.055L1049.71,477.957M911.885,274.55L862.162,256.452L880.26,206.73L929.982,224.827L911.885,274.55M697.961,57.055C700.36,57.055 702.307,59.003 702.307,61.402C702.307,63.8 700.36,65.748 697.961,65.748C695.562,65.748 693.615,63.8 693.615,61.402C693.615,59.003 695.562,57.055 697.961,57.055ZM1160.61,141.025C1163.01,141.025 1164.96,142.973 1164.96,145.372C1164.96,147.77 1163.01,149.718 1160.61,149.718C1158.21,149.718 1156.26,147.77 1156.26,145.372C1156.26,142.973 1158.21,141.025 1160.61,141.025ZM1239.51,361.295C1241.91,361.295 1243.86,363.243 1243.86,365.642C1243.86,368.04 1241.91,369.988 1239.51,369.988C1237.11,369.988 1235.16,368.04 1235.16,365.642C1235.16,363.243 1237.11,361.295 1239.51,361.295ZM1161.75,549.219C1164.15,549.219 1166.1,551.167 1166.1,553.566C1166.1,555.965 1164.15,557.912 1161.75,557.912C1159.35,557.912 1157.4,555.965 1157.4,553.566C1157.4,551.167 1159.35,549.219 1161.75,549.219ZM985.244,493.849C987.643,493.849 989.591,495.797 989.591,498.196C989.591,500.595 987.643,502.542 985.244,502.542C982.846,502.542 980.898,500.595 980.898,498.196C980.898,495.797 982.846,493.849 985.244,493.849ZM957.636,67.149C960.035,67.149 961.982,69.096 961.982,71.495C961.982,73.894 960.035,75.842 957.636,75.842C955.237,75.842 953.29,73.894 953.29,71.495C953.29,69.096 955.237,67.149 957.636,67.149ZM688.848,246.168C691.247,246.168 693.194,248.116 693.194,250.515C693.194,252.914 691.247,254.861 688.848,254.861C686.449,254.861 684.501,252.914 684.501,250.515C684.501,248.116 686.449,246.168 688.848,246.168ZM756.521,429.797C758.92,429.797 760.867,431.744 760.867,434.143C760.867,436.542 758.92,438.49 756.521,438.49C754.122,438.49 752.174,436.542 752.174,434.143C752.174,431.744 754.122,429.797 756.521,429.797ZM104.416,1083.6C103.795,1081.28 105.172,1078.89 107.489,1078.27C109.806,1077.65 112.191,1079.03 112.812,1081.35C113.433,1083.66 112.056,1086.05 109.739,1086.67C107.422,1087.29 105.036,1085.91 104.416,1083.6ZM155.72,938.479C155.099,936.162 156.477,933.777 158.794,933.156C161.111,932.535 163.496,933.912 164.117,936.23C164.738,938.547 163.361,940.932 161.044,941.553C158.726,942.174 156.341,940.797 155.72,938.479ZM153.901,638.55C153.28,636.232 154.657,633.847 156.974,633.226C159.291,632.605 161.677,633.982 162.298,636.3C162.918,638.617 161.541,641.002 159.224,641.623C156.907,642.244 154.522,640.867 153.901,638.55ZM65.782,614.979C65.161,612.662 66.538,610.277 68.855,609.656C71.173,609.035 73.558,610.412 74.179,612.729C74.8,615.047 73.423,617.432 71.105,618.053C68.788,618.674 66.403,617.296 65.782,614.979ZM46.956,830.157C46.336,827.84 47.713,825.455 50.03,824.834C52.347,824.213 54.732,825.59 55.353,827.907C55.974,830.225 54.597,832.61 52.28,833.231C49.963,833.852 47.577,832.474 46.956,830.157ZM1573.69,52.13C1574.32,54.447 1572.94,56.832 1570.62,57.453C1568.3,58.074 1565.92,56.697 1565.3,54.38C1564.68,52.062 1566.05,49.677 1568.37,49.056C1570.69,48.435 1573.07,49.812 1573.69,52.13ZM1522.39,197.247C1523.01,199.564 1521.63,201.949 1519.32,202.57C1517,203.191 1514.61,201.814 1513.99,199.497C1513.37,197.18 1514.75,194.794 1517.07,194.173C1519.38,193.552 1521.77,194.93 1522.39,197.247ZM1524.21,497.177C1524.83,499.494 1523.45,501.879 1521.14,502.5C1518.82,503.121 1516.43,501.744 1515.81,499.427C1515.19,497.109 1516.57,494.724 1518.89,494.103C1521.2,493.482 1523.59,494.86 1524.21,497.177ZM1612.33,520.747C1612.95,523.064 1611.57,525.449 1609.26,526.07C1606.94,526.691 1604.55,525.314 1603.93,522.997C1603.31,520.68 1604.69,518.294 1607.01,517.673C1609.32,517.053 1611.71,518.43 1612.33,520.747ZM1631.15,305.569C1631.78,307.886 1630.4,310.271 1628.08,310.892C1625.76,311.513 1623.38,310.136 1622.76,307.819C1622.14,305.502 1623.51,303.116 1625.83,302.495C1628.15,301.875 1630.53,303.252 1631.15,305.569Z" style="fill:none;"/>
    </g>
</svg>
