<svg xmlns="http://www.w3.org/2000/svg" viewBox="0 0 1207.1764 810.4808"><defs><style>.cls-1,.cls-2{fill:none;stroke-linecap:round;stroke-linejoin:round;stroke-width:0.0028px;}.cls-1{stroke:blue;}.cls-2{stroke:red;}</style></defs><g id="カット2_R0G0B255_" data-name="カット2(R0G0B255)"><path class="cls-1" d="M35.4331,55.905a7.0868,7.0868,0,0,1-7.0866-7.087V42.52A14.1736,14.1736,0,0,1,42.52,28.346H194.932a13.34,13.34,0,0,1,4.219.845L455.624,122.54c7.356,2.677,8.471,8.647,8.471,18.166V293.421a14.1566,14.1566,0,0,1-.855,4.847c-7.716,21.2-34.335,94.335-44.971,123.558a14.1723,14.1723,0,0,1-16.987,8.842c-65.18-17.464-362.1987-97.05-362.1987-97.05a16.7573,16.7573,0,0,1-2.77-1.009h0a14.1733,14.1733,0,0,1-7.9665-12.742V105.511a7.0855,7.0855,0,0,1,7.0866-7.086H85.0394V55.905Z" transform="translate(-25.7018 -20.6571)"/><path class="cls-1" d="M671.543,28.346a13.34,13.34,0,0,1,4.219.845s202.327,73.677,241.875,88.079a7.0876,7.0876,0,0,1,4.235,9.083c-3.41,9.367-9.211,25.306-9.211,25.306l23.387,8.512a7.0836,7.0836,0,0,1,4.663,6.669q.0015,9.726-.005,18.5V293.421a14.18,14.18,0,0,1-.854,4.847l-23.279,63.958-.003.006c-7.932,21.796-13.495,37.078-14.398,39.559v.001l-7.292,20.034a14.1723,14.1723,0,0,1-16.987,8.842c-65.179-17.464-362.199-97.05-362.199-97.05a16.7936,16.7936,0,0,1-2.77-1.009,14.1735,14.1735,0,0,1-7.966-12.742V42.52a14.1733,14.1733,0,0,1,14.173-14.174Z" transform="translate(-25.7018 -20.6571)"/><path class="cls-1" d="M208.542,794.4888a7.0868,7.0868,0,0,0-7.087,7.0866v6.2986a14.1734,14.1734,0,0,0,14.173,14.1732H368.04a13.3451,13.3451,0,0,0,4.219-.8446L628.733,727.854c7.356-2.677,8.471-8.647,8.471-18.166V556.973a14.1566,14.1566,0,0,0-.855-4.847c-7.716-21.2-34.335-94.335-44.971-123.558a14.1734,14.1734,0,0,0-16.987-8.843L212.192,516.776a16.7568,16.7568,0,0,0-2.77,1.008,14.1712,14.1712,0,0,0-7.967,12.742V744.883a7.0881,7.0881,0,0,0,7.087,7.0861h49.606v42.52Z" transform="translate(-25.7018 -20.6571)"/><path class="cls-1" d="M844.652,822.0472a13.3451,13.3451,0,0,0,4.219-.8446S1051.2,747.525,1090.75,733.124a7.0892,7.0892,0,0,0,4.23-9.083c-3.41-9.367-9.21-25.306-9.21-25.306l23.39-8.512a7.0946,7.0946,0,0,0,4.66-6.67V556.973a14.0666,14.0666,0,0,0-.86-4.847l-23.28-63.959v-.006c-7.93-21.795-13.5-37.077-14.4-39.559l-7.29-20.034a14.1744,14.1744,0,0,0-16.99-8.843c-65.178,17.465-362.197,97.051-362.197,97.051a16.7568,16.7568,0,0,0-2.77,1.008,14.1759,14.1759,0,0,0-7.967,12.742V807.874a14.1736,14.1736,0,0,0,14.174,14.1732Z" transform="translate(-25.7018 -20.6571)"/><path class="cls-1" d="M1125.55,45.47a14.1639,14.1639,0,0,1,10.5-13.69c14.72-3.944,39.69-10.635,39.69-10.635a14.1769,14.1769,0,0,1,17.36,10.022l39.45,147.218a13.4213,13.4213,0,0,1,.27,4.294l-23.78,271.895c-.69,7.798-6.16,10.42-15.36,12.884-19.09,5.116-35.71,9.585-50.33,13.476a14.1713,14.1713,0,0,1-17.8-13.7Z" transform="translate(-25.7018 -20.6571)"/><path class="cls-1" d="M133.037,806.3245a14.1736,14.1736,0,0,1-10.505,13.69L82.8408,830.65a14.1732,14.1732,0,0,1-17.3585-10.022L26.0351,673.409a13.3419,13.3419,0,0,1-.2761-4.293L49.5467,397.221c.6822-7.798,6.16-10.421,15.3546-12.884,19.0943-5.117,35.71-9.586,50.33-13.476a14.172,14.172,0,0,1,17.806,13.699Z" transform="translate(-25.7018 -20.6571)"/></g><g id="カット1_R255G0B0_" data-name="カット1(R255G0B0)"><path class="cls-2" d="M46.86,42.791a3.26,3.26,0,1,1-3.26,3.26A3.2616,3.2616,0,0,1,46.86,42.791Z" transform="translate(-25.7018 -20.6571)"/><circle class="cls-2" cx="116.3282" cy="90.7309" r="3.26"/><path class="cls-2" d="M359.666,165.031a3.26,3.26,0,1,1-3.26,3.26A3.26,3.26,0,0,1,359.666,165.031Z" transform="translate(-25.7018 -20.6571)"/><circle class="cls-2" cx="393.846" cy="109.029" r="3.26" transform="translate(197.4358 459.6677) rotate(-80.7825)"/><path class="cls-2" d="M453.022,270.971a3.26,3.26,0,1,1-3.259,3.26A3.2612,3.2612,0,0,1,453.022,270.971Z" transform="translate(-25.7018 -20.6571)"/><path class="cls-2" d="M394.702,411.915a3.26,3.26,0,1,1-3.26,3.259A3.26,3.26,0,0,1,394.702,411.915Z" transform="translate(-25.7018 -20.6571)"/><circle class="cls-2" cx="262.322" cy="373.647" r="3.26" transform="translate(-148.7221 108.1711) rotate(-22.5)"/><path class="cls-2" d="M241.616,50.362a3.26,3.26,0,1,1-3.26,3.259A3.261,3.261,0,0,1,241.616,50.362Z" transform="translate(-25.7018 -20.6571)"/><path class="cls-2" d="M40.0246,184.626a3.26,3.26,0,1,1-3.26,3.26A3.2616,3.2616,0,0,1,40.0246,184.626Z" transform="translate(-25.7018 -20.6571)"/><path class="cls-2" d="M90.78,322.348a3.26,3.26,0,1,1-3.26,3.259A3.2608,3.2608,0,0,1,90.78,322.348Z" transform="translate(-25.7018 -20.6571)"/><path class="cls-2" d="M219.968,807.6024a3.26,3.26,0,1,0-3.26-3.26A3.2616,3.2616,0,0,0,219.968,807.6024Z" transform="translate(-25.7018 -20.6571)"/><path class="cls-2" d="M315.139,742.266a3.26,3.26,0,1,0-3.26-3.26A3.261,3.261,0,0,0,315.139,742.266Z" transform="translate(-25.7018 -20.6571)"/><path class="cls-2" d="M532.774,685.363a3.26,3.26,0,1,0-3.259-3.26A3.2612,3.2612,0,0,0,532.774,685.363Z" transform="translate(-25.7018 -20.6571)"/><circle class="cls-2" cx="541.2532" cy="720.7079" r="3.26"/><path class="cls-2" d="M626.131,579.422a3.26,3.26,0,1,0-3.26-3.259A3.261,3.261,0,0,0,626.131,579.422Z" transform="translate(-25.7018 -20.6571)"/><circle class="cls-2" cx="542.1082" cy="414.5619" r="3.26"/><circle class="cls-2" cx="409.7292" cy="456.0899" r="3.26"/><path class="cls-2" d="M414.725,800.0321a3.26,3.26,0,1,0-3.26-3.26A3.2607,3.2607,0,0,0,414.725,800.0321Z" transform="translate(-25.7018 -20.6571)"/><path class="cls-2" d="M213.133,665.767a3.26,3.26,0,1,0-3.259-3.259A3.26,3.26,0,0,0,213.133,665.767Z" transform="translate(-25.7018 -20.6571)"/><circle class="cls-2" cx="238.1862" cy="504.1289" r="3.26"/><polyline class="cls-2" points="952.042 637.351 965.615 674.643 1002.908 661.07 989.338 623.778 952.042 637.351"/><polyline class="cls-2" points="952.163 679.539 938.59 642.247 901.299 655.82 914.872 693.112 952.163 679.539"/><polyline class="cls-2" points="944.374 697.608 907.082 711.181 920.655 748.472 957.947 734.899 944.374 697.608"/><polyline class="cls-2" points="745.088 732.729 745.088 772.414 784.773 772.414 784.773 732.729 745.088 732.729"/><polyline class="cls-2" points="767.423 606.332 767.423 566.647 727.738 566.647 727.738 606.332 767.423 606.332"/><polyline class="cls-2" points="887.847 660.716 850.555 674.289 864.128 711.581 901.42 698.008 887.847 660.716"/><polyline class="cls-2" points="837.104 679.185 799.812 692.758 813.385 730.05 850.677 716.477 837.104 679.185"/><polyline class="cls-2" points="1034.298 549.948 996.998 563.521 1010.578 600.813 1047.868 587.24 1034.298 549.948"/><polyline class="cls-2" points="889.732 545.099 903.305 582.39 940.597 568.817 927.024 531.526 889.732 545.099"/><polyline class="cls-2" points="713.423 566.647 673.738 566.647 673.738 606.332 713.423 606.332 713.423 566.647"/><polyline class="cls-2" points="1008.688 716.43 995.118 679.138 957.825 692.712 971.398 730.003 1008.688 716.43"/><polyline class="cls-2" points="907.203 753.368 893.63 716.077 856.338 729.65 869.912 766.941 907.203 753.368"/><polyline class="cls-2" points="782.462 526.676 796.035 563.968 833.327 550.395 819.754 513.103 782.462 526.676"/><polyline class="cls-2" points="991.218 508.16 1004.788 545.452 1042.088 531.879 1028.508 494.587 991.218 508.16"/><polyline class="cls-2" points="895.637 642.647 882.064 605.355 844.772 618.928 858.345 656.22 895.637 642.647"/><polyline class="cls-2" points="1040.078 605.309 1002.788 618.882 1016.358 656.174 1053.648 642.6 1040.078 605.309"/><polyline class="cls-2" points="1059.438 697.961 1045.858 660.669 1008.568 674.242 1022.138 711.534 1059.438 697.961"/><polyline class="cls-2" points="823.971 482.835 837.544 520.127 874.836 506.554 861.263 469.262 823.971 482.835"/><polyline class="cls-2" points="954.049 563.921 991.338 550.348 977.768 513.056 940.476 526.63 954.049 563.921"/><polyline class="cls-2" points="773.206 622.008 733.521 622.008 733.521 661.693 773.206 661.693 773.206 622.008"/><polyline class="cls-2" points="909.088 637.751 946.38 624.178 932.807 586.886 895.515 600.459 909.088 637.751"/><polyline class="cls-2" points="778.99 677.369 739.305 677.369 739.305 717.054 778.99 717.054 778.99 677.369"/><polyline class="cls-2" points="707.64 511.287 667.955 511.287 667.955 550.972 707.64 550.972 707.64 511.287"/><polyline class="cls-2" points="921.241 476.165 883.949 489.738 897.522 527.03 934.814 513.457 921.241 476.165"/><polyline class="cls-2" points="730.773 772.414 730.773 732.729 691.088 732.729 691.088 772.414 730.773 772.414"/><polyline class="cls-2" points="719.206 661.693 719.206 622.008 679.521 622.008 679.521 661.693 719.206 661.693"/><polyline class="cls-2" points="852.562 600.859 889.854 587.286 876.28 549.995 838.989 563.568 852.562 600.859"/><polyline class="cls-2" points="999.008 490.092 1036.298 476.518 1022.728 439.227 985.438 452.8 999.008 490.092"/><polyline class="cls-2" points="825.537 568.464 788.245 582.037 801.818 619.329 839.11 605.755 825.537 568.464"/><polyline class="cls-2" points="842.887 734.546 805.595 748.119 819.168 785.41 856.46 771.837 842.887 734.546"/><polyline class="cls-2" points="685.305 717.054 724.99 717.054 724.99 677.369 685.305 677.369 685.305 717.054"/><polyline class="cls-2" points="761.64 550.972 761.64 511.287 721.955 511.287 721.955 550.972 761.64 550.972"/><polyline class="cls-2" points="983.548 568.417 946.259 581.99 959.832 619.282 997.128 605.709 983.548 568.417"/><polyline class="cls-2" points="934.692 471.269 948.265 508.561 985.558 494.988 971.984 457.696 934.692 471.269"/><polyline class="cls-2" points="831.32 623.824 794.029 637.397 807.602 674.689 844.893 661.116 831.32 623.824"/><path class="cls-2" d="M696.579,807.6024a3.26,3.26,0,1,0-3.259-3.26A3.261,3.261,0,0,0,696.579,807.6024Z" transform="translate(-25.7018 -20.6571)"/><path class="cls-2" d="M1043.57,744.625a3.26,3.26,0,1,0-3.26-3.26A3.2612,3.2612,0,0,0,1043.57,744.625Z" transform="translate(-25.7018 -20.6571)"/><path class="cls-2" d="M1102.74,579.422a3.26,3.26,0,1,0-3.26-3.259A3.26,3.26,0,0,0,1102.74,579.422Z" transform="translate(-25.7018 -20.6571)"/><circle class="cls-2" cx="1018.7183" cy="414.5619" r="3.26"/><circle class="cls-2" cx="886.3402" cy="456.0899" r="3.26"/><circle class="cls-2" cx="865.6342" cy="776.1152" r="3.2599"/><path class="cls-2" d="M689.745,665.767a3.26,3.26,0,1,0-3.26-3.259A3.26,3.26,0,0,0,689.745,665.767Z" transform="translate(-25.7018 -20.6571)"/><path class="cls-2" d="M740.499,528.046a3.26,3.26,0,1,0-3.259-3.26A3.2612,3.2612,0,0,0,740.499,528.046Z" transform="translate(-25.7018 -20.6571)"/><polyline class="cls-2" points="778.933 171.729 792.506 134.437 829.798 148.01 816.225 185.302 778.933 171.729"/><polyline class="cls-2" points="779.055 129.541 765.482 166.833 728.19 153.26 741.763 115.968 779.055 129.541"/><polyline class="cls-2" points="771.265 111.472 733.973 97.899 747.546 60.607 784.838 74.18 771.265 111.472"/><polyline class="cls-2" points="571.979 76.35 571.979 36.665 611.664 36.665 611.664 76.35 571.979 76.35"/><polyline class="cls-2" points="594.314 202.747 594.314 242.432 554.629 242.432 554.629 202.747 594.314 202.747"/><polyline class="cls-2" points="714.738 148.364 677.447 134.791 691.02 97.499 728.311 111.072 714.738 148.364"/><polyline class="cls-2" points="663.995 129.895 626.703 116.322 640.276 79.03 677.568 92.603 663.995 129.895"/><polyline class="cls-2" points="861.185 259.132 823.893 245.559 837.467 208.267 874.758 221.84 861.185 259.132"/><polyline class="cls-2" points="716.623 263.981 730.197 226.689 767.488 240.262 753.915 277.554 716.623 263.981"/><polyline class="cls-2" points="540.314 242.432 500.629 242.432 500.629 202.747 540.314 202.747 540.314 242.432"/><polyline class="cls-2" points="835.581 92.649 822.008 129.941 784.717 116.368 798.29 79.076 835.581 92.649"/><polyline class="cls-2" points="734.095 55.711 720.521 93.003 683.23 79.43 696.803 42.138 734.095 55.711"/><polyline class="cls-2" points="609.353 282.404 622.926 245.112 660.218 258.685 646.645 295.977 609.353 282.404"/><polyline class="cls-2" points="818.11 300.919 831.683 263.628 868.975 277.201 855.402 314.492 818.11 300.919"/><polyline class="cls-2" points="722.528 166.433 708.955 203.724 671.663 190.151 685.236 152.86 722.528 166.433"/><polyline class="cls-2" points="866.968 203.771 829.677 190.198 843.25 152.906 880.542 166.479 866.968 203.771"/><polyline class="cls-2" points="886.325 111.119 872.752 148.41 835.46 134.837 849.033 97.546 886.325 111.119"/><polyline class="cls-2" points="650.862 326.244 664.435 288.953 701.727 302.526 688.154 339.817 650.862 326.244"/><polyline class="cls-2" points="780.94 245.158 818.232 258.732 804.659 296.023 767.367 282.45 780.94 245.158"/><polyline class="cls-2" points="600.098 187.072 560.413 187.072 560.413 147.387 600.098 147.387 600.098 187.072"/><polyline class="cls-2" points="735.98 171.329 773.271 184.902 759.698 222.193 722.407 208.62 735.98 171.329"/><polyline class="cls-2" points="605.881 131.711 566.196 131.711 566.196 92.026 605.881 92.026 605.881 131.711"/><polyline class="cls-2" points="534.531 297.793 494.846 297.793 494.846 258.108 534.531 258.108 534.531 297.793"/><polyline class="cls-2" points="748.132 332.915 710.84 319.342 724.413 282.05 761.705 295.623 748.132 332.915"/><polyline class="cls-2" points="557.664 36.665 557.664 76.35 517.979 76.35 517.979 36.665 557.664 36.665"/><polyline class="cls-2" points="546.098 147.387 546.098 187.072 506.413 187.072 506.413 147.387 546.098 147.387"/><polyline class="cls-2" points="679.453 208.22 716.745 221.793 703.172 259.085 665.88 245.512 679.453 208.22"/><polyline class="cls-2" points="825.9 318.988 863.192 332.561 849.619 369.853 812.327 356.28 825.9 318.988"/><polyline class="cls-2" points="652.428 240.616 615.137 227.043 628.71 189.751 666.001 203.324 652.428 240.616"/><polyline class="cls-2" points="669.778 74.534 632.486 60.961 646.059 23.669 683.351 37.242 669.778 74.534"/><polyline class="cls-2" points="512.196 92.026 551.881 92.026 551.881 131.711 512.196 131.711 512.196 92.026"/><polyline class="cls-2" points="588.531 258.108 588.531 297.793 548.846 297.793 548.846 258.108 588.531 258.108"/><polyline class="cls-2" points="810.442 240.663 773.15 227.089 786.723 189.798 824.015 203.371 810.442 240.663"/><polyline class="cls-2" points="761.584 337.811 775.157 300.519 812.448 314.092 798.875 351.384 761.584 337.811"/><polyline class="cls-2" points="658.212 185.255 620.92 171.682 634.493 134.39 671.785 147.964 658.212 185.255"/><path class="cls-2" d="M523.471,42.791a3.26,3.26,0,1,1-3.26,3.26A3.2619,3.2619,0,0,1,523.471,42.791Z" transform="translate(-25.7018 -20.6571)"/><path class="cls-2" d="M870.457,105.769a3.26,3.26,0,1,1-3.26,3.26A3.2619,3.2619,0,0,1,870.457,105.769Z" transform="translate(-25.7018 -20.6571)"/><path class="cls-2" d="M929.634,270.971a3.26,3.26,0,1,1-3.26,3.26A3.261,3.261,0,0,1,929.634,270.971Z" transform="translate(-25.7018 -20.6571)"/><path class="cls-2" d="M871.313,411.915a3.26,3.26,0,1,1-3.26,3.259A3.26,3.26,0,0,1,871.313,411.915Z" transform="translate(-25.7018 -20.6571)"/><path class="cls-2" d="M738.933,370.387a3.26,3.26,0,1,1-3.259,3.26A3.2612,3.2612,0,0,1,738.933,370.387Z" transform="translate(-25.7018 -20.6571)"/><path class="cls-2" d="M718.227,50.362a3.26,3.26,0,1,1-3.26,3.259A3.261,3.261,0,0,1,718.227,50.362Z" transform="translate(-25.7018 -20.6571)"/><circle class="cls-2" cx="490.9342" cy="167.2288" r="3.26"/><path class="cls-2" d="M567.391,322.348a3.26,3.26,0,1,1-3.26,3.259A3.261,3.261,0,0,1,567.391,322.348Z" transform="translate(-25.7018 -20.6571)"/><path class="cls-2" d="M78.3117,812.6974a3.26,3.26,0,1,1,3.9924,2.3051A3.2614,3.2614,0,0,1,78.3117,812.6974Z" transform="translate(-25.7018 -20.6571)"/><path class="cls-2" d="M116.79,703.86a3.26,3.26,0,1,1,3.993,2.305A3.2624,3.2624,0,0,1,116.79,703.86Z" transform="translate(-25.7018 -20.6571)"/><path class="cls-2" d="M115.426,478.912a3.26,3.26,0,1,1,3.992,2.305A3.26,3.26,0,0,1,115.426,478.912Z" transform="translate(-25.7018 -20.6571)"/><path class="cls-2" d="M49.3366,461.234a3.26,3.26,0,1,1,3.9924,2.306A3.2614,3.2614,0,0,1,49.3366,461.234Z" transform="translate(-25.7018 -20.6571)"/><path class="cls-2" d="M35.2173,622.618a3.26,3.26,0,1,1,3.9925,2.305A3.2606,3.2606,0,0,1,35.2173,622.618Z" transform="translate(-25.7018 -20.6571)"/><path class="cls-2" d="M1180.27,39.097a3.2611,3.2611,0,1,1-3.99-2.305A3.2617,3.2617,0,0,1,1180.27,39.097Z" transform="translate(-25.7018 -20.6571)"/><path class="cls-2" d="M1141.79,147.935a3.261,3.261,0,1,1-3.99-2.305A3.2539,3.2539,0,0,1,1141.79,147.935Z" transform="translate(-25.7018 -20.6571)"/><path class="cls-2" d="M1143.16,372.883a3.261,3.261,0,1,1-4-2.306A3.2672,3.2672,0,0,1,1143.16,372.883Z" transform="translate(-25.7018 -20.6571)"/><path class="cls-2" d="M1209.25,390.56a3.2611,3.2611,0,1,1-4-2.305A3.2677,3.2677,0,0,1,1209.25,390.56Z" transform="translate(-25.7018 -20.6571)"/><path class="cls-2" d="M1223.37,229.177a3.261,3.261,0,1,1-4-2.305A3.2672,3.2672,0,0,1,1223.37,229.177Z" transform="translate(-25.7018 -20.6571)"/></g></svg>