<?xml version="1.0" encoding="UTF-8" standalone="no"?>
<!DOCTYPE svg PUBLIC "-//W3C//DTD SVG 1.1//EN" "http://www.w3.org/Graphics/SVG/1.1/DTD/svg11.dtd">
<svg width="100%" height="100%" viewBox="0 0 1701 1134" version="1.1" xmlns="http://www.w3.org/2000/svg" xmlns:xlink="http://www.w3.org/1999/xlink" xml:space="preserve" xmlns:serif="http://www.serif.com/" style="fill-rule:evenodd;clip-rule:evenodd;stroke-linecap:round;stroke-linejoin:round;">
    <g id="カット2-R0G0B255-" serif:id="カット2(R0G0B255)">
        <g transform="matrix(1,0,0,1,-31.8387,-84.9838)">
            <path d="M79.083,159.524C73.864,159.524 69.634,155.293 69.634,150.075L69.634,141.677C69.634,131.24 78.095,122.779 88.532,122.779L291.748,122.779C291.748,122.779 294.228,122.76 297.373,123.905L639.338,248.37C649.145,251.94 650.632,259.899 650.632,272.592L650.632,476.211C650.632,478.416 650.247,480.603 649.493,482.675C639.205,510.941 603.713,608.454 589.531,647.418C586.18,656.626 576.346,661.744 566.882,659.208C479.975,635.922 83.95,529.807 83.95,529.807C82.685,529.448 81.436,529.037 80.256,528.463L80.256,528.463C78.388,527.553 76.666,526.333 75.169,524.836C71.625,521.292 69.634,516.485 69.634,511.474L69.634,225.665C69.634,223.159 70.63,220.756 72.402,218.984C74.174,217.212 76.577,216.217 79.083,216.217C99.36,216.217 145.225,216.217 145.225,216.217L145.225,159.524L79.083,159.524Z" style="fill:none;fill-rule:nonzero;stroke:rgb(0,0,255);stroke-width:1.89px;"/>
        </g>
        <g transform="matrix(1,0,0,1,603.643,-84.9838)">
            <path d="M291.748,122.779C291.748,122.779 294.228,122.76 297.373,123.905C297.373,123.905 567.143,222.142 619.874,241.344C624.777,243.129 627.304,248.551 625.519,253.454C620.974,265.944 613.239,287.195 613.239,287.195L644.422,298.545C648.159,299.905 650.645,303.46 650.639,307.438C650.64,316.082 650.639,324.298 650.632,332.104L650.632,476.211C650.632,478.416 650.247,480.603 649.493,482.675L618.454,567.952L618.451,567.96C607.874,597.021 600.458,617.397 599.253,620.706L599.253,620.706L589.531,647.418C586.18,656.626 576.346,661.744 566.882,659.208C479.975,635.922 83.95,529.807 83.95,529.807C82.685,529.448 81.436,529.037 80.256,528.463L80.256,528.463C78.388,527.553 76.666,526.333 75.169,524.836C71.625,521.292 69.634,516.485 69.634,511.474L69.634,141.677C69.634,131.24 78.095,122.779 88.532,122.779L291.748,122.779Z" style="fill:rgb(0,0,255);fill-opacity:0;fill-rule:nonzero;stroke:rgb(0,0,255);stroke-width:1.89px;"/>
        </g>
        <g transform="matrix(1,0,0,-1,198.973,1218.84)">
            <path d="M79.083,159.524C73.864,159.524 69.634,155.293 69.634,150.075L69.634,141.677C69.634,131.24 78.095,122.779 88.532,122.779L291.748,122.779C291.748,122.779 294.228,122.76 297.373,123.905L639.338,248.37C649.145,251.94 650.632,259.899 650.632,272.592L650.632,476.211C650.632,478.416 650.247,480.603 649.493,482.675C639.205,510.941 603.713,608.454 589.531,647.418C586.18,656.626 576.346,661.744 566.882,659.208C479.975,635.922 83.95,529.807 83.95,529.807C82.685,529.448 81.436,529.037 80.256,528.463L80.256,528.463C78.388,527.553 76.666,526.333 75.169,524.836C71.625,521.292 69.634,516.485 69.634,511.474L69.634,225.665C69.634,223.159 70.63,220.756 72.402,218.984C74.174,217.212 76.577,216.217 79.083,216.217C99.36,216.217 145.225,216.217 145.225,216.217L145.225,159.524L79.083,159.524Z" style="fill:none;fill-rule:nonzero;stroke:rgb(0,0,255);stroke-width:1.89px;"/>
        </g>
        <g transform="matrix(1,0,0,-1,834.454,1218.84)">
            <path d="M291.748,122.779C291.748,122.779 294.228,122.76 297.373,123.905C297.373,123.905 567.143,222.142 619.874,241.344C624.777,243.129 627.304,248.551 625.519,253.454C620.974,265.944 613.239,287.195 613.239,287.195L644.422,298.545C648.159,299.905 650.645,303.46 650.639,307.438C650.64,316.082 650.639,324.298 650.632,332.104L650.632,476.211C650.632,478.416 650.247,480.603 649.493,482.675L618.454,567.952L618.451,567.96C607.874,597.021 600.458,617.397 599.253,620.706L599.253,620.706L589.531,647.418C586.18,656.626 576.346,661.744 566.882,659.208C479.975,635.922 83.95,529.807 83.95,529.807C82.685,529.448 81.436,529.037 80.256,528.463L80.256,528.463C78.388,527.553 76.666,526.333 75.169,524.836C71.625,521.292 69.634,516.485 69.634,511.474L69.634,141.677C69.634,131.24 78.095,122.779 88.532,122.779L291.748,122.779Z" style="fill:rgb(0,0,255);fill-opacity:0;fill-rule:nonzero;stroke:rgb(0,0,255);stroke-width:1.89px;"/>
        </g>
        <g transform="matrix(0.258819,0.965926,-0.965926,0.258819,1686.48,-75.7371)">
            <path d="M83.641,214.719C75.379,212.505 69.634,205.018 69.634,196.465C69.634,176.151 69.634,141.677 69.634,141.677C69.634,131.24 78.095,122.779 88.532,122.779L291.748,122.779C291.748,122.779 294.228,122.76 297.373,123.905L639.338,248.37C649.145,251.94 650.632,259.899 650.632,272.592C650.632,298.949 650.654,321.89 650.62,342.062C650.604,347.929 647.865,353.455 643.207,357.02C638.548,360.585 632.498,361.785 626.831,360.266C529.27,334.125 160.313,235.263 83.641,214.719Z" style="fill:none;fill-rule:nonzero;stroke:rgb(0,0,255);stroke-width:1.89px;"/>
        </g>
        <g transform="matrix(-0.258819,-0.965926,0.965926,-0.258819,-8.37214,1211.46)">
            <path d="M83.641,214.719C75.379,212.505 69.634,205.018 69.634,196.465C69.634,176.151 69.634,141.677 69.634,141.677C69.634,131.24 78.095,122.779 88.532,122.779L291.748,122.779C291.748,122.779 294.228,122.76 297.373,123.905L639.338,248.37C649.145,251.94 650.632,259.899 650.632,272.592C650.632,298.949 650.654,321.89 650.62,342.062C650.604,347.928 647.866,353.455 643.207,357.02C638.548,360.585 632.498,361.785 626.831,360.266C529.27,334.125 160.313,235.263 83.641,214.719Z" style="fill:none;fill-rule:nonzero;stroke:rgb(0,0,255);stroke-width:1.89px;"/>
        </g>
    </g>
    <g id="カット1-R255G0B0-" serif:id="カット1(R255G0B0)">
        <g transform="matrix(0.996851,0,0,0.996851,-45.222,-69.9017)">
            <circle cx="108.042" cy="131.718" r="4.36" style="fill:none;stroke:rgb(255,0,0);stroke-width:1.9px;stroke-miterlimit:1.5;"/>
        </g>
        <g transform="matrix(0.996851,0,0,0.996851,81.6718,17.2139)">
            <circle cx="108.042" cy="131.718" r="4.36" style="fill:none;stroke:rgb(255,0,0);stroke-width:1.9px;stroke-miterlimit:1.5;"/>
        </g>
        <g transform="matrix(0.996851,0,0,0.996851,371.853,93.0841)">
            <circle cx="108.042" cy="131.718" r="4.36" style="fill:none;stroke:rgb(255,0,0);stroke-width:1.9px;stroke-miterlimit:1.5;"/>
        </g>
        <g transform="matrix(0.996851,0,0,0.996851,417.427,14.0683)">
            <circle cx="108.042" cy="131.718" r="4.36" style="fill:none;stroke:rgb(255,0,0);stroke-width:1.9px;stroke-miterlimit:1.5;"/>
        </g>
        <g transform="matrix(0.996851,0,0,0.996851,496.329,234.338)">
            <circle cx="108.042" cy="131.718" r="4.36" style="fill:none;stroke:rgb(255,0,0);stroke-width:1.9px;stroke-miterlimit:1.5;"/>
        </g>
        <g transform="matrix(0.996851,0,0,0.996851,418.567,422.263)">
            <circle cx="108.042" cy="131.718" r="4.36" style="fill:none;stroke:rgb(255,0,0);stroke-width:1.9px;stroke-miterlimit:1.5;"/>
        </g>
        <g transform="matrix(0.996851,0,0,0.996851,242.062,366.893)">
            <circle cx="108.042" cy="131.718" r="4.36" style="fill:none;stroke:rgb(255,0,0);stroke-width:1.9px;stroke-miterlimit:1.5;"/>
        </g>
        <g transform="matrix(0.996851,0,0,0.996851,214.453,-59.8081)">
            <circle cx="108.042" cy="131.718" r="4.36" style="fill:none;stroke:rgb(255,0,0);stroke-width:1.9px;stroke-miterlimit:1.5;"/>
        </g>
        <g transform="matrix(0.996851,0,0,0.996851,-54.3353,119.212)">
            <circle cx="108.042" cy="131.718" r="4.36" style="fill:none;stroke:rgb(255,0,0);stroke-width:1.9px;stroke-miterlimit:1.5;"/>
        </g>
        <g transform="matrix(0.996851,0,0,0.996851,13.3379,302.84)">
            <circle cx="108.042" cy="131.718" r="4.36" style="fill:none;stroke:rgb(255,0,0);stroke-width:1.9px;stroke-miterlimit:1.5;"/>
        </g>
        <g transform="matrix(0.996851,0,-2.77556e-17,-0.996851,185.59,1203.76)">
            <circle cx="108.042" cy="131.718" r="4.36" style="fill:none;stroke:rgb(255,0,0);stroke-width:1.9px;stroke-miterlimit:1.5;"/>
        </g>
        <g transform="matrix(0.996851,0,-2.77556e-17,-0.996851,312.483,1116.64)">
            <circle cx="108.042" cy="131.718" r="4.36" style="fill:none;stroke:rgb(255,0,0);stroke-width:1.9px;stroke-miterlimit:1.5;"/>
        </g>
        <g transform="matrix(0.996851,0,-2.77556e-17,-0.996851,602.664,1040.77)">
            <circle cx="108.042" cy="131.718" r="4.36" style="fill:none;stroke:rgb(255,0,0);stroke-width:1.9px;stroke-miterlimit:1.5;"/>
        </g>
        <g transform="matrix(0.996851,0,-2.77556e-17,-0.996851,648.238,1119.79)">
            <circle cx="108.042" cy="131.718" r="4.36" style="fill:none;stroke:rgb(255,0,0);stroke-width:1.9px;stroke-miterlimit:1.5;"/>
        </g>
        <g transform="matrix(0.996851,0,-2.77556e-17,-0.996851,727.14,899.52)">
            <circle cx="108.042" cy="131.718" r="4.36" style="fill:none;stroke:rgb(255,0,0);stroke-width:1.9px;stroke-miterlimit:1.5;"/>
        </g>
        <g transform="matrix(0.996851,0,-2.77556e-17,-0.996851,649.379,711.596)">
            <circle cx="108.042" cy="131.718" r="4.36" style="fill:none;stroke:rgb(255,0,0);stroke-width:1.9px;stroke-miterlimit:1.5;"/>
        </g>
        <g transform="matrix(0.996851,0,-2.77556e-17,-0.996851,472.873,766.966)">
            <circle cx="108.042" cy="131.718" r="4.36" style="fill:none;stroke:rgb(255,0,0);stroke-width:1.9px;stroke-miterlimit:1.5;"/>
        </g>
        <g transform="matrix(0.996851,0,-2.77556e-17,-0.996851,445.265,1193.67)">
            <circle cx="108.042" cy="131.718" r="4.36" style="fill:none;stroke:rgb(255,0,0);stroke-width:1.9px;stroke-miterlimit:1.5;"/>
        </g>
        <g transform="matrix(0.996851,0,-2.77556e-17,-0.996851,176.476,1014.65)">
            <circle cx="108.042" cy="131.718" r="4.36" style="fill:none;stroke:rgb(255,0,0);stroke-width:1.9px;stroke-miterlimit:1.5;"/>
        </g>
        <g transform="matrix(0.996851,0,-2.77556e-17,-0.996851,244.15,831.018)">
            <circle cx="108.042" cy="131.718" r="4.36" style="fill:none;stroke:rgb(255,0,0);stroke-width:1.9px;stroke-miterlimit:1.5;"/>
        </g>
        <g transform="matrix(1.33333,0,0,-1.33333,942.113,1071.03)">
            <path d="M271.159,145.268L284.732,107.977L322.024,121.55L308.451,158.841L271.159,145.268" style="fill:none;fill-rule:nonzero;stroke:rgb(255,0,0);stroke-width:0.57px;"/>
        </g>
        <g transform="matrix(1.33333,0,0,-1.33333,942.113,1071.03)">
            <path d="M271.28,103.081L257.707,140.372L220.416,126.799L233.989,89.507L271.28,103.081" style="fill:none;fill-rule:nonzero;stroke:rgb(255,0,0);stroke-width:0.57px;"/>
        </g>
        <g transform="matrix(1.33333,0,0,-1.33333,942.113,1071.03)">
            <path d="M263.49,85.012L226.199,71.439L239.772,34.147L277.064,47.72L263.49,85.012" style="fill:none;fill-rule:nonzero;stroke:rgb(255,0,0);stroke-width:0.57px;"/>
        </g>
        <g transform="matrix(1.33333,0,0,-1.33333,942.113,1071.03)">
            <path d="M64.205,49.89L64.205,10.205L103.89,10.205L103.89,49.89L64.205,49.89" style="fill:none;fill-rule:nonzero;stroke:rgb(255,0,0);stroke-width:0.57px;"/>
        </g>
        <g transform="matrix(1.33333,0,0,-1.33333,942.113,1071.03)">
            <path d="M86.54,176.287L86.54,215.972L46.855,215.972L46.855,176.287L86.54,176.287" style="fill:none;fill-rule:nonzero;stroke:rgb(255,0,0);stroke-width:0.57px;"/>
        </g>
        <g transform="matrix(1.33333,0,0,-1.33333,942.113,1071.03)">
            <path d="M206.964,121.903L169.672,108.33L183.245,71.038L220.537,84.611L206.964,121.903" style="fill:none;fill-rule:nonzero;stroke:rgb(255,0,0);stroke-width:0.57px;"/>
        </g>
        <g transform="matrix(1.33333,0,0,-1.33333,942.113,1071.03)">
            <path d="M156.22,103.434L118.929,89.861L132.502,52.569L169.794,66.142L156.22,103.434" style="fill:none;fill-rule:nonzero;stroke:rgb(255,0,0);stroke-width:0.57px;"/>
        </g>
        <g transform="matrix(1.33333,0,0,-1.33333,942.113,1071.03)">
            <path d="M353.411,232.671L316.119,219.098L329.692,181.806L366.984,195.379L353.411,232.671" style="fill:none;fill-rule:nonzero;stroke:rgb(255,0,0);stroke-width:0.57px;"/>
        </g>
        <g transform="matrix(1.33333,0,0,-1.33333,942.113,1071.03)">
            <path d="M208.849,237.521L222.422,200.229L259.714,213.802L246.141,251.094L208.849,237.521" style="fill:none;fill-rule:nonzero;stroke:rgb(255,0,0);stroke-width:0.57px;"/>
        </g>
        <g transform="matrix(1.33333,0,0,-1.33333,942.113,1071.03)">
            <path d="M32.54,215.972L-7.145,215.972L-7.145,176.287L32.54,176.287L32.54,215.972" style="fill:none;fill-rule:nonzero;stroke:rgb(255,0,0);stroke-width:0.57px;"/>
        </g>
        <g transform="matrix(1.33333,0,0,-1.33333,942.113,1071.03)">
            <path d="M327.807,66.189L314.234,103.481L276.942,89.908L290.515,52.616L327.807,66.189" style="fill:none;fill-rule:nonzero;stroke:rgb(255,0,0);stroke-width:0.57px;"/>
        </g>
        <g transform="matrix(1.33333,0,0,-1.33333,942.113,1071.03)">
            <path d="M226.32,29.251L212.747,66.543L175.455,52.969L189.028,15.678L226.32,29.251" style="fill:none;fill-rule:nonzero;stroke:rgb(255,0,0);stroke-width:0.57px;"/>
        </g>
        <g transform="matrix(1.33333,0,0,-1.33333,942.113,1071.03)">
            <path d="M101.579,255.943L115.152,218.651L152.444,232.224L138.871,269.516L101.579,255.943" style="fill:none;fill-rule:nonzero;stroke:rgb(255,0,0);stroke-width:0.57px;"/>
        </g>
        <g transform="matrix(1.33333,0,0,-1.33333,942.113,1071.03)">
            <path d="M310.336,274.459L323.909,237.167L361.201,250.74L347.628,288.032L310.336,274.459" style="fill:none;fill-rule:nonzero;stroke:rgb(255,0,0);stroke-width:0.57px;"/>
        </g>
        <g transform="matrix(1.33333,0,0,-1.33333,942.113,1071.03)">
            <path d="M214.754,139.972L201.181,177.264L163.889,163.691L177.462,126.399L214.754,139.972" style="fill:none;fill-rule:nonzero;stroke:rgb(255,0,0);stroke-width:0.57px;"/>
        </g>
        <g transform="matrix(1.33333,0,0,-1.33333,942.113,1071.03)">
            <path d="M359.194,177.31L321.902,163.737L335.475,126.446L372.767,140.019L359.194,177.31" style="fill:none;fill-rule:nonzero;stroke:rgb(255,0,0);stroke-width:0.57px;"/>
        </g>
        <g transform="matrix(1.33333,0,0,-1.33333,942.113,1071.03)">
            <path d="M378.55,84.658L364.977,121.95L327.686,108.377L341.259,71.085L378.55,84.658" style="fill:none;fill-rule:nonzero;stroke:rgb(255,0,0);stroke-width:0.57px;"/>
        </g>
        <g transform="matrix(1.33333,0,0,-1.33333,942.113,1071.03)">
            <path d="M143.088,299.784L156.661,262.492L193.953,276.065L180.38,313.357L143.088,299.784" style="fill:none;fill-rule:nonzero;stroke:rgb(255,0,0);stroke-width:0.57px;"/>
        </g>
        <g transform="matrix(1.33333,0,0,-1.33333,942.113,1071.03)">
            <path d="M273.166,218.698L310.457,232.271L296.884,269.563L259.592,255.99L273.166,218.698" style="fill:none;fill-rule:nonzero;stroke:rgb(255,0,0);stroke-width:0.57px;"/>
        </g>
        <g transform="matrix(1.33333,0,0,-1.33333,942.113,1071.03)">
            <path d="M92.323,160.611L52.638,160.611L52.638,120.926L92.323,120.926L92.323,160.611" style="fill:none;fill-rule:nonzero;stroke:rgb(255,0,0);stroke-width:0.57px;"/>
        </g>
        <g transform="matrix(1.33333,0,0,-1.33333,942.113,1071.03)">
            <path d="M228.205,144.868L265.497,158.441L251.924,195.733L214.632,182.16L228.205,144.868" style="fill:none;fill-rule:nonzero;stroke:rgb(255,0,0);stroke-width:0.57px;"/>
        </g>
        <g transform="matrix(1.33333,0,0,-1.33333,942.113,1071.03)">
            <path d="M98.107,105.25L58.421,105.25L58.421,65.565L98.107,65.565L98.107,105.25" style="fill:none;fill-rule:nonzero;stroke:rgb(255,0,0);stroke-width:0.57px;"/>
        </g>
        <g transform="matrix(1.33333,0,0,-1.33333,942.113,1071.03)">
            <path d="M26.757,271.332L-12.928,271.332L-12.928,231.647L26.757,231.647L26.757,271.332" style="fill:none;fill-rule:nonzero;stroke:rgb(255,0,0);stroke-width:0.57px;"/>
        </g>
        <g transform="matrix(1.33333,0,0,-1.33333,942.113,1071.03)">
            <path d="M240.358,306.454L203.066,292.881L216.639,255.59L253.931,269.163L240.358,306.454" style="fill:none;fill-rule:nonzero;stroke:rgb(255,0,0);stroke-width:0.57px;"/>
        </g>
        <g transform="matrix(1.33333,0,0,-1.33333,942.113,1071.03)">
            <path d="M49.89,10.205L49.89,49.89L10.205,49.89L10.205,10.205L49.89,10.205" style="fill:none;fill-rule:nonzero;stroke:rgb(255,0,0);stroke-width:0.57px;"/>
        </g>
        <g transform="matrix(1.33333,0,0,-1.33333,942.113,1071.03)">
            <path d="M38.323,120.926L38.323,160.611L-1.362,160.611L-1.362,120.926L38.323,120.926" style="fill:none;fill-rule:nonzero;stroke:rgb(255,0,0);stroke-width:0.57px;"/>
        </g>
        <g transform="matrix(1.33333,0,0,-1.33333,942.113,1071.03)">
            <path d="M171.679,181.76L208.97,195.333L195.397,232.625L158.106,219.051L171.679,181.76" style="fill:none;fill-rule:nonzero;stroke:rgb(255,0,0);stroke-width:0.57px;"/>
        </g>
        <g transform="matrix(1.33333,0,0,-1.33333,942.113,1071.03)">
            <path d="M318.126,292.528L355.417,306.101L341.844,343.393L304.553,329.819L318.126,292.528" style="fill:none;fill-rule:nonzero;stroke:rgb(255,0,0);stroke-width:0.57px;"/>
        </g>
        <g transform="matrix(1.33333,0,0,-1.33333,942.113,1071.03)">
            <path d="M144.654,214.155L107.362,200.582L120.935,163.291L158.227,176.864L144.654,214.155" style="fill:none;fill-rule:nonzero;stroke:rgb(255,0,0);stroke-width:0.57px;"/>
        </g>
        <g transform="matrix(1.33333,0,0,-1.33333,942.113,1071.03)">
            <path d="M162.004,48.073L124.712,34.5L138.285,-2.791L175.577,10.782L162.004,48.073" style="fill:none;fill-rule:nonzero;stroke:rgb(255,0,0);stroke-width:0.57px;"/>
        </g>
        <g transform="matrix(1.33333,0,0,-1.33333,942.113,1071.03)">
            <path d="M4.421,65.565L44.107,65.565L44.107,105.25L4.421,105.25L4.421,65.565" style="fill:none;fill-rule:nonzero;stroke:rgb(255,0,0);stroke-width:0.57px;"/>
        </g>
        <g transform="matrix(1.33333,0,0,-1.33333,942.113,1071.03)">
            <path d="M80.757,231.647L80.757,271.332L41.072,271.332L41.072,231.647L80.757,231.647" style="fill:none;fill-rule:nonzero;stroke:rgb(255,0,0);stroke-width:0.57px;"/>
        </g>
        <g transform="matrix(1.33333,0,0,-1.33333,942.113,1071.03)">
            <path d="M302.667,214.202L265.376,200.629L278.949,163.337L316.24,176.91L302.667,214.202" style="fill:none;fill-rule:nonzero;stroke:rgb(255,0,0);stroke-width:0.57px;"/>
        </g>
        <g transform="matrix(1.33333,0,0,-1.33333,942.113,1071.03)">
            <path d="M253.809,311.35L267.382,274.059L304.674,287.632L291.101,324.923L253.809,311.35" style="fill:none;fill-rule:nonzero;stroke:rgb(255,0,0);stroke-width:0.57px;"/>
        </g>
        <g transform="matrix(1.33333,0,0,-1.33333,942.113,1071.03)">
            <path d="M150.437,158.795L113.145,145.222L126.719,107.93L164.01,121.503L150.437,158.795" style="fill:none;fill-rule:nonzero;stroke:rgb(255,0,0);stroke-width:0.57px;"/>
        </g>
        <g transform="matrix(0.996851,0,-2.77556e-17,-0.996851,821.071,1203.76)">
            <circle cx="108.042" cy="131.718" r="4.36" style="fill:none;stroke:rgb(255,0,0);stroke-width:1.9px;stroke-miterlimit:1.5;"/>
        </g>
        <g transform="matrix(0.996851,0,-2.77556e-17,-0.996851,1283.72,1119.79)">
            <circle cx="108.042" cy="131.718" r="4.36" style="fill:none;stroke:rgb(255,0,0);stroke-width:1.9px;stroke-miterlimit:1.5;"/>
        </g>
        <g transform="matrix(0.996851,0,-2.77556e-17,-0.996851,1362.62,899.52)">
            <circle cx="108.042" cy="131.718" r="4.36" style="fill:none;stroke:rgb(255,0,0);stroke-width:1.9px;stroke-miterlimit:1.5;"/>
        </g>
        <g transform="matrix(0.996851,0,-2.77556e-17,-0.996851,1284.86,711.596)">
            <circle cx="108.042" cy="131.718" r="4.36" style="fill:none;stroke:rgb(255,0,0);stroke-width:1.9px;stroke-miterlimit:1.5;"/>
        </g>
        <g transform="matrix(0.996851,0,-2.77556e-17,-0.996851,1108.35,766.966)">
            <circle cx="108.042" cy="131.718" r="4.36" style="fill:none;stroke:rgb(255,0,0);stroke-width:1.9px;stroke-miterlimit:1.5;"/>
        </g>
        <g transform="matrix(0.996851,0,-2.77556e-17,-0.996851,1080.75,1193.67)">
            <circle cx="108.042" cy="131.718" r="4.36" style="fill:none;stroke:rgb(255,0,0);stroke-width:1.9px;stroke-miterlimit:1.5;"/>
        </g>
        <g transform="matrix(0.996851,0,-2.77556e-17,-0.996851,811.958,1014.65)">
            <circle cx="108.042" cy="131.718" r="4.36" style="fill:none;stroke:rgb(255,0,0);stroke-width:1.9px;stroke-miterlimit:1.5;"/>
        </g>
        <g transform="matrix(0.996851,0,-2.77556e-17,-0.996851,879.631,831.018)">
            <circle cx="108.042" cy="131.718" r="4.36" style="fill:none;stroke:rgb(255,0,0);stroke-width:1.9px;stroke-miterlimit:1.5;"/>
        </g>
        <g transform="matrix(1.33333,0,0,1.33333,711.302,62.8233)">
            <path d="M271.159,145.268L284.732,107.977L322.024,121.55L308.451,158.841L271.159,145.268" style="fill:none;fill-rule:nonzero;stroke:rgb(255,0,0);stroke-width:0.57px;"/>
        </g>
        <g transform="matrix(1.33333,0,0,1.33333,711.302,62.8233)">
            <path d="M271.28,103.081L257.707,140.372L220.416,126.799L233.989,89.507L271.28,103.081" style="fill:none;fill-rule:nonzero;stroke:rgb(255,0,0);stroke-width:0.57px;"/>
        </g>
        <g transform="matrix(1.33333,0,0,1.33333,711.302,62.8233)">
            <path d="M263.49,85.012L226.199,71.439L239.772,34.147L277.064,47.72L263.49,85.012" style="fill:none;fill-rule:nonzero;stroke:rgb(255,0,0);stroke-width:0.57px;"/>
        </g>
        <g transform="matrix(1.33333,0,0,1.33333,711.302,62.8233)">
            <path d="M64.205,49.89L64.205,10.205L103.89,10.205L103.89,49.89L64.205,49.89" style="fill:none;fill-rule:nonzero;stroke:rgb(255,0,0);stroke-width:0.57px;"/>
        </g>
        <g transform="matrix(1.33333,0,0,1.33333,711.302,62.8233)">
            <path d="M86.54,176.287L86.54,215.972L46.855,215.972L46.855,176.287L86.54,176.287" style="fill:none;fill-rule:nonzero;stroke:rgb(255,0,0);stroke-width:0.57px;"/>
        </g>
        <g transform="matrix(1.33333,0,0,1.33333,711.302,62.8233)">
            <path d="M206.964,121.903L169.672,108.33L183.245,71.038L220.537,84.611L206.964,121.903" style="fill:none;fill-rule:nonzero;stroke:rgb(255,0,0);stroke-width:0.57px;"/>
        </g>
        <g transform="matrix(1.33333,0,0,1.33333,711.302,62.8233)">
            <path d="M156.22,103.434L118.929,89.861L132.502,52.569L169.794,66.142L156.22,103.434" style="fill:none;fill-rule:nonzero;stroke:rgb(255,0,0);stroke-width:0.57px;"/>
        </g>
        <g transform="matrix(1.33333,0,0,1.33333,711.302,62.8233)">
            <path d="M353.411,232.671L316.119,219.098L329.692,181.806L366.984,195.379L353.411,232.671" style="fill:none;fill-rule:nonzero;stroke:rgb(255,0,0);stroke-width:0.57px;"/>
        </g>
        <g transform="matrix(1.33333,0,0,1.33333,711.302,62.8233)">
            <path d="M208.849,237.521L222.422,200.229L259.714,213.802L246.141,251.094L208.849,237.521" style="fill:none;fill-rule:nonzero;stroke:rgb(255,0,0);stroke-width:0.57px;"/>
        </g>
        <g transform="matrix(1.33333,0,0,1.33333,711.302,62.8233)">
            <path d="M32.54,215.972L-7.145,215.972L-7.145,176.287L32.54,176.287L32.54,215.972" style="fill:none;fill-rule:nonzero;stroke:rgb(255,0,0);stroke-width:0.57px;"/>
        </g>
        <g transform="matrix(1.33333,0,0,1.33333,711.302,62.8233)">
            <path d="M327.807,66.189L314.234,103.481L276.942,89.908L290.515,52.616L327.807,66.189" style="fill:none;fill-rule:nonzero;stroke:rgb(255,0,0);stroke-width:0.57px;"/>
        </g>
        <g transform="matrix(1.33333,0,0,1.33333,711.302,62.8233)">
            <path d="M226.32,29.251L212.747,66.543L175.455,52.969L189.028,15.678L226.32,29.251" style="fill:none;fill-rule:nonzero;stroke:rgb(255,0,0);stroke-width:0.57px;"/>
        </g>
        <g transform="matrix(1.33333,0,0,1.33333,711.302,62.8233)">
            <path d="M101.579,255.943L115.152,218.651L152.444,232.224L138.871,269.516L101.579,255.943" style="fill:none;fill-rule:nonzero;stroke:rgb(255,0,0);stroke-width:0.57px;"/>
        </g>
        <g transform="matrix(1.33333,0,0,1.33333,711.302,62.8233)">
            <path d="M310.336,274.459L323.909,237.167L361.201,250.74L347.628,288.032L310.336,274.459" style="fill:none;fill-rule:nonzero;stroke:rgb(255,0,0);stroke-width:0.57px;"/>
        </g>
        <g transform="matrix(1.33333,0,0,1.33333,711.302,62.8233)">
            <path d="M214.754,139.972L201.181,177.264L163.889,163.691L177.462,126.399L214.754,139.972" style="fill:none;fill-rule:nonzero;stroke:rgb(255,0,0);stroke-width:0.57px;"/>
        </g>
        <g transform="matrix(1.33333,0,0,1.33333,711.302,62.8233)">
            <path d="M359.194,177.31L321.902,163.737L335.475,126.446L372.767,140.019L359.194,177.31" style="fill:none;fill-rule:nonzero;stroke:rgb(255,0,0);stroke-width:0.57px;"/>
        </g>
        <g transform="matrix(1.33333,0,0,1.33333,711.302,62.8233)">
            <path d="M378.55,84.658L364.977,121.95L327.686,108.377L341.259,71.085L378.55,84.658" style="fill:none;fill-rule:nonzero;stroke:rgb(255,0,0);stroke-width:0.57px;"/>
        </g>
        <g transform="matrix(1.33333,0,0,1.33333,711.302,62.8233)">
            <path d="M143.088,299.784L156.661,262.492L193.953,276.065L180.38,313.357L143.088,299.784" style="fill:none;fill-rule:nonzero;stroke:rgb(255,0,0);stroke-width:0.57px;"/>
        </g>
        <g transform="matrix(1.33333,0,0,1.33333,711.302,62.8233)">
            <path d="M273.166,218.698L310.457,232.271L296.884,269.563L259.592,255.99L273.166,218.698" style="fill:none;fill-rule:nonzero;stroke:rgb(255,0,0);stroke-width:0.57px;"/>
        </g>
        <g transform="matrix(1.33333,0,0,1.33333,711.302,62.8233)">
            <path d="M92.323,160.611L52.638,160.611L52.638,120.926L92.323,120.926L92.323,160.611" style="fill:none;fill-rule:nonzero;stroke:rgb(255,0,0);stroke-width:0.57px;"/>
        </g>
        <g transform="matrix(1.33333,0,0,1.33333,711.302,62.8233)">
            <path d="M228.205,144.868L265.497,158.441L251.924,195.733L214.632,182.16L228.205,144.868" style="fill:none;fill-rule:nonzero;stroke:rgb(255,0,0);stroke-width:0.57px;"/>
        </g>
        <g transform="matrix(1.33333,0,0,1.33333,711.302,62.8233)">
            <path d="M98.107,105.25L58.421,105.25L58.421,65.565L98.107,65.565L98.107,105.25" style="fill:none;fill-rule:nonzero;stroke:rgb(255,0,0);stroke-width:0.57px;"/>
        </g>
        <g transform="matrix(1.33333,0,0,1.33333,711.302,62.8233)">
            <path d="M26.757,271.332L-12.928,271.332L-12.928,231.647L26.757,231.647L26.757,271.332" style="fill:none;fill-rule:nonzero;stroke:rgb(255,0,0);stroke-width:0.57px;"/>
        </g>
        <g transform="matrix(1.33333,0,0,1.33333,711.302,62.8233)">
            <path d="M240.358,306.454L203.066,292.881L216.639,255.59L253.931,269.163L240.358,306.454" style="fill:none;fill-rule:nonzero;stroke:rgb(255,0,0);stroke-width:0.57px;"/>
        </g>
        <g transform="matrix(1.33333,0,0,1.33333,711.302,62.8233)">
            <path d="M49.89,10.205L49.89,49.89L10.205,49.89L10.205,10.205L49.89,10.205" style="fill:none;fill-rule:nonzero;stroke:rgb(255,0,0);stroke-width:0.57px;"/>
        </g>
        <g transform="matrix(1.33333,0,0,1.33333,711.302,62.8233)">
            <path d="M38.323,120.926L38.323,160.611L-1.362,160.611L-1.362,120.926L38.323,120.926" style="fill:none;fill-rule:nonzero;stroke:rgb(255,0,0);stroke-width:0.57px;"/>
        </g>
        <g transform="matrix(1.33333,0,0,1.33333,711.302,62.8233)">
            <path d="M171.679,181.76L208.97,195.333L195.397,232.625L158.106,219.051L171.679,181.76" style="fill:none;fill-rule:nonzero;stroke:rgb(255,0,0);stroke-width:0.57px;"/>
        </g>
        <g transform="matrix(1.33333,0,0,1.33333,711.302,62.8233)">
            <path d="M318.126,292.528L355.417,306.101L341.844,343.393L304.553,329.819L318.126,292.528" style="fill:none;fill-rule:nonzero;stroke:rgb(255,0,0);stroke-width:0.57px;"/>
        </g>
        <g transform="matrix(1.33333,0,0,1.33333,711.302,62.8233)">
            <path d="M144.654,214.155L107.362,200.582L120.935,163.291L158.227,176.864L144.654,214.155" style="fill:none;fill-rule:nonzero;stroke:rgb(255,0,0);stroke-width:0.57px;"/>
        </g>
        <g transform="matrix(1.33333,0,0,1.33333,711.302,62.8233)">
            <path d="M162.004,48.073L124.712,34.5L138.285,-2.791L175.577,10.782L162.004,48.073" style="fill:none;fill-rule:nonzero;stroke:rgb(255,0,0);stroke-width:0.57px;"/>
        </g>
        <g transform="matrix(1.33333,0,0,1.33333,711.302,62.8233)">
            <path d="M4.421,65.565L44.107,65.565L44.107,105.25L4.421,105.25L4.421,65.565" style="fill:none;fill-rule:nonzero;stroke:rgb(255,0,0);stroke-width:0.57px;"/>
        </g>
        <g transform="matrix(1.33333,0,0,1.33333,711.302,62.8233)">
            <path d="M80.757,231.647L80.757,271.332L41.072,271.332L41.072,231.647L80.757,231.647" style="fill:none;fill-rule:nonzero;stroke:rgb(255,0,0);stroke-width:0.57px;"/>
        </g>
        <g transform="matrix(1.33333,0,0,1.33333,711.302,62.8233)">
            <path d="M302.667,214.202L265.376,200.629L278.949,163.337L316.24,176.91L302.667,214.202" style="fill:none;fill-rule:nonzero;stroke:rgb(255,0,0);stroke-width:0.57px;"/>
        </g>
        <g transform="matrix(1.33333,0,0,1.33333,711.302,62.8233)">
            <path d="M253.809,311.35L267.382,274.059L304.674,287.632L291.101,324.923L253.809,311.35" style="fill:none;fill-rule:nonzero;stroke:rgb(255,0,0);stroke-width:0.57px;"/>
        </g>
        <g transform="matrix(1.33333,0,0,1.33333,711.302,62.8233)">
            <path d="M150.437,158.795L113.145,145.222L126.719,107.93L164.01,121.503L150.437,158.795" style="fill:none;fill-rule:nonzero;stroke:rgb(255,0,0);stroke-width:0.57px;"/>
        </g>
        <g transform="matrix(0.996851,0,0,0.996851,590.26,-69.9017)">
            <circle cx="108.042" cy="131.718" r="4.36" style="fill:none;stroke:rgb(255,0,0);stroke-width:1.9px;stroke-miterlimit:1.5;"/>
        </g>
        <g transform="matrix(0.996851,0,0,0.996851,1052.91,14.0683)">
            <circle cx="108.042" cy="131.718" r="4.36" style="fill:none;stroke:rgb(255,0,0);stroke-width:1.9px;stroke-miterlimit:1.5;"/>
        </g>
        <g transform="matrix(0.996851,0,0,0.996851,1131.81,234.338)">
            <circle cx="108.042" cy="131.718" r="4.36" style="fill:none;stroke:rgb(255,0,0);stroke-width:1.9px;stroke-miterlimit:1.5;"/>
        </g>
        <g transform="matrix(0.996851,0,0,0.996851,1054.05,422.263)">
            <circle cx="108.042" cy="131.718" r="4.36" style="fill:none;stroke:rgb(255,0,0);stroke-width:1.9px;stroke-miterlimit:1.5;"/>
        </g>
        <g transform="matrix(0.996851,0,0,0.996851,877.543,366.893)">
            <circle cx="108.042" cy="131.718" r="4.36" style="fill:none;stroke:rgb(255,0,0);stroke-width:1.9px;stroke-miterlimit:1.5;"/>
        </g>
        <g transform="matrix(0.996851,0,0,0.996851,849.935,-59.8081)">
            <circle cx="108.042" cy="131.718" r="4.36" style="fill:none;stroke:rgb(255,0,0);stroke-width:1.9px;stroke-miterlimit:1.5;"/>
        </g>
        <g transform="matrix(0.996851,0,0,0.996851,581.146,119.212)">
            <circle cx="108.042" cy="131.718" r="4.36" style="fill:none;stroke:rgb(255,0,0);stroke-width:1.9px;stroke-miterlimit:1.5;"/>
        </g>
        <g transform="matrix(0.996851,0,0,0.996851,648.819,302.84)">
            <circle cx="108.042" cy="131.718" r="4.36" style="fill:none;stroke:rgb(255,0,0);stroke-width:1.9px;stroke-miterlimit:1.5;"/>
        </g>
        <g transform="matrix(-0.258004,-0.962885,0.962885,-0.258004,9.65987,1220.49)">
            <circle cx="108.042" cy="131.718" r="4.36" style="fill:none;stroke:rgb(255,0,0);stroke-width:1.9px;stroke-miterlimit:1.5;"/>
        </g>
        <g transform="matrix(-0.258004,-0.962885,0.962885,-0.258004,60.9646,1075.37)">
            <circle cx="108.042" cy="131.718" r="4.36" style="fill:none;stroke:rgb(255,0,0);stroke-width:1.9px;stroke-miterlimit:1.5;"/>
        </g>
        <g transform="matrix(-0.258004,-0.962885,0.962885,-0.258004,59.1452,775.44)">
            <circle cx="108.042" cy="131.718" r="4.36" style="fill:none;stroke:rgb(255,0,0);stroke-width:1.9px;stroke-miterlimit:1.5;"/>
        </g>
        <g transform="matrix(-0.258004,-0.962885,0.962885,-0.258004,-28.9736,751.87)">
            <circle cx="108.042" cy="131.718" r="4.36" style="fill:none;stroke:rgb(255,0,0);stroke-width:1.9px;stroke-miterlimit:1.5;"/>
        </g>
        <g transform="matrix(-0.258004,-0.962885,0.962885,-0.258004,-47.7992,967.048)">
            <circle cx="108.042" cy="131.718" r="4.36" style="fill:none;stroke:rgb(255,0,0);stroke-width:1.9px;stroke-miterlimit:1.5;"/>
        </g>
        <g transform="matrix(0.258004,0.962885,-0.962885,0.258004,1668.45,-84.7608)">
            <circle cx="108.042" cy="131.718" r="4.36" style="fill:none;stroke:rgb(255,0,0);stroke-width:1.9px;stroke-miterlimit:1.5;"/>
        </g>
        <g transform="matrix(0.258004,0.962885,-0.962885,0.258004,1617.15,60.3563)">
            <circle cx="108.042" cy="131.718" r="4.36" style="fill:none;stroke:rgb(255,0,0);stroke-width:1.9px;stroke-miterlimit:1.5;"/>
        </g>
        <g transform="matrix(0.258004,0.962885,-0.962885,0.258004,1618.97,360.286)">
            <circle cx="108.042" cy="131.718" r="4.36" style="fill:none;stroke:rgb(255,0,0);stroke-width:1.9px;stroke-miterlimit:1.5;"/>
        </g>
        <g transform="matrix(0.258004,0.962885,-0.962885,0.258004,1707.08,383.856)">
            <circle cx="108.042" cy="131.718" r="4.36" style="fill:none;stroke:rgb(255,0,0);stroke-width:1.9px;stroke-miterlimit:1.5;"/>
        </g>
        <g transform="matrix(0.258004,0.962885,-0.962885,0.258004,1725.91,168.678)">
            <circle cx="108.042" cy="131.718" r="4.36" style="fill:none;stroke:rgb(255,0,0);stroke-width:1.9px;stroke-miterlimit:1.5;"/>
        </g>
    </g>
</svg>
