%TF.GenerationSoftware,KiCad,Pcbnew,(6.0.5)*%
%TF.CreationDate,2022-06-09T21:08:53+09:00*%
%TF.ProjectId,KEMgonomics,4b454d67-6f6e-46f6-9d69-63732e6b6963,rev?*%
%TF.SameCoordinates,Original*%
%TF.FileFunction,Legend,Top*%
%TF.FilePolarity,Positive*%
%FSLAX46Y46*%
G04 Gerber Fmt 4.6, Leading zero omitted, Abs format (unit mm)*
G04 Created by KiCad (PCBNEW (6.0.5)) date 2022-06-09 21:08:53*
%MOMM*%
%LPD*%
G01*
G04 APERTURE LIST*
%ADD10C,0.150000*%
G04 APERTURE END LIST*
D10*
%TO.C,SW22*%
X7397765Y-95746400D02*
X7540622Y-95794019D01*
X7778717Y-95794019D01*
X7873955Y-95746400D01*
X7921574Y-95698781D01*
X7969193Y-95603543D01*
X7969193Y-95508305D01*
X7921574Y-95413067D01*
X7873955Y-95365448D01*
X7778717Y-95317829D01*
X7588241Y-95270210D01*
X7493003Y-95222591D01*
X7445384Y-95174972D01*
X7397765Y-95079734D01*
X7397765Y-94984496D01*
X7445384Y-94889258D01*
X7493003Y-94841639D01*
X7588241Y-94794019D01*
X7826336Y-94794019D01*
X7969193Y-94841639D01*
X8302527Y-94794019D02*
X8540622Y-95794019D01*
X8731098Y-95079734D01*
X8921574Y-95794019D01*
X9159669Y-94794019D01*
X9493003Y-94889258D02*
X9540622Y-94841639D01*
X9635860Y-94794019D01*
X9873955Y-94794019D01*
X9969193Y-94841639D01*
X10016812Y-94889258D01*
X10064431Y-94984496D01*
X10064431Y-95079734D01*
X10016812Y-95222591D01*
X9445384Y-95794019D01*
X10064431Y-95794019D01*
X10445384Y-94889258D02*
X10493003Y-94841639D01*
X10588241Y-94794019D01*
X10826336Y-94794019D01*
X10921574Y-94841639D01*
X10969193Y-94889258D01*
X11016812Y-94984496D01*
X11016812Y-95079734D01*
X10969193Y-95222591D01*
X10397765Y-95794019D01*
X11016812Y-95794019D01*
%TO.C,SW26*%
X87831693Y-104515092D02*
X87949648Y-104608699D01*
X88173384Y-104690132D01*
X88279165Y-104677958D01*
X88340199Y-104649498D01*
X88417520Y-104576290D01*
X88450093Y-104486795D01*
X88437919Y-104381014D01*
X88409459Y-104319980D01*
X88336251Y-104242660D01*
X88173548Y-104132766D01*
X88100341Y-104055445D01*
X88071880Y-103994411D01*
X88059706Y-103888630D01*
X88092279Y-103799135D01*
X88169600Y-103725928D01*
X88230634Y-103697467D01*
X88336415Y-103685293D01*
X88560151Y-103766726D01*
X88678107Y-103860334D01*
X89007624Y-103929593D02*
X88889340Y-104950719D01*
X89312630Y-104344657D01*
X89247318Y-105081013D01*
X89813075Y-104222753D01*
X90093733Y-104426254D02*
X90154766Y-104397794D01*
X90260548Y-104385620D01*
X90484284Y-104467053D01*
X90557492Y-104544374D01*
X90585952Y-104605408D01*
X90598126Y-104711189D01*
X90565553Y-104800684D01*
X90471946Y-104918639D01*
X89739538Y-105260166D01*
X90321253Y-105471893D01*
X91468724Y-104825360D02*
X91289735Y-104760213D01*
X91183954Y-104772387D01*
X91122920Y-104800848D01*
X90984565Y-104902516D01*
X90874671Y-105065219D01*
X90744378Y-105423197D01*
X90756552Y-105528978D01*
X90785012Y-105590012D01*
X90858220Y-105667333D01*
X91037209Y-105732479D01*
X91142990Y-105720306D01*
X91204024Y-105691845D01*
X91281345Y-105618637D01*
X91362778Y-105394901D01*
X91350604Y-105289120D01*
X91322144Y-105228086D01*
X91248936Y-105150765D01*
X91069947Y-105085618D01*
X90964166Y-105097792D01*
X90903132Y-105126253D01*
X90825811Y-105199461D01*
%TO.C,SW21*%
X125674179Y-98016045D02*
X125792134Y-98109652D01*
X126015870Y-98191085D01*
X126121651Y-98178911D01*
X126182685Y-98150451D01*
X126260006Y-98077243D01*
X126292579Y-97987748D01*
X126280405Y-97881967D01*
X126251945Y-97820933D01*
X126178737Y-97743613D01*
X126016034Y-97633719D01*
X125942827Y-97556398D01*
X125914366Y-97495364D01*
X125902192Y-97389583D01*
X125934765Y-97300088D01*
X126012086Y-97226881D01*
X126073120Y-97198420D01*
X126178901Y-97186246D01*
X126402637Y-97267679D01*
X126520593Y-97361287D01*
X126850110Y-97430546D02*
X126731826Y-98451672D01*
X127155116Y-97845610D01*
X127089804Y-98581966D01*
X127655561Y-97723706D01*
X127936219Y-97927207D02*
X127997252Y-97898747D01*
X128103034Y-97886573D01*
X128326770Y-97968006D01*
X128399978Y-98045327D01*
X128428438Y-98106361D01*
X128440612Y-98212142D01*
X128408039Y-98301637D01*
X128314432Y-98419592D01*
X127582024Y-98761119D01*
X128163739Y-98972846D01*
X129058684Y-99298579D02*
X128521717Y-99103139D01*
X128790201Y-99200859D02*
X129132221Y-98261166D01*
X128993866Y-98362835D01*
X128871798Y-98419756D01*
X128766017Y-98431930D01*
%TO.C,SW28*%
X123633979Y-117546059D02*
X123751934Y-117639666D01*
X123975670Y-117721099D01*
X124081451Y-117708925D01*
X124142485Y-117680465D01*
X124219806Y-117607257D01*
X124252379Y-117517762D01*
X124240205Y-117411981D01*
X124211745Y-117350947D01*
X124138537Y-117273627D01*
X123975834Y-117163733D01*
X123902627Y-117086412D01*
X123874166Y-117025378D01*
X123861992Y-116919597D01*
X123894565Y-116830102D01*
X123971886Y-116756895D01*
X124032920Y-116728434D01*
X124138701Y-116716260D01*
X124362437Y-116797693D01*
X124480393Y-116891301D01*
X124809910Y-116960560D02*
X124691626Y-117981686D01*
X125114916Y-117375624D01*
X125049604Y-118111980D01*
X125615361Y-117253720D01*
X125896019Y-117457221D02*
X125957052Y-117428761D01*
X126062834Y-117416587D01*
X126286570Y-117498020D01*
X126359778Y-117575341D01*
X126388238Y-117636375D01*
X126400412Y-117742156D01*
X126367839Y-117831651D01*
X126274232Y-117949606D01*
X125541824Y-118291133D01*
X126123539Y-118502860D01*
X126855946Y-118161333D02*
X126782738Y-118084012D01*
X126754278Y-118022978D01*
X126742104Y-117917197D01*
X126758391Y-117872450D01*
X126835711Y-117799242D01*
X126896745Y-117770781D01*
X127002526Y-117758607D01*
X127181515Y-117823754D01*
X127254723Y-117901074D01*
X127283184Y-117962108D01*
X127295358Y-118067890D01*
X127279071Y-118112637D01*
X127201750Y-118185845D01*
X127140716Y-118214305D01*
X127034935Y-118226479D01*
X126855946Y-118161333D01*
X126750165Y-118173506D01*
X126689131Y-118201967D01*
X126611810Y-118275175D01*
X126546664Y-118454164D01*
X126558838Y-118559945D01*
X126587298Y-118620979D01*
X126660506Y-118698300D01*
X126839495Y-118763446D01*
X126945276Y-118751273D01*
X127006310Y-118722812D01*
X127083631Y-118649604D01*
X127148778Y-118470615D01*
X127136604Y-118364834D01*
X127108143Y-118303800D01*
X127034935Y-118226479D01*
%TO.C,SW6*%
X112300901Y-52603395D02*
X112418856Y-52697003D01*
X112642593Y-52778436D01*
X112748374Y-52766262D01*
X112809408Y-52737802D01*
X112886729Y-52664594D01*
X112919302Y-52575099D01*
X112907128Y-52469318D01*
X112878667Y-52408284D01*
X112805459Y-52330963D01*
X112642757Y-52221069D01*
X112569549Y-52143749D01*
X112541089Y-52082715D01*
X112528915Y-51976934D01*
X112561488Y-51887439D01*
X112638809Y-51814231D01*
X112699843Y-51785771D01*
X112805624Y-51773597D01*
X113029360Y-51855030D01*
X113147315Y-51948637D01*
X113476833Y-52017897D02*
X113358549Y-53039023D01*
X113781838Y-52432961D01*
X113716527Y-53169316D01*
X114282284Y-52311057D01*
X115042987Y-52587930D02*
X114863998Y-52522784D01*
X114758217Y-52534958D01*
X114697183Y-52563418D01*
X114558828Y-52665087D01*
X114448934Y-52827789D01*
X114318641Y-53185767D01*
X114330815Y-53291548D01*
X114359276Y-53352582D01*
X114432483Y-53429903D01*
X114611473Y-53495050D01*
X114717254Y-53482876D01*
X114778288Y-53454415D01*
X114855608Y-53381207D01*
X114937042Y-53157471D01*
X114924868Y-53051690D01*
X114896407Y-52990656D01*
X114823199Y-52913335D01*
X114644210Y-52848189D01*
X114538429Y-52860362D01*
X114477395Y-52888823D01*
X114400074Y-52962031D01*
%TO.C,SW4*%
X76498612Y-39572429D02*
X76616567Y-39666037D01*
X76840304Y-39747470D01*
X76946085Y-39735296D01*
X77007119Y-39706836D01*
X77084440Y-39633628D01*
X77117013Y-39544133D01*
X77104839Y-39438352D01*
X77076378Y-39377318D01*
X77003170Y-39299997D01*
X76840468Y-39190103D01*
X76767260Y-39112783D01*
X76738800Y-39051749D01*
X76726626Y-38945968D01*
X76759199Y-38856473D01*
X76836520Y-38783265D01*
X76897554Y-38754805D01*
X77003335Y-38742631D01*
X77227071Y-38824064D01*
X77345026Y-38917671D01*
X77674544Y-38986931D02*
X77556260Y-40008057D01*
X77979549Y-39401995D01*
X77914238Y-40138350D01*
X78479995Y-39280091D01*
X79126691Y-39870195D02*
X78898678Y-40496657D01*
X79033249Y-39430784D02*
X78565212Y-40020559D01*
X79146927Y-40232286D01*
%TO.C,SW14*%
X127714375Y-78486030D02*
X127832330Y-78579637D01*
X128056066Y-78661070D01*
X128161847Y-78648896D01*
X128222881Y-78620436D01*
X128300202Y-78547228D01*
X128332775Y-78457733D01*
X128320601Y-78351952D01*
X128292141Y-78290918D01*
X128218933Y-78213598D01*
X128056230Y-78103704D01*
X127983023Y-78026383D01*
X127954562Y-77965349D01*
X127942388Y-77859568D01*
X127974961Y-77770073D01*
X128052282Y-77696866D01*
X128113316Y-77668405D01*
X128219097Y-77656231D01*
X128442833Y-77737664D01*
X128560789Y-77831272D01*
X128890306Y-77900531D02*
X128772022Y-78921657D01*
X129195312Y-78315595D01*
X129130000Y-79051951D01*
X129695757Y-78193691D01*
X130203935Y-79442831D02*
X129666968Y-79247391D01*
X129935451Y-79345111D02*
X130277471Y-78405418D01*
X130139117Y-78507086D01*
X130017049Y-78564008D01*
X129911268Y-78576182D01*
X131237399Y-79109529D02*
X131009386Y-79735991D01*
X131143956Y-78670118D02*
X130675920Y-79259893D01*
X131257634Y-79471620D01*
%TO.C,SW31*%
X49989205Y-111014139D02*
X50107160Y-111107746D01*
X50330896Y-111189179D01*
X50436677Y-111177005D01*
X50497711Y-111148545D01*
X50575032Y-111075337D01*
X50607605Y-110985842D01*
X50595431Y-110880061D01*
X50566971Y-110819027D01*
X50493763Y-110741707D01*
X50331060Y-110631813D01*
X50257853Y-110554492D01*
X50229392Y-110493458D01*
X50217218Y-110387677D01*
X50249791Y-110298182D01*
X50327112Y-110224975D01*
X50388146Y-110196514D01*
X50493927Y-110184340D01*
X50717663Y-110265773D01*
X50835619Y-110359381D01*
X51165136Y-110428640D02*
X51046852Y-111449766D01*
X51470142Y-110843704D01*
X51404830Y-111580060D01*
X51970587Y-110721800D01*
X52239071Y-110819520D02*
X52820785Y-111031247D01*
X52377261Y-111275218D01*
X52511503Y-111324078D01*
X52584710Y-111401399D01*
X52613171Y-111462433D01*
X52625345Y-111568214D01*
X52543912Y-111791951D01*
X52466591Y-111865158D01*
X52405557Y-111893619D01*
X52299776Y-111905793D01*
X52031292Y-111808073D01*
X51958084Y-111730752D01*
X51929624Y-111669718D01*
X53373710Y-112296673D02*
X52836743Y-112101233D01*
X53105227Y-112198953D02*
X53447247Y-111259260D01*
X53308892Y-111360929D01*
X53186824Y-111417850D01*
X53081043Y-111430024D01*
%TO.C,SW18*%
X71970743Y-78469593D02*
X72088698Y-78563200D01*
X72312434Y-78644633D01*
X72418215Y-78632459D01*
X72479249Y-78603999D01*
X72556570Y-78530791D01*
X72589143Y-78441296D01*
X72576969Y-78335515D01*
X72548509Y-78274481D01*
X72475301Y-78197161D01*
X72312598Y-78087267D01*
X72239391Y-78009946D01*
X72210930Y-77948912D01*
X72198756Y-77843131D01*
X72231329Y-77753636D01*
X72308650Y-77680429D01*
X72369684Y-77651968D01*
X72475465Y-77639794D01*
X72699201Y-77721227D01*
X72817157Y-77814835D01*
X73146674Y-77884094D02*
X73028390Y-78905220D01*
X73451680Y-78299158D01*
X73386368Y-79035514D01*
X73952125Y-78177254D01*
X74460303Y-79426394D02*
X73923336Y-79230954D01*
X74191819Y-79328674D02*
X74533839Y-78388981D01*
X74395485Y-78490649D01*
X74273417Y-78547571D01*
X74167636Y-78559745D01*
X75192710Y-79084867D02*
X75119502Y-79007546D01*
X75091042Y-78946512D01*
X75078868Y-78840731D01*
X75095155Y-78795984D01*
X75172475Y-78722776D01*
X75233509Y-78694315D01*
X75339290Y-78682141D01*
X75518279Y-78747288D01*
X75591487Y-78824608D01*
X75619948Y-78885642D01*
X75632122Y-78991424D01*
X75615835Y-79036171D01*
X75538514Y-79109379D01*
X75477480Y-79137839D01*
X75371699Y-79150013D01*
X75192710Y-79084867D01*
X75086929Y-79097040D01*
X75025895Y-79125501D01*
X74948574Y-79198709D01*
X74883428Y-79377698D01*
X74895602Y-79483479D01*
X74924062Y-79544513D01*
X74997270Y-79621834D01*
X75176259Y-79686980D01*
X75282040Y-79674807D01*
X75343074Y-79646346D01*
X75420395Y-79573138D01*
X75485542Y-79394149D01*
X75473368Y-79288368D01*
X75444907Y-79227334D01*
X75371699Y-79150013D01*
%TO.C,J1*%
X144931689Y-63227090D02*
X145468657Y-63422530D01*
X144858153Y-64264503D02*
X145200173Y-63324810D01*
X145976834Y-64671670D02*
X145826470Y-64110190D01*
X145439867Y-64476229D02*
X145781887Y-63536537D01*
X146139866Y-63666830D01*
X146213073Y-63744151D01*
X146241534Y-63805185D01*
X146253708Y-63910966D01*
X146204848Y-64045208D01*
X146127527Y-64118416D01*
X146066493Y-64146876D01*
X145960712Y-64159050D01*
X145602734Y-64028757D01*
X146916527Y-65013690D02*
X146766163Y-64452210D01*
X146379560Y-64818250D02*
X146721580Y-63878557D01*
X147079558Y-64008850D01*
X147152766Y-64086171D01*
X147181227Y-64147205D01*
X147193401Y-64252986D01*
X147144541Y-64387228D01*
X147067220Y-64460436D01*
X147006186Y-64488896D01*
X146900405Y-64501070D01*
X146542427Y-64370777D01*
X147290792Y-65099236D02*
X147408747Y-65192843D01*
X147632483Y-65274276D01*
X147738265Y-65262103D01*
X147799299Y-65233642D01*
X147876619Y-65160434D01*
X147909193Y-65070940D01*
X147897019Y-64965158D01*
X147868558Y-64904124D01*
X147795350Y-64826804D01*
X147632648Y-64716910D01*
X147559440Y-64639589D01*
X147530979Y-64578555D01*
X147518805Y-64472774D01*
X147551379Y-64383279D01*
X147628699Y-64310072D01*
X147689733Y-64281611D01*
X147795514Y-64269437D01*
X148019251Y-64350870D01*
X148137206Y-64444478D01*
%TO.C,SW32*%
X64632608Y-126480197D02*
X64750563Y-126573804D01*
X64974299Y-126655237D01*
X65080080Y-126643063D01*
X65141114Y-126614603D01*
X65218435Y-126541395D01*
X65251008Y-126451900D01*
X65238834Y-126346119D01*
X65210374Y-126285085D01*
X65137166Y-126207765D01*
X64974463Y-126097871D01*
X64901256Y-126020550D01*
X64872795Y-125959516D01*
X64860621Y-125853735D01*
X64893194Y-125764240D01*
X64970515Y-125691033D01*
X65031549Y-125662572D01*
X65137330Y-125650398D01*
X65361066Y-125731831D01*
X65479022Y-125825439D01*
X65808539Y-125894698D02*
X65690255Y-126915824D01*
X66113545Y-126309762D01*
X66048233Y-127046118D01*
X66613990Y-126187858D01*
X66882474Y-126285578D02*
X67464188Y-126497305D01*
X67020664Y-126741276D01*
X67154906Y-126790136D01*
X67228113Y-126867457D01*
X67256574Y-126928491D01*
X67268748Y-127034272D01*
X67187315Y-127258009D01*
X67109994Y-127331216D01*
X67048960Y-127359677D01*
X66943179Y-127371851D01*
X66674695Y-127274131D01*
X66601487Y-127196810D01*
X66573027Y-127135776D01*
X67789593Y-126717093D02*
X67850627Y-126688632D01*
X67956408Y-126676458D01*
X68180144Y-126757892D01*
X68253352Y-126835212D01*
X68281813Y-126896246D01*
X68293987Y-127002028D01*
X68261413Y-127091522D01*
X68167806Y-127209477D01*
X67435399Y-127551004D01*
X68017113Y-127762731D01*
%TO.C,SW7*%
X130202045Y-59118880D02*
X130320000Y-59212488D01*
X130543737Y-59293921D01*
X130649518Y-59281747D01*
X130710552Y-59253287D01*
X130787873Y-59180079D01*
X130820446Y-59090584D01*
X130808272Y-58984803D01*
X130779811Y-58923769D01*
X130706603Y-58846448D01*
X130543901Y-58736554D01*
X130470693Y-58659234D01*
X130442233Y-58598200D01*
X130430059Y-58492419D01*
X130462632Y-58402924D01*
X130539953Y-58329716D01*
X130600987Y-58301256D01*
X130706768Y-58289082D01*
X130930504Y-58370515D01*
X131048459Y-58464122D01*
X131377977Y-58533382D02*
X131259693Y-59554508D01*
X131682982Y-58948446D01*
X131617671Y-59684801D01*
X132183428Y-58826542D01*
X132451911Y-58924262D02*
X133078373Y-59152275D01*
X132333627Y-59945388D01*
%TO.C,SW16*%
X28487963Y-76216385D02*
X28630820Y-76264004D01*
X28868915Y-76264004D01*
X28964153Y-76216385D01*
X29011772Y-76168766D01*
X29059391Y-76073528D01*
X29059391Y-75978290D01*
X29011772Y-75883052D01*
X28964153Y-75835433D01*
X28868915Y-75787814D01*
X28678439Y-75740195D01*
X28583201Y-75692576D01*
X28535582Y-75644957D01*
X28487963Y-75549719D01*
X28487963Y-75454481D01*
X28535582Y-75359243D01*
X28583201Y-75311624D01*
X28678439Y-75264004D01*
X28916534Y-75264004D01*
X29059391Y-75311624D01*
X29392725Y-75264004D02*
X29630820Y-76264004D01*
X29821296Y-75549719D01*
X30011772Y-76264004D01*
X30249867Y-75264004D01*
X31154629Y-76264004D02*
X30583201Y-76264004D01*
X30868915Y-76264004D02*
X30868915Y-75264004D01*
X30773677Y-75406862D01*
X30678439Y-75502100D01*
X30583201Y-75549719D01*
X32011772Y-75264004D02*
X31821296Y-75264004D01*
X31726058Y-75311624D01*
X31678439Y-75359243D01*
X31583201Y-75502100D01*
X31535582Y-75692576D01*
X31535582Y-76073528D01*
X31583201Y-76168766D01*
X31630820Y-76216385D01*
X31726058Y-76264004D01*
X31916534Y-76264004D01*
X32011772Y-76216385D01*
X32059391Y-76168766D01*
X32107010Y-76073528D01*
X32107010Y-75835433D01*
X32059391Y-75740195D01*
X32011772Y-75692576D01*
X31916534Y-75644957D01*
X31726058Y-75644957D01*
X31630820Y-75692576D01*
X31583201Y-75740195D01*
X31535582Y-75835433D01*
%TO.C,SW33*%
X85791494Y-124045106D02*
X85909449Y-124138713D01*
X86133185Y-124220146D01*
X86238966Y-124207972D01*
X86300000Y-124179512D01*
X86377321Y-124106304D01*
X86409894Y-124016809D01*
X86397720Y-123911028D01*
X86369260Y-123849994D01*
X86296052Y-123772674D01*
X86133349Y-123662780D01*
X86060142Y-123585459D01*
X86031681Y-123524425D01*
X86019507Y-123418644D01*
X86052080Y-123329149D01*
X86129401Y-123255942D01*
X86190435Y-123227481D01*
X86296216Y-123215307D01*
X86519952Y-123296740D01*
X86637908Y-123390348D01*
X86967425Y-123459607D02*
X86849141Y-124480733D01*
X87272431Y-123874671D01*
X87207119Y-124611027D01*
X87772876Y-123752767D01*
X88041360Y-123850487D02*
X88623074Y-124062214D01*
X88179550Y-124306185D01*
X88313792Y-124355045D01*
X88386999Y-124432366D01*
X88415460Y-124493400D01*
X88427634Y-124599181D01*
X88346201Y-124822918D01*
X88268880Y-124896125D01*
X88207846Y-124924586D01*
X88102065Y-124936760D01*
X87833581Y-124839040D01*
X87760373Y-124761719D01*
X87731913Y-124700685D01*
X88936305Y-124176221D02*
X89518019Y-124387948D01*
X89074495Y-124631919D01*
X89208737Y-124680779D01*
X89281945Y-124758100D01*
X89310405Y-124819134D01*
X89322579Y-124924915D01*
X89241146Y-125148651D01*
X89163825Y-125221859D01*
X89102791Y-125250320D01*
X88997010Y-125262493D01*
X88728527Y-125164773D01*
X88655319Y-125087453D01*
X88626858Y-125026419D01*
%TO.C,SW19*%
X89871890Y-84985077D02*
X89989845Y-85078684D01*
X90213581Y-85160117D01*
X90319362Y-85147943D01*
X90380396Y-85119483D01*
X90457717Y-85046275D01*
X90490290Y-84956780D01*
X90478116Y-84850999D01*
X90449656Y-84789965D01*
X90376448Y-84712645D01*
X90213745Y-84602751D01*
X90140538Y-84525430D01*
X90112077Y-84464396D01*
X90099903Y-84358615D01*
X90132476Y-84269120D01*
X90209797Y-84195913D01*
X90270831Y-84167452D01*
X90376612Y-84155278D01*
X90600348Y-84236711D01*
X90718304Y-84330319D01*
X91047821Y-84399578D02*
X90929537Y-85420704D01*
X91352827Y-84814642D01*
X91287515Y-85550998D01*
X91853272Y-84692738D01*
X92361450Y-85941878D02*
X91824483Y-85746438D01*
X92092966Y-85844158D02*
X92434986Y-84904465D01*
X92296632Y-85006133D01*
X92174564Y-85063055D01*
X92068783Y-85075229D01*
X92808923Y-86104744D02*
X92987912Y-86169891D01*
X93093693Y-86157717D01*
X93154727Y-86129257D01*
X93293081Y-86027588D01*
X93402975Y-85864886D01*
X93533269Y-85506908D01*
X93521095Y-85401126D01*
X93492634Y-85340092D01*
X93419426Y-85262772D01*
X93240437Y-85197625D01*
X93134656Y-85209799D01*
X93073622Y-85238260D01*
X92996302Y-85311468D01*
X92914868Y-85535204D01*
X92927042Y-85640985D01*
X92955503Y-85702019D01*
X93028711Y-85779340D01*
X93207700Y-85844486D01*
X93313481Y-85832312D01*
X93374515Y-85803852D01*
X93451835Y-85730644D01*
%TO.C,SW1*%
X13994548Y-37156354D02*
X14137405Y-37203973D01*
X14375501Y-37203973D01*
X14470739Y-37156354D01*
X14518358Y-37108735D01*
X14565977Y-37013497D01*
X14565977Y-36918259D01*
X14518358Y-36823021D01*
X14470739Y-36775402D01*
X14375501Y-36727783D01*
X14185024Y-36680164D01*
X14089786Y-36632545D01*
X14042167Y-36584926D01*
X13994548Y-36489688D01*
X13994548Y-36394450D01*
X14042167Y-36299212D01*
X14089786Y-36251593D01*
X14185024Y-36203973D01*
X14423120Y-36203973D01*
X14565977Y-36251593D01*
X14899310Y-36203973D02*
X15137405Y-37203973D01*
X15327882Y-36489688D01*
X15518358Y-37203973D01*
X15756453Y-36203973D01*
X16661215Y-37203973D02*
X16089786Y-37203973D01*
X16375501Y-37203973D02*
X16375501Y-36203973D01*
X16280262Y-36346831D01*
X16185024Y-36442069D01*
X16089786Y-36489688D01*
%TO.C,SW15*%
X9437963Y-76216384D02*
X9580820Y-76264003D01*
X9818915Y-76264003D01*
X9914153Y-76216384D01*
X9961772Y-76168765D01*
X10009391Y-76073527D01*
X10009391Y-75978289D01*
X9961772Y-75883051D01*
X9914153Y-75835432D01*
X9818915Y-75787813D01*
X9628439Y-75740194D01*
X9533201Y-75692575D01*
X9485582Y-75644956D01*
X9437963Y-75549718D01*
X9437963Y-75454480D01*
X9485582Y-75359242D01*
X9533201Y-75311623D01*
X9628439Y-75264003D01*
X9866534Y-75264003D01*
X10009391Y-75311623D01*
X10342725Y-75264003D02*
X10580820Y-76264003D01*
X10771296Y-75549718D01*
X10961772Y-76264003D01*
X11199867Y-75264003D01*
X12104629Y-76264003D02*
X11533201Y-76264003D01*
X11818915Y-76264003D02*
X11818915Y-75264003D01*
X11723677Y-75406861D01*
X11628439Y-75502099D01*
X11533201Y-75549718D01*
X13009391Y-75264003D02*
X12533201Y-75264003D01*
X12485582Y-75740194D01*
X12533201Y-75692575D01*
X12628439Y-75644956D01*
X12866534Y-75644956D01*
X12961772Y-75692575D01*
X13009391Y-75740194D01*
X13057010Y-75835432D01*
X13057010Y-76073527D01*
X13009391Y-76168765D01*
X12961772Y-76216384D01*
X12866534Y-76264003D01*
X12628439Y-76264003D01*
X12533201Y-76216384D01*
X12485582Y-76168765D01*
%TO.C,SW25*%
X69930546Y-97999608D02*
X70048501Y-98093215D01*
X70272237Y-98174648D01*
X70378018Y-98162474D01*
X70439052Y-98134014D01*
X70516373Y-98060806D01*
X70548946Y-97971311D01*
X70536772Y-97865530D01*
X70508312Y-97804496D01*
X70435104Y-97727176D01*
X70272401Y-97617282D01*
X70199194Y-97539961D01*
X70170733Y-97478927D01*
X70158559Y-97373146D01*
X70191132Y-97283651D01*
X70268453Y-97210444D01*
X70329487Y-97181983D01*
X70435268Y-97169809D01*
X70659004Y-97251242D01*
X70776960Y-97344850D01*
X71106477Y-97414109D02*
X70988193Y-98435235D01*
X71411483Y-97829173D01*
X71346171Y-98565529D01*
X71911928Y-97707269D01*
X72192586Y-97910770D02*
X72253619Y-97882310D01*
X72359401Y-97870136D01*
X72583137Y-97951569D01*
X72656345Y-98028890D01*
X72684805Y-98089924D01*
X72696979Y-98195705D01*
X72664406Y-98285200D01*
X72570799Y-98403155D01*
X71838391Y-98744682D01*
X72420106Y-98956409D01*
X73612324Y-98326163D02*
X73164851Y-98163296D01*
X72957237Y-98594482D01*
X73018271Y-98566022D01*
X73124053Y-98553848D01*
X73347789Y-98635281D01*
X73420997Y-98712602D01*
X73449457Y-98773636D01*
X73461631Y-98879417D01*
X73380198Y-99103153D01*
X73302877Y-99176361D01*
X73241843Y-99204822D01*
X73136062Y-99216995D01*
X72912326Y-99135562D01*
X72839118Y-99058241D01*
X72810657Y-98997208D01*
%TO.C,SW29*%
X5357566Y-115276417D02*
X5500423Y-115324036D01*
X5738518Y-115324036D01*
X5833756Y-115276417D01*
X5881375Y-115228798D01*
X5928994Y-115133560D01*
X5928994Y-115038322D01*
X5881375Y-114943084D01*
X5833756Y-114895465D01*
X5738518Y-114847846D01*
X5548042Y-114800227D01*
X5452804Y-114752608D01*
X5405185Y-114704989D01*
X5357566Y-114609751D01*
X5357566Y-114514513D01*
X5405185Y-114419275D01*
X5452804Y-114371656D01*
X5548042Y-114324036D01*
X5786137Y-114324036D01*
X5928994Y-114371656D01*
X6262328Y-114324036D02*
X6500423Y-115324036D01*
X6690899Y-114609751D01*
X6881375Y-115324036D01*
X7119470Y-114324036D01*
X7452804Y-114419275D02*
X7500423Y-114371656D01*
X7595661Y-114324036D01*
X7833756Y-114324036D01*
X7928994Y-114371656D01*
X7976613Y-114419275D01*
X8024232Y-114514513D01*
X8024232Y-114609751D01*
X7976613Y-114752608D01*
X7405185Y-115324036D01*
X8024232Y-115324036D01*
X8500423Y-115324036D02*
X8690899Y-115324036D01*
X8786137Y-115276417D01*
X8833756Y-115228798D01*
X8928994Y-115085941D01*
X8976613Y-114895465D01*
X8976613Y-114514513D01*
X8928994Y-114419275D01*
X8881375Y-114371656D01*
X8786137Y-114324036D01*
X8595661Y-114324036D01*
X8500423Y-114371656D01*
X8452804Y-114419275D01*
X8405185Y-114514513D01*
X8405185Y-114752608D01*
X8452804Y-114847846D01*
X8500423Y-114895465D01*
X8595661Y-114943084D01*
X8786137Y-114943084D01*
X8881375Y-114895465D01*
X8928994Y-114847846D01*
X8976613Y-114752608D01*
%TO.C,SW35*%
X121593782Y-137076074D02*
X121711737Y-137169681D01*
X121935473Y-137251114D01*
X122041254Y-137238940D01*
X122102288Y-137210480D01*
X122179609Y-137137272D01*
X122212182Y-137047777D01*
X122200008Y-136941996D01*
X122171548Y-136880962D01*
X122098340Y-136803642D01*
X121935637Y-136693748D01*
X121862430Y-136616427D01*
X121833969Y-136555393D01*
X121821795Y-136449612D01*
X121854368Y-136360117D01*
X121931689Y-136286910D01*
X121992723Y-136258449D01*
X122098504Y-136246275D01*
X122322240Y-136327708D01*
X122440196Y-136421316D01*
X122769713Y-136490575D02*
X122651429Y-137511701D01*
X123074719Y-136905639D01*
X123009407Y-137641995D01*
X123575164Y-136783735D01*
X123843648Y-136881455D02*
X124425362Y-137093182D01*
X123981838Y-137337153D01*
X124116080Y-137386013D01*
X124189287Y-137463334D01*
X124217748Y-137524368D01*
X124229922Y-137630149D01*
X124148489Y-137853886D01*
X124071168Y-137927093D01*
X124010134Y-137955554D01*
X123904353Y-137967728D01*
X123635869Y-137870008D01*
X123562661Y-137792687D01*
X123534201Y-137731653D01*
X125275560Y-137402629D02*
X124828087Y-137239762D01*
X124620473Y-137670948D01*
X124681507Y-137642488D01*
X124787289Y-137630314D01*
X125011025Y-137711747D01*
X125084233Y-137789068D01*
X125112693Y-137850102D01*
X125124867Y-137955883D01*
X125043434Y-138179619D01*
X124966113Y-138252827D01*
X124905079Y-138281288D01*
X124799298Y-138293461D01*
X124575562Y-138212028D01*
X124502354Y-138134707D01*
X124473893Y-138073674D01*
%TO.C,SW9*%
X31004351Y-56686368D02*
X31147208Y-56733987D01*
X31385304Y-56733987D01*
X31480542Y-56686368D01*
X31528161Y-56638749D01*
X31575780Y-56543511D01*
X31575780Y-56448273D01*
X31528161Y-56353035D01*
X31480542Y-56305416D01*
X31385304Y-56257797D01*
X31194827Y-56210178D01*
X31099589Y-56162559D01*
X31051970Y-56114940D01*
X31004351Y-56019702D01*
X31004351Y-55924464D01*
X31051970Y-55829226D01*
X31099589Y-55781607D01*
X31194827Y-55733987D01*
X31432923Y-55733987D01*
X31575780Y-55781607D01*
X31909113Y-55733987D02*
X32147208Y-56733987D01*
X32337685Y-56019702D01*
X32528161Y-56733987D01*
X32766256Y-55733987D01*
X33194827Y-56733987D02*
X33385304Y-56733987D01*
X33480542Y-56686368D01*
X33528161Y-56638749D01*
X33623399Y-56495892D01*
X33671018Y-56305416D01*
X33671018Y-55924464D01*
X33623399Y-55829226D01*
X33575780Y-55781607D01*
X33480542Y-55733987D01*
X33290065Y-55733987D01*
X33194827Y-55781607D01*
X33147208Y-55829226D01*
X33099589Y-55924464D01*
X33099589Y-56162559D01*
X33147208Y-56257797D01*
X33194827Y-56305416D01*
X33290065Y-56353035D01*
X33480542Y-56353035D01*
X33575780Y-56305416D01*
X33623399Y-56257797D01*
X33671018Y-56162559D01*
%TO.C,SW27*%
X105732835Y-111030575D02*
X105850790Y-111124182D01*
X106074526Y-111205615D01*
X106180307Y-111193441D01*
X106241341Y-111164981D01*
X106318662Y-111091773D01*
X106351235Y-111002278D01*
X106339061Y-110896497D01*
X106310601Y-110835463D01*
X106237393Y-110758143D01*
X106074690Y-110648249D01*
X106001483Y-110570928D01*
X105973022Y-110509894D01*
X105960848Y-110404113D01*
X105993421Y-110314618D01*
X106070742Y-110241411D01*
X106131776Y-110212950D01*
X106237557Y-110200776D01*
X106461293Y-110282209D01*
X106579249Y-110375817D01*
X106908766Y-110445076D02*
X106790482Y-111466202D01*
X107213772Y-110860140D01*
X107148460Y-111596496D01*
X107714217Y-110738236D01*
X107994875Y-110941737D02*
X108055908Y-110913277D01*
X108161690Y-110901103D01*
X108385426Y-110982536D01*
X108458634Y-111059857D01*
X108487094Y-111120891D01*
X108499268Y-111226672D01*
X108466695Y-111316167D01*
X108373088Y-111434122D01*
X107640680Y-111775649D01*
X108222395Y-111987376D01*
X108877646Y-111161690D02*
X109504108Y-111389703D01*
X108759362Y-112182816D01*
%TO.C,SW34*%
X103692637Y-130560591D02*
X103810592Y-130654198D01*
X104034328Y-130735631D01*
X104140109Y-130723457D01*
X104201143Y-130694997D01*
X104278464Y-130621789D01*
X104311037Y-130532294D01*
X104298863Y-130426513D01*
X104270403Y-130365479D01*
X104197195Y-130288159D01*
X104034492Y-130178265D01*
X103961285Y-130100944D01*
X103932824Y-130039910D01*
X103920650Y-129934129D01*
X103953223Y-129844634D01*
X104030544Y-129771427D01*
X104091578Y-129742966D01*
X104197359Y-129730792D01*
X104421095Y-129812225D01*
X104539051Y-129905833D01*
X104868568Y-129975092D02*
X104750284Y-130996218D01*
X105173574Y-130390156D01*
X105108262Y-131126512D01*
X105674019Y-130268252D01*
X105942503Y-130365972D02*
X106524217Y-130577699D01*
X106080693Y-130821670D01*
X106214935Y-130870530D01*
X106288142Y-130947851D01*
X106316603Y-131008885D01*
X106328777Y-131114666D01*
X106247344Y-131338403D01*
X106170023Y-131411610D01*
X106108989Y-131440071D01*
X106003208Y-131452245D01*
X105734724Y-131354525D01*
X105661516Y-131277204D01*
X105633056Y-131216170D01*
X107215661Y-131184090D02*
X106987648Y-131810552D01*
X107122218Y-130744679D02*
X106654182Y-131334454D01*
X107235896Y-131546181D01*
%TO.C,SW20*%
X107773030Y-91500560D02*
X107890985Y-91594167D01*
X108114721Y-91675600D01*
X108220502Y-91663426D01*
X108281536Y-91634966D01*
X108358857Y-91561758D01*
X108391430Y-91472263D01*
X108379256Y-91366482D01*
X108350796Y-91305448D01*
X108277588Y-91228128D01*
X108114885Y-91118234D01*
X108041678Y-91040913D01*
X108013217Y-90979879D01*
X108001043Y-90874098D01*
X108033616Y-90784603D01*
X108110937Y-90711396D01*
X108171971Y-90682935D01*
X108277752Y-90670761D01*
X108501488Y-90752194D01*
X108619444Y-90845802D01*
X108948961Y-90915061D02*
X108830677Y-91936187D01*
X109253967Y-91330125D01*
X109188655Y-92066481D01*
X109754412Y-91208221D01*
X110035070Y-91411722D02*
X110096103Y-91383262D01*
X110201885Y-91371088D01*
X110425621Y-91452521D01*
X110498829Y-91529842D01*
X110527289Y-91590876D01*
X110539463Y-91696657D01*
X110506890Y-91786152D01*
X110413283Y-91904107D01*
X109680875Y-92245634D01*
X110262590Y-92457361D01*
X111186325Y-91729395D02*
X111275819Y-91761968D01*
X111349027Y-91839289D01*
X111377488Y-91900323D01*
X111389661Y-92006104D01*
X111369262Y-92201380D01*
X111287829Y-92425116D01*
X111177935Y-92587818D01*
X111100614Y-92661026D01*
X111039580Y-92689487D01*
X110933799Y-92701661D01*
X110844304Y-92669087D01*
X110771097Y-92591767D01*
X110742636Y-92530733D01*
X110730462Y-92424952D01*
X110750861Y-92229676D01*
X110832295Y-92005940D01*
X110942189Y-91843237D01*
X111019509Y-91770029D01*
X111080543Y-91741569D01*
X111186325Y-91729395D01*
%TO.C,SW17*%
X54069600Y-71954110D02*
X54187555Y-72047717D01*
X54411291Y-72129150D01*
X54517072Y-72116976D01*
X54578106Y-72088516D01*
X54655427Y-72015308D01*
X54688000Y-71925813D01*
X54675826Y-71820032D01*
X54647366Y-71758998D01*
X54574158Y-71681678D01*
X54411455Y-71571784D01*
X54338248Y-71494463D01*
X54309787Y-71433429D01*
X54297613Y-71327648D01*
X54330186Y-71238153D01*
X54407507Y-71164946D01*
X54468541Y-71136485D01*
X54574322Y-71124311D01*
X54798058Y-71205744D01*
X54916014Y-71299352D01*
X55245531Y-71368611D02*
X55127247Y-72389737D01*
X55550537Y-71783675D01*
X55485225Y-72520031D01*
X56050982Y-71661771D01*
X56559160Y-72910911D02*
X56022193Y-72715471D01*
X56290676Y-72813191D02*
X56632696Y-71873498D01*
X56494342Y-71975166D01*
X56372274Y-72032088D01*
X56266493Y-72044262D01*
X57214411Y-72085225D02*
X57840873Y-72313238D01*
X57096127Y-73106351D01*
%TO.C,SW3*%
X58597469Y-33056945D02*
X58715424Y-33150553D01*
X58939161Y-33231986D01*
X59044942Y-33219812D01*
X59105976Y-33191352D01*
X59183297Y-33118144D01*
X59215870Y-33028649D01*
X59203696Y-32922868D01*
X59175235Y-32861834D01*
X59102027Y-32784513D01*
X58939325Y-32674619D01*
X58866117Y-32597299D01*
X58837657Y-32536265D01*
X58825483Y-32430484D01*
X58858056Y-32340989D01*
X58935377Y-32267781D01*
X58996411Y-32239321D01*
X59102192Y-32227147D01*
X59325928Y-32308580D01*
X59443883Y-32402187D01*
X59773401Y-32471447D02*
X59655117Y-33492573D01*
X60078406Y-32886511D01*
X60013095Y-33622866D01*
X60578852Y-32764607D01*
X60847335Y-32862327D02*
X61429050Y-33074054D01*
X60985525Y-33318025D01*
X61119767Y-33366885D01*
X61192975Y-33444206D01*
X61221436Y-33505240D01*
X61233610Y-33611021D01*
X61152176Y-33834757D01*
X61074856Y-33907965D01*
X61013822Y-33936426D01*
X60908041Y-33948600D01*
X60639557Y-33850880D01*
X60566349Y-33773559D01*
X60537888Y-33712525D01*
%TO.C,SW30*%
X24407567Y-115276416D02*
X24550424Y-115324035D01*
X24788519Y-115324035D01*
X24883757Y-115276416D01*
X24931376Y-115228797D01*
X24978995Y-115133559D01*
X24978995Y-115038321D01*
X24931376Y-114943083D01*
X24883757Y-114895464D01*
X24788519Y-114847845D01*
X24598043Y-114800226D01*
X24502805Y-114752607D01*
X24455186Y-114704988D01*
X24407567Y-114609750D01*
X24407567Y-114514512D01*
X24455186Y-114419274D01*
X24502805Y-114371655D01*
X24598043Y-114324035D01*
X24836138Y-114324035D01*
X24978995Y-114371655D01*
X25312329Y-114324035D02*
X25550424Y-115324035D01*
X25740900Y-114609750D01*
X25931376Y-115324035D01*
X26169471Y-114324035D01*
X26455186Y-114324035D02*
X27074233Y-114324035D01*
X26740900Y-114704988D01*
X26883757Y-114704988D01*
X26978995Y-114752607D01*
X27026614Y-114800226D01*
X27074233Y-114895464D01*
X27074233Y-115133559D01*
X27026614Y-115228797D01*
X26978995Y-115276416D01*
X26883757Y-115324035D01*
X26598043Y-115324035D01*
X26502805Y-115276416D01*
X26455186Y-115228797D01*
X27693281Y-114324035D02*
X27788519Y-114324035D01*
X27883757Y-114371655D01*
X27931376Y-114419274D01*
X27978995Y-114514512D01*
X28026614Y-114704988D01*
X28026614Y-114943083D01*
X27978995Y-115133559D01*
X27931376Y-115228797D01*
X27883757Y-115276416D01*
X27788519Y-115324035D01*
X27693281Y-115324035D01*
X27598043Y-115276416D01*
X27550424Y-115228797D01*
X27502805Y-115133559D01*
X27455186Y-114943083D01*
X27455186Y-114704988D01*
X27502805Y-114514512D01*
X27550424Y-114419274D01*
X27598043Y-114371655D01*
X27693281Y-114324035D01*
%TO.C,SW8*%
X11954350Y-56686369D02*
X12097207Y-56733988D01*
X12335303Y-56733988D01*
X12430541Y-56686369D01*
X12478160Y-56638750D01*
X12525779Y-56543512D01*
X12525779Y-56448274D01*
X12478160Y-56353036D01*
X12430541Y-56305417D01*
X12335303Y-56257798D01*
X12144826Y-56210179D01*
X12049588Y-56162560D01*
X12001969Y-56114941D01*
X11954350Y-56019703D01*
X11954350Y-55924465D01*
X12001969Y-55829227D01*
X12049588Y-55781608D01*
X12144826Y-55733988D01*
X12382922Y-55733988D01*
X12525779Y-55781608D01*
X12859112Y-55733988D02*
X13097207Y-56733988D01*
X13287684Y-56019703D01*
X13478160Y-56733988D01*
X13716255Y-55733988D01*
X14240064Y-56162560D02*
X14144826Y-56114941D01*
X14097207Y-56067322D01*
X14049588Y-55972084D01*
X14049588Y-55924465D01*
X14097207Y-55829227D01*
X14144826Y-55781608D01*
X14240064Y-55733988D01*
X14430541Y-55733988D01*
X14525779Y-55781608D01*
X14573398Y-55829227D01*
X14621017Y-55924465D01*
X14621017Y-55972084D01*
X14573398Y-56067322D01*
X14525779Y-56114941D01*
X14430541Y-56162560D01*
X14240064Y-56162560D01*
X14144826Y-56210179D01*
X14097207Y-56257798D01*
X14049588Y-56353036D01*
X14049588Y-56543512D01*
X14097207Y-56638750D01*
X14144826Y-56686369D01*
X14240064Y-56733988D01*
X14430541Y-56733988D01*
X14525779Y-56686369D01*
X14573398Y-56638750D01*
X14621017Y-56543512D01*
X14621017Y-56353036D01*
X14573398Y-56257798D01*
X14525779Y-56210179D01*
X14430541Y-56162560D01*
%TO.C,SW24*%
X52029403Y-91484124D02*
X52147358Y-91577731D01*
X52371094Y-91659164D01*
X52476875Y-91646990D01*
X52537909Y-91618530D01*
X52615230Y-91545322D01*
X52647803Y-91455827D01*
X52635629Y-91350046D01*
X52607169Y-91289012D01*
X52533961Y-91211692D01*
X52371258Y-91101798D01*
X52298051Y-91024477D01*
X52269590Y-90963443D01*
X52257416Y-90857662D01*
X52289989Y-90768167D01*
X52367310Y-90694960D01*
X52428344Y-90666499D01*
X52534125Y-90654325D01*
X52757861Y-90735758D01*
X52875817Y-90829366D01*
X53205334Y-90898625D02*
X53087050Y-91919751D01*
X53510340Y-91313689D01*
X53445028Y-92050045D01*
X54010785Y-91191785D01*
X54291443Y-91395286D02*
X54352476Y-91366826D01*
X54458258Y-91354652D01*
X54681994Y-91436085D01*
X54755202Y-91513406D01*
X54783662Y-91574440D01*
X54795836Y-91680221D01*
X54763263Y-91769716D01*
X54669656Y-91887671D01*
X53937248Y-92229198D01*
X54518963Y-92440925D01*
X55552427Y-92107623D02*
X55324414Y-92734085D01*
X55458984Y-91668212D02*
X54990948Y-92257987D01*
X55572662Y-92469714D01*
%TO.C,SW10*%
X56109798Y-52424092D02*
X56227753Y-52517699D01*
X56451489Y-52599132D01*
X56557270Y-52586958D01*
X56618304Y-52558498D01*
X56695625Y-52485290D01*
X56728198Y-52395795D01*
X56716024Y-52290014D01*
X56687564Y-52228980D01*
X56614356Y-52151660D01*
X56451653Y-52041766D01*
X56378446Y-51964445D01*
X56349985Y-51903411D01*
X56337811Y-51797630D01*
X56370384Y-51708135D01*
X56447705Y-51634928D01*
X56508739Y-51606467D01*
X56614520Y-51594293D01*
X56838256Y-51675726D01*
X56956212Y-51769334D01*
X57285729Y-51838593D02*
X57167445Y-52859719D01*
X57590735Y-52253657D01*
X57525423Y-52990013D01*
X58091180Y-52131753D01*
X58599358Y-53380893D02*
X58062391Y-53185453D01*
X58330874Y-53283173D02*
X58672894Y-52343480D01*
X58534540Y-52445148D01*
X58412472Y-52502070D01*
X58306691Y-52514244D01*
X59523093Y-52652927D02*
X59612587Y-52685500D01*
X59685795Y-52762821D01*
X59714256Y-52823855D01*
X59726429Y-52929636D01*
X59706030Y-53124912D01*
X59624597Y-53348648D01*
X59514703Y-53511350D01*
X59437382Y-53584558D01*
X59376348Y-53613019D01*
X59270567Y-53625193D01*
X59181072Y-53592619D01*
X59107865Y-53515299D01*
X59079404Y-53454265D01*
X59067230Y-53348484D01*
X59087629Y-53153208D01*
X59169063Y-52929472D01*
X59278957Y-52766769D01*
X59356277Y-52693561D01*
X59417311Y-52665101D01*
X59523093Y-52652927D01*
%TO.C,SW13*%
X109813231Y-71970545D02*
X109931186Y-72064152D01*
X110154922Y-72145585D01*
X110260703Y-72133411D01*
X110321737Y-72104951D01*
X110399058Y-72031743D01*
X110431631Y-71942248D01*
X110419457Y-71836467D01*
X110390997Y-71775433D01*
X110317789Y-71698113D01*
X110155086Y-71588219D01*
X110081879Y-71510898D01*
X110053418Y-71449864D01*
X110041244Y-71344083D01*
X110073817Y-71254588D01*
X110151138Y-71181381D01*
X110212172Y-71152920D01*
X110317953Y-71140746D01*
X110541689Y-71222179D01*
X110659645Y-71315787D01*
X110989162Y-71385046D02*
X110870878Y-72406172D01*
X111294168Y-71800110D01*
X111228856Y-72536466D01*
X111794613Y-71678206D01*
X112302791Y-72927346D02*
X111765824Y-72731906D01*
X112034307Y-72829626D02*
X112376327Y-71889933D01*
X112237973Y-71991601D01*
X112115905Y-72048523D01*
X112010124Y-72060697D01*
X112958042Y-72101660D02*
X113539756Y-72313387D01*
X113096232Y-72557358D01*
X113230474Y-72606218D01*
X113303682Y-72683539D01*
X113332142Y-72744573D01*
X113344316Y-72850354D01*
X113262883Y-73074090D01*
X113185562Y-73147298D01*
X113124528Y-73175759D01*
X113018747Y-73187932D01*
X112750264Y-73090212D01*
X112677056Y-73012892D01*
X112648595Y-72951858D01*
%TO.C,SW12*%
X91912086Y-65455060D02*
X92030041Y-65548667D01*
X92253777Y-65630100D01*
X92359558Y-65617926D01*
X92420592Y-65589466D01*
X92497913Y-65516258D01*
X92530486Y-65426763D01*
X92518312Y-65320982D01*
X92489852Y-65259948D01*
X92416644Y-65182628D01*
X92253941Y-65072734D01*
X92180734Y-64995413D01*
X92152273Y-64934379D01*
X92140099Y-64828598D01*
X92172672Y-64739103D01*
X92249993Y-64665896D01*
X92311027Y-64637435D01*
X92416808Y-64625261D01*
X92640544Y-64706694D01*
X92758500Y-64800302D01*
X93088017Y-64869561D02*
X92969733Y-65890687D01*
X93393023Y-65284625D01*
X93327711Y-66020981D01*
X93893468Y-65162721D01*
X94401646Y-66411861D02*
X93864679Y-66216421D01*
X94133162Y-66314141D02*
X94475182Y-65374448D01*
X94336828Y-65476116D01*
X94214760Y-65533038D01*
X94108979Y-65545212D01*
X95069071Y-65691956D02*
X95130105Y-65663495D01*
X95235886Y-65651321D01*
X95459622Y-65732755D01*
X95532830Y-65810075D01*
X95561291Y-65871109D01*
X95573465Y-65976891D01*
X95540891Y-66066385D01*
X95447284Y-66184340D01*
X94714877Y-66525867D01*
X95296591Y-66737594D01*
%TO.C,SW5*%
X94399755Y-46087913D02*
X94517710Y-46181521D01*
X94741447Y-46262954D01*
X94847228Y-46250780D01*
X94908262Y-46222320D01*
X94985583Y-46149112D01*
X95018156Y-46059617D01*
X95005982Y-45953836D01*
X94977521Y-45892802D01*
X94904313Y-45815481D01*
X94741611Y-45705587D01*
X94668403Y-45628267D01*
X94639943Y-45567233D01*
X94627769Y-45461452D01*
X94660342Y-45371957D01*
X94737663Y-45298749D01*
X94798697Y-45270289D01*
X94904478Y-45258115D01*
X95128214Y-45339548D01*
X95246169Y-45433155D01*
X95575687Y-45502415D02*
X95457403Y-46523541D01*
X95880692Y-45917479D01*
X95815381Y-46653834D01*
X96381138Y-45795575D01*
X97186588Y-46088735D02*
X96739116Y-45925868D01*
X96531502Y-46357054D01*
X96592536Y-46328594D01*
X96698317Y-46316420D01*
X96922053Y-46397853D01*
X96995261Y-46475174D01*
X97023722Y-46536208D01*
X97035896Y-46641989D01*
X96954462Y-46865725D01*
X96877142Y-46938933D01*
X96816108Y-46967394D01*
X96710327Y-46979568D01*
X96486590Y-46898134D01*
X96413382Y-46820814D01*
X96384922Y-46759780D01*
%TO.C,SW2*%
X33044549Y-37156355D02*
X33187406Y-37203974D01*
X33425502Y-37203974D01*
X33520740Y-37156355D01*
X33568359Y-37108736D01*
X33615978Y-37013498D01*
X33615978Y-36918260D01*
X33568359Y-36823022D01*
X33520740Y-36775403D01*
X33425502Y-36727784D01*
X33235025Y-36680165D01*
X33139787Y-36632546D01*
X33092168Y-36584927D01*
X33044549Y-36489689D01*
X33044549Y-36394451D01*
X33092168Y-36299213D01*
X33139787Y-36251594D01*
X33235025Y-36203974D01*
X33473121Y-36203974D01*
X33615978Y-36251594D01*
X33949311Y-36203974D02*
X34187406Y-37203974D01*
X34377883Y-36489689D01*
X34568359Y-37203974D01*
X34806454Y-36203974D01*
X35139787Y-36299213D02*
X35187406Y-36251594D01*
X35282644Y-36203974D01*
X35520740Y-36203974D01*
X35615978Y-36251594D01*
X35663597Y-36299213D01*
X35711216Y-36394451D01*
X35711216Y-36489689D01*
X35663597Y-36632546D01*
X35092168Y-37203974D01*
X35711216Y-37203974D01*
%TO.C,SW23*%
X26447766Y-95746400D02*
X26590623Y-95794019D01*
X26828718Y-95794019D01*
X26923956Y-95746400D01*
X26971575Y-95698781D01*
X27019194Y-95603543D01*
X27019194Y-95508305D01*
X26971575Y-95413067D01*
X26923956Y-95365448D01*
X26828718Y-95317829D01*
X26638242Y-95270210D01*
X26543004Y-95222591D01*
X26495385Y-95174972D01*
X26447766Y-95079734D01*
X26447766Y-94984496D01*
X26495385Y-94889258D01*
X26543004Y-94841639D01*
X26638242Y-94794019D01*
X26876337Y-94794019D01*
X27019194Y-94841639D01*
X27352528Y-94794019D02*
X27590623Y-95794019D01*
X27781099Y-95079734D01*
X27971575Y-95794019D01*
X28209670Y-94794019D01*
X28543004Y-94889258D02*
X28590623Y-94841639D01*
X28685861Y-94794019D01*
X28923956Y-94794019D01*
X29019194Y-94841639D01*
X29066813Y-94889258D01*
X29114432Y-94984496D01*
X29114432Y-95079734D01*
X29066813Y-95222591D01*
X28495385Y-95794019D01*
X29114432Y-95794019D01*
X29447766Y-94794019D02*
X30066813Y-94794019D01*
X29733480Y-95174972D01*
X29876337Y-95174972D01*
X29971575Y-95222591D01*
X30019194Y-95270210D01*
X30066813Y-95365448D01*
X30066813Y-95603543D01*
X30019194Y-95698781D01*
X29971575Y-95746400D01*
X29876337Y-95794019D01*
X29590623Y-95794019D01*
X29495385Y-95746400D01*
X29447766Y-95698781D01*
%TO.C,SW11*%
X74010942Y-58939577D02*
X74128897Y-59033184D01*
X74352633Y-59114617D01*
X74458414Y-59102443D01*
X74519448Y-59073983D01*
X74596769Y-59000775D01*
X74629342Y-58911280D01*
X74617168Y-58805499D01*
X74588708Y-58744465D01*
X74515500Y-58667145D01*
X74352797Y-58557251D01*
X74279590Y-58479930D01*
X74251129Y-58418896D01*
X74238955Y-58313115D01*
X74271528Y-58223620D01*
X74348849Y-58150413D01*
X74409883Y-58121952D01*
X74515664Y-58109778D01*
X74739400Y-58191211D01*
X74857356Y-58284819D01*
X75186873Y-58354078D02*
X75068589Y-59375204D01*
X75491879Y-58769142D01*
X75426567Y-59505498D01*
X75992324Y-58647238D01*
X76500502Y-59896378D02*
X75963535Y-59700938D01*
X76232018Y-59798658D02*
X76574038Y-58858965D01*
X76435684Y-58960633D01*
X76313616Y-59017555D01*
X76207835Y-59029729D01*
X77395447Y-60222111D02*
X76858480Y-60026671D01*
X77126964Y-60124391D02*
X77468984Y-59184698D01*
X77330629Y-59286367D01*
X77208561Y-59343288D01*
X77102780Y-59355462D01*
%TO.C,SW22*%
X6207289Y-95341639D02*
X6207289Y-94341639D01*
X6207289Y-107341639D02*
X6207289Y-108341639D01*
X20207289Y-108341639D02*
X20207289Y-107341639D01*
X19207289Y-108341639D02*
X20207289Y-108341639D01*
X6207289Y-94341639D02*
X7207289Y-94341639D01*
X20207289Y-94341639D02*
X19207289Y-94341639D01*
X6207289Y-108341639D02*
X7207289Y-108341639D01*
X20207289Y-94341639D02*
X20207289Y-95341639D01*
%TO.C,SW26*%
X100349165Y-107576163D02*
X100007145Y-108515855D01*
X82405187Y-115943577D02*
X83344879Y-116285597D01*
X82747207Y-115003885D02*
X82405187Y-115943577D01*
X94621191Y-120389839D02*
X95560883Y-120731859D01*
X86851449Y-103727573D02*
X87193469Y-102787881D01*
X87193469Y-102787881D02*
X88133161Y-103129901D01*
X95560883Y-120731859D02*
X95902903Y-119792167D01*
X100349165Y-107576163D02*
X99409473Y-107234143D01*
%TO.C,SW21*%
X124693935Y-97228526D02*
X125035955Y-96288834D01*
X125035955Y-96288834D02*
X125975647Y-96630854D01*
X138191651Y-101077116D02*
X137251959Y-100735096D01*
X120247673Y-109444530D02*
X121187365Y-109786550D01*
X120589693Y-108504838D02*
X120247673Y-109444530D01*
X132463677Y-113890792D02*
X133403369Y-114232812D01*
X138191651Y-101077116D02*
X137849631Y-102016808D01*
X133403369Y-114232812D02*
X133745389Y-113293120D01*
%TO.C,SW28*%
X130423477Y-133420806D02*
X131363169Y-133762826D01*
X131363169Y-133762826D02*
X131705189Y-132823134D01*
X118549493Y-128034852D02*
X118207473Y-128974544D01*
X136151451Y-120607130D02*
X135211759Y-120265110D01*
X122653735Y-116758540D02*
X122995755Y-115818848D01*
X122995755Y-115818848D02*
X123935447Y-116160868D01*
X118207473Y-128974544D02*
X119147165Y-129316564D01*
X136151451Y-120607130D02*
X135809431Y-121546822D01*
%TO.C,SW6*%
X111215205Y-50713318D02*
X112154897Y-51055338D01*
X118642927Y-68315276D02*
X119582619Y-68657296D01*
X106768943Y-62929322D02*
X106426923Y-63869014D01*
X110873185Y-51653010D02*
X111215205Y-50713318D01*
X124370901Y-55501600D02*
X123431209Y-55159580D01*
X119582619Y-68657296D02*
X119924639Y-67717604D01*
X106426923Y-63869014D02*
X107366615Y-64211034D01*
X124370901Y-55501600D02*
X124028881Y-56441292D01*
%TO.C,SW4*%
X70624634Y-50838048D02*
X71564326Y-51180068D01*
X83780330Y-55626330D02*
X84122350Y-54686638D01*
X75412916Y-37682352D02*
X76352608Y-38024372D01*
X75070896Y-38622044D02*
X75412916Y-37682352D01*
X82840638Y-55284310D02*
X83780330Y-55626330D01*
X88568612Y-42470634D02*
X88226592Y-43410326D01*
X70966654Y-49898356D02*
X70624634Y-50838048D01*
X88568612Y-42470634D02*
X87628920Y-42128614D01*
%TO.C,SW14*%
X122629889Y-88974823D02*
X122287869Y-89914515D01*
X140231847Y-81547101D02*
X139889827Y-82486793D01*
X126734131Y-77698511D02*
X127076151Y-76758819D01*
X127076151Y-76758819D02*
X128015843Y-77100839D01*
X140231847Y-81547101D02*
X139292155Y-81205081D01*
X135443565Y-94702797D02*
X135785585Y-93763105D01*
X122287869Y-89914515D02*
X123227561Y-90256535D01*
X134503873Y-94360777D02*
X135443565Y-94702797D01*
%TO.C,SW31*%
X57718395Y-127230906D02*
X58060415Y-126291214D01*
X56778703Y-126888886D02*
X57718395Y-127230906D01*
X62506677Y-114075210D02*
X62164657Y-115014902D01*
X49008961Y-110226620D02*
X49350981Y-109286928D01*
X49350981Y-109286928D02*
X50290673Y-109628948D01*
X44562699Y-122442624D02*
X45502391Y-122784644D01*
X62506677Y-114075210D02*
X61566985Y-113733190D01*
X44904719Y-121502932D02*
X44562699Y-122442624D01*
%TO.C,SW18*%
X78760241Y-94344340D02*
X79699933Y-94686360D01*
X71332519Y-76742382D02*
X72272211Y-77084402D01*
X66886257Y-88958386D02*
X66544237Y-89898078D01*
X84488215Y-81530664D02*
X83548523Y-81188644D01*
X84488215Y-81530664D02*
X84146195Y-82470356D01*
X79699933Y-94686360D02*
X80041953Y-93746668D01*
X70990499Y-77682074D02*
X71332519Y-76742382D01*
X66544237Y-89898078D02*
X67483929Y-90240098D01*
%TO.C,J1*%
X151984647Y-59672601D02*
X147965911Y-70713989D01*
X147965911Y-70713989D02*
X142515693Y-68730272D01*
X142515693Y-68730272D02*
X146534430Y-57688884D01*
X146534430Y-57688884D02*
X151984647Y-59672601D01*
%TO.C,SW32*%
X77150080Y-129541268D02*
X76210388Y-129199248D01*
X59206102Y-137908682D02*
X60145794Y-138250702D01*
X71422106Y-142354944D02*
X72361798Y-142696964D01*
X77150080Y-129541268D02*
X76808060Y-130480960D01*
X63652364Y-125692678D02*
X63994384Y-124752986D01*
X59548122Y-136968990D02*
X59206102Y-137908682D01*
X72361798Y-142696964D02*
X72703818Y-141757272D01*
X63994384Y-124752986D02*
X64934076Y-125095006D01*
%TO.C,SW7*%
X136544071Y-74830761D02*
X137483763Y-75172781D01*
X142272045Y-62017085D02*
X141930025Y-62956777D01*
X124670087Y-69444807D02*
X124328067Y-70384499D01*
X128774329Y-58168495D02*
X129116349Y-57228803D01*
X142272045Y-62017085D02*
X141332353Y-61675065D01*
X129116349Y-57228803D02*
X130056041Y-57570823D01*
X137483763Y-75172781D02*
X137825783Y-74233089D01*
X124328067Y-70384499D02*
X125267759Y-70726519D01*
%TO.C,SW16*%
X41297487Y-74811624D02*
X41297487Y-75811624D01*
X27297487Y-75811624D02*
X27297487Y-74811624D01*
X27297487Y-87811624D02*
X27297487Y-88811624D01*
X27297487Y-74811624D02*
X28297487Y-74811624D01*
X41297487Y-88811624D02*
X41297487Y-87811624D01*
X41297487Y-74811624D02*
X40297487Y-74811624D01*
X40297487Y-88811624D02*
X41297487Y-88811624D01*
X27297487Y-88811624D02*
X28297487Y-88811624D01*
%TO.C,SW33*%
X80364988Y-135473591D02*
X81304680Y-135815611D01*
X84811250Y-123257587D02*
X85153270Y-122317895D01*
X93520684Y-140261873D02*
X93862704Y-139322181D01*
X98308966Y-127106177D02*
X97369274Y-126764157D01*
X85153270Y-122317895D02*
X86092962Y-122659915D01*
X80707008Y-134533899D02*
X80364988Y-135473591D01*
X92580992Y-139919853D02*
X93520684Y-140261873D01*
X98308966Y-127106177D02*
X97966946Y-128045869D01*
%TO.C,SW19*%
X102389362Y-88046148D02*
X101449670Y-87704128D01*
X88891646Y-84197558D02*
X89233666Y-83257866D01*
X84445384Y-96413562D02*
X85385076Y-96755582D01*
X96661388Y-100859824D02*
X97601080Y-101201844D01*
X84787404Y-95473870D02*
X84445384Y-96413562D01*
X97601080Y-101201844D02*
X97943100Y-100262152D01*
X102389362Y-88046148D02*
X102047342Y-88985840D01*
X89233666Y-83257866D02*
X90173358Y-83599886D01*
%TO.C,SW1*%
X12327882Y-36751593D02*
X12327882Y-35751593D01*
X26327882Y-35751593D02*
X25327882Y-35751593D01*
X12327882Y-35751593D02*
X13327882Y-35751593D01*
X26327882Y-35751593D02*
X26327882Y-36751593D01*
X26327882Y-49751593D02*
X26327882Y-48751593D01*
X12327882Y-48751593D02*
X12327882Y-49751593D01*
X12327882Y-49751593D02*
X13327882Y-49751593D01*
X25327882Y-49751593D02*
X26327882Y-49751593D01*
%TO.C,SW15*%
X8247487Y-74811623D02*
X9247487Y-74811623D01*
X22247487Y-74811623D02*
X21247487Y-74811623D01*
X22247487Y-74811623D02*
X22247487Y-75811623D01*
X8247487Y-75811623D02*
X8247487Y-74811623D01*
X22247487Y-88811623D02*
X22247487Y-87811623D01*
X21247487Y-88811623D02*
X22247487Y-88811623D01*
X8247487Y-87811623D02*
X8247487Y-88811623D01*
X8247487Y-88811623D02*
X9247487Y-88811623D01*
%TO.C,SW25*%
X82448018Y-101060679D02*
X81508326Y-100718659D01*
X64504040Y-109428093D02*
X65443732Y-109770113D01*
X64846060Y-108488401D02*
X64504040Y-109428093D01*
X68950302Y-97212089D02*
X69292322Y-96272397D01*
X77659736Y-114216375D02*
X78001756Y-113276683D01*
X69292322Y-96272397D02*
X70232014Y-96614417D01*
X82448018Y-101060679D02*
X82105998Y-102000371D01*
X76720044Y-113874355D02*
X77659736Y-114216375D01*
%TO.C,SW29*%
X18167090Y-127871656D02*
X18167090Y-126871656D01*
X4167090Y-114871656D02*
X4167090Y-113871656D01*
X18167090Y-113871656D02*
X18167090Y-114871656D01*
X17167090Y-127871656D02*
X18167090Y-127871656D01*
X4167090Y-113871656D02*
X5167090Y-113871656D01*
X4167090Y-127871656D02*
X5167090Y-127871656D01*
X18167090Y-113871656D02*
X17167090Y-113871656D01*
X4167090Y-126871656D02*
X4167090Y-127871656D01*
%TO.C,SW35*%
X120955558Y-135348863D02*
X121895250Y-135690883D01*
X116167276Y-148504559D02*
X117106968Y-148846579D01*
X134111254Y-140137145D02*
X133769234Y-141076837D01*
X120613538Y-136288555D02*
X120955558Y-135348863D01*
X128383280Y-152950821D02*
X129322972Y-153292841D01*
X116509296Y-147564867D02*
X116167276Y-148504559D01*
X129322972Y-153292841D02*
X129664992Y-152353149D01*
X134111254Y-140137145D02*
X133171562Y-139795125D01*
%TO.C,SW9*%
X43337685Y-55281607D02*
X42337685Y-55281607D01*
X29337685Y-68281607D02*
X29337685Y-69281607D01*
X43337685Y-55281607D02*
X43337685Y-56281607D01*
X43337685Y-69281607D02*
X43337685Y-68281607D01*
X29337685Y-55281607D02*
X30337685Y-55281607D01*
X42337685Y-69281607D02*
X43337685Y-69281607D01*
X29337685Y-69281607D02*
X30337685Y-69281607D01*
X29337685Y-56281607D02*
X29337685Y-55281607D01*
%TO.C,SW27*%
X118250307Y-114091646D02*
X117908287Y-115031338D01*
X105094611Y-109303364D02*
X106034303Y-109645384D01*
X118250307Y-114091646D02*
X117310615Y-113749626D01*
X100648349Y-121519368D02*
X100306329Y-122459060D01*
X112522333Y-126905322D02*
X113462025Y-127247342D01*
X104752591Y-110243056D02*
X105094611Y-109303364D01*
X100306329Y-122459060D02*
X101246021Y-122801080D01*
X113462025Y-127247342D02*
X113804045Y-126307650D01*
%TO.C,SW34*%
X116210109Y-133621662D02*
X115868089Y-134561354D01*
X116210109Y-133621662D02*
X115270417Y-133279642D01*
X102712393Y-129773072D02*
X103054413Y-128833380D01*
X98266131Y-141989076D02*
X99205823Y-142331096D01*
X110482135Y-146435338D02*
X111421827Y-146777358D01*
X103054413Y-128833380D02*
X103994105Y-129175400D01*
X98608151Y-141049384D02*
X98266131Y-141989076D01*
X111421827Y-146777358D02*
X111763847Y-145837666D01*
%TO.C,SW20*%
X102346524Y-102929045D02*
X103286216Y-103271065D01*
X106792786Y-90713041D02*
X107134806Y-89773349D01*
X107134806Y-89773349D02*
X108074498Y-90115369D01*
X114562528Y-107375307D02*
X115502220Y-107717327D01*
X120290502Y-94561631D02*
X119350810Y-94219611D01*
X120290502Y-94561631D02*
X119948482Y-95501323D01*
X115502220Y-107717327D02*
X115844240Y-106777635D01*
X102688544Y-101989353D02*
X102346524Y-102929045D01*
%TO.C,SW17*%
X61798790Y-88170877D02*
X62140810Y-87231185D01*
X48985114Y-82442903D02*
X48643094Y-83382595D01*
X53431376Y-70226899D02*
X54371068Y-70568919D01*
X60859098Y-87828857D02*
X61798790Y-88170877D01*
X48643094Y-83382595D02*
X49582786Y-83724615D01*
X53089356Y-71166591D02*
X53431376Y-70226899D01*
X66587072Y-75015181D02*
X65647380Y-74673161D01*
X66587072Y-75015181D02*
X66245052Y-75954873D01*
%TO.C,SW3*%
X70667469Y-35955150D02*
X70325449Y-36894842D01*
X57169753Y-32106560D02*
X57511773Y-31166868D01*
X64939495Y-48768826D02*
X65879187Y-49110846D01*
X57511773Y-31166868D02*
X58451465Y-31508888D01*
X53065511Y-43382872D02*
X52723491Y-44322564D01*
X65879187Y-49110846D02*
X66221207Y-48171154D01*
X70667469Y-35955150D02*
X69727777Y-35613130D01*
X52723491Y-44322564D02*
X53663183Y-44664584D01*
%TO.C,SW30*%
X23217091Y-114871655D02*
X23217091Y-113871655D01*
X37217091Y-113871655D02*
X36217091Y-113871655D01*
X37217091Y-127871655D02*
X37217091Y-126871655D01*
X37217091Y-113871655D02*
X37217091Y-114871655D01*
X23217091Y-126871655D02*
X23217091Y-127871655D01*
X23217091Y-113871655D02*
X24217091Y-113871655D01*
X36217091Y-127871655D02*
X37217091Y-127871655D01*
X23217091Y-127871655D02*
X24217091Y-127871655D01*
%TO.C,SW8*%
X10287684Y-56281608D02*
X10287684Y-55281608D01*
X24287684Y-69281608D02*
X24287684Y-68281608D01*
X24287684Y-55281608D02*
X24287684Y-56281608D01*
X10287684Y-68281608D02*
X10287684Y-69281608D01*
X23287684Y-69281608D02*
X24287684Y-69281608D01*
X10287684Y-69281608D02*
X11287684Y-69281608D01*
X24287684Y-55281608D02*
X23287684Y-55281608D01*
X10287684Y-55281608D02*
X11287684Y-55281608D01*
%TO.C,SW24*%
X58818901Y-107358871D02*
X59758593Y-107700891D01*
X59758593Y-107700891D02*
X60100613Y-106761199D01*
X64546875Y-94545195D02*
X63607183Y-94203175D01*
X51049159Y-90696605D02*
X51391179Y-89756913D01*
X51391179Y-89756913D02*
X52330871Y-90098933D01*
X46602897Y-102912609D02*
X47542589Y-103254629D01*
X64546875Y-94545195D02*
X64204855Y-95484887D01*
X46944917Y-101972917D02*
X46602897Y-102912609D01*
%TO.C,SW10*%
X55471574Y-50696881D02*
X56411266Y-51038901D01*
X63838988Y-68640859D02*
X64181008Y-67701167D01*
X68627270Y-55485163D02*
X67687578Y-55143143D01*
X51025312Y-62912885D02*
X50683292Y-63852577D01*
X50683292Y-63852577D02*
X51622984Y-64194597D01*
X68627270Y-55485163D02*
X68285250Y-56424855D01*
X62899296Y-68298839D02*
X63838988Y-68640859D01*
X55129554Y-51636573D02*
X55471574Y-50696881D01*
%TO.C,SW13*%
X117542421Y-88187312D02*
X117884441Y-87247620D01*
X104386725Y-83399030D02*
X105326417Y-83741050D01*
X108832987Y-71183026D02*
X109175007Y-70243334D01*
X122330703Y-75031616D02*
X121988683Y-75971308D01*
X109175007Y-70243334D02*
X110114699Y-70585354D01*
X116602729Y-87845292D02*
X117542421Y-88187312D01*
X104728745Y-82459338D02*
X104386725Y-83399030D01*
X122330703Y-75031616D02*
X121391011Y-74689596D01*
%TO.C,SW12*%
X90931842Y-64667541D02*
X91273862Y-63727849D01*
X98701584Y-81329807D02*
X99641276Y-81671827D01*
X99641276Y-81671827D02*
X99983296Y-80732135D01*
X91273862Y-63727849D02*
X92213554Y-64069869D01*
X86827600Y-75943853D02*
X86485580Y-76883545D01*
X104429558Y-68516131D02*
X104087538Y-69455823D01*
X104429558Y-68516131D02*
X103489866Y-68174111D01*
X86485580Y-76883545D02*
X87425272Y-77225565D01*
%TO.C,SW5*%
X100741781Y-61799794D02*
X101681473Y-62141814D01*
X88525777Y-57353532D02*
X89465469Y-57695552D01*
X88867797Y-56413840D02*
X88525777Y-57353532D01*
X106469755Y-48986118D02*
X106127735Y-49925810D01*
X101681473Y-62141814D02*
X102023493Y-61202122D01*
X93314059Y-44197836D02*
X94253751Y-44539856D01*
X92972039Y-45137528D02*
X93314059Y-44197836D01*
X106469755Y-48986118D02*
X105530063Y-48644098D01*
%TO.C,SW2*%
X31377883Y-35751594D02*
X32377883Y-35751594D01*
X44377883Y-49751594D02*
X45377883Y-49751594D01*
X31377883Y-36751594D02*
X31377883Y-35751594D01*
X31377883Y-48751594D02*
X31377883Y-49751594D01*
X45377883Y-35751594D02*
X45377883Y-36751594D01*
X31377883Y-49751594D02*
X32377883Y-49751594D01*
X45377883Y-35751594D02*
X44377883Y-35751594D01*
X45377883Y-49751594D02*
X45377883Y-48751594D01*
%TO.C,SW23*%
X38257290Y-108341639D02*
X39257290Y-108341639D01*
X25257290Y-95341639D02*
X25257290Y-94341639D01*
X25257290Y-94341639D02*
X26257290Y-94341639D01*
X39257290Y-94341639D02*
X38257290Y-94341639D01*
X39257290Y-94341639D02*
X39257290Y-95341639D01*
X25257290Y-107341639D02*
X25257290Y-108341639D01*
X25257290Y-108341639D02*
X26257290Y-108341639D01*
X39257290Y-108341639D02*
X39257290Y-107341639D01*
%TO.C,SW11*%
X81740132Y-75156344D02*
X82082152Y-74216652D01*
X68584436Y-70368062D02*
X69524128Y-70710082D01*
X73372718Y-57212366D02*
X74312410Y-57554386D01*
X80800440Y-74814324D02*
X81740132Y-75156344D01*
X68926456Y-69428370D02*
X68584436Y-70368062D01*
X73030698Y-58152058D02*
X73372718Y-57212366D01*
X86528414Y-62000648D02*
X85588722Y-61658628D01*
X86528414Y-62000648D02*
X86186394Y-62940340D01*
%TD*%
M02*
