M48
METRIC,TZ
T1C0.400
T2C0.762
T3C0.800
T4C0.813
T5C1.300
T6C4.400
%
G90
G05
T1
X34508Y-72008
X35108Y-45308
X54622Y-50625
X56008Y-28008
X70418Y-52029
X86058Y-38408
X90418Y-58779
X91058Y-43208
X108168Y-65279
X126227Y-71090
X134638Y-116002
X134918Y-55022
T2
X4082Y-116122
X6122Y-96592
X8162Y-77062
X10203Y-57532
X12243Y-38002
X23132Y-116122
X25172Y-96592
X27212Y-77062
X29253Y-57532
X31293Y-38002
X48502Y-111372
X50542Y-91842
X52582Y-72312
X54622Y-52782
X56662Y-33252
X63145Y-126838
X68443Y-98358
X70483Y-78828
X72523Y-59298
X74563Y-39768
X84304Y-124403
X86344Y-104873
X88384Y-85343
X90424Y-65813
X92465Y-46283
X102205Y-130919
X104245Y-111389
X106285Y-91859
X108326Y-72329
X110366Y-52799
X120106Y-137434
X122146Y-117904
X124187Y-98374
X126227Y-78844
X128267Y-59314
T4
X11708Y-35132
X11708Y-50372
X14248Y-35132
X14248Y-50372
X16788Y-35122
X16788Y-50372
X19328Y-35122
X19328Y-50372
X19427Y-118642
X19427Y-125642
X21467Y-99112
X21467Y-106112
X21868Y-35122
X21868Y-50372
X23507Y-79582
X23507Y-86582
X24408Y-35122
X24408Y-50382
X25548Y-60052
X25548Y-67052
X26948Y-35122
X26948Y-50382
X27588Y-40522
X27588Y-47522
X29488Y-35122
X29488Y-50382
X32028Y-35122
X32028Y-50382
X34568Y-35122
X34568Y-50382
X37108Y-35122
X37108Y-50382
X38477Y-118642
X38477Y-125642
X39648Y-35122
X39648Y-50382
X40517Y-99112
X40517Y-106112
X42188Y-35122
X42188Y-50382
X42582Y-79582
X42582Y-86582
X44598Y-60052
X44598Y-67052
X46638Y-40522
X46638Y-47522
X59665Y-125566
X61854Y-106036
X62059Y-118988
X63746Y-86506
X64249Y-99458
X65786Y-66976
X66140Y-79928
X67826Y-47446
X68180Y-60398
X70220Y-40868
X74309Y-141032
X76703Y-134455
X79606Y-112552
X81647Y-93022
X82001Y-105974
X83687Y-73492
X84041Y-86444
X85727Y-53962
X86081Y-66914
X88121Y-47384
X95467Y-138597
X97508Y-119067
X97862Y-132019
X99548Y-99537
X99902Y-112489
X101588Y-80007
X101942Y-92959
X103628Y-60477
X103982Y-73429
X106022Y-53899
X113369Y-145113
X115409Y-125583
X115763Y-138535
X117449Y-106053
X117803Y-119005
X119489Y-86523
X119843Y-99475
X121529Y-66993
X121883Y-79945
X123923Y-60415
X131270Y-151628
X133310Y-132098
X133664Y-145050
X135350Y-112805
X135704Y-125520
X137390Y-93038
X137744Y-106227
X139430Y-73508
X139784Y-86460
X141825Y-66930
T5
X70011Y-119188
X76119Y-121411
T6
X2747Y-81812
X20692Y-130397
X73904Y-34446
X127607Y-53992
T3
G00X143421Y-68581
M15
G01X143182Y-69239
M16
G05
G00X147881Y-68608
M15
G01X147642Y-69266
M16
G05
G00X149249Y-64849
M15
G01X149010Y-65507
M16
G05
G00X150275Y-62030
M15
G01X150036Y-62688
M16
G05
T0
M30
