M48
METRIC,TZ
T1C1.200
T2C1.900
T3C3.000
T4C4.100
%
G90
G05
T1
X146404Y-66527
X148798Y-59949
T2
X6087Y-120872
X8127Y-101342
X10167Y-81812
X12208Y-62282
X14248Y-42752
X16247Y-120872
X18287Y-101342
X20327Y-81812
X22368Y-62282
X24408Y-42752
X25137Y-120872
X27177Y-101342
X29217Y-81812
X31258Y-62282
X33298Y-42752
X35297Y-120872
X37337Y-101342
X39377Y-81812
X41418Y-62282
X43458Y-42752
X48761Y-116521
X50801Y-96991
X52841Y-77461
X54882Y-57931
X56922Y-38401
X58308Y-119996
X60349Y-100466
X62389Y-80936
X63404Y-131988
X64429Y-61406
X66469Y-41876
X68702Y-103507
X70743Y-83977
X72783Y-64447
X72952Y-135462
X74823Y-44917
X78250Y-106982
X80290Y-87452
X82330Y-67922
X84370Y-48392
X84563Y-129552
X86604Y-110022
X88644Y-90492
X90684Y-70962
X92724Y-51432
X94111Y-133027
X96151Y-113497
X98191Y-93967
X100231Y-74437
X102271Y-54907
X102464Y-136068
X104505Y-116538
X106545Y-97008
X108585Y-77478
X110625Y-57948
X112012Y-139543
X114052Y-120013
X116092Y-100483
X118132Y-80953
X120173Y-61423
X120366Y-142583
X122406Y-123053
X124446Y-103523
X126486Y-83993
X128526Y-64463
X129913Y-146058
X131953Y-126528
X133993Y-106998
X136033Y-87468
X138074Y-67938
T3
X7357Y-118332
X9397Y-98802
X11437Y-79272
X13478Y-59742
X13707Y-115792
X15518Y-40212
X15747Y-96262
X17787Y-76732
X19828Y-57202
X21868Y-37672
X26407Y-118332
X28447Y-98802
X30487Y-79272
X32528Y-59742
X32757Y-115792
X34568Y-40212
X34797Y-96262
X36837Y-76732
X38878Y-57202
X40918Y-37672
X50823Y-114569
X52863Y-95039
X54904Y-75509
X56944Y-55979
X57659Y-114354
X58984Y-36449
X59699Y-94824
X61739Y-75294
X63780Y-55764
X65467Y-130035
X65820Y-36234
X70765Y-101554
X72302Y-129820
X72805Y-82024
X74845Y-62494
X76885Y-42964
X77600Y-101339
X79641Y-81809
X81681Y-62279
X83721Y-42749
X86625Y-127600
X88666Y-108070
X90706Y-88540
X92746Y-69010
X93461Y-127385
X94786Y-49480
X95501Y-107855
X97542Y-88325
X99582Y-68795
X101622Y-49265
X104527Y-134115
X106567Y-114585
X108607Y-95055
X110647Y-75525
X111362Y-133900
X112687Y-55995
X113403Y-114370
X115443Y-94840
X117483Y-75310
X119523Y-55780
X122428Y-140631
X124468Y-121101
X126508Y-101571
X128548Y-82041
X129264Y-140416
X130589Y-62511
X131304Y-120886
X133344Y-101356
X135384Y-81826
X137424Y-62296
T4
X11167Y-120872
X13207Y-101342
X15247Y-81812
X17288Y-62282
X19328Y-42752
X30217Y-120872
X32257Y-101342
X34297Y-81812
X36338Y-62282
X38378Y-42752
X53535Y-118259
X55575Y-98729
X57615Y-79199
X59655Y-59669
X61695Y-40139
X68178Y-133725
X73476Y-105244
X75516Y-85714
X77556Y-66184
X79597Y-46654
X89337Y-131290
X91377Y-111760
X93417Y-92230
X95458Y-72700
X97498Y-53170
X107238Y-137805
X109278Y-118275
X111319Y-98745
X113359Y-79215
X115399Y-59685
X125139Y-144321
X127179Y-124791
X129220Y-105261
X131260Y-85731
X133300Y-66201
T0
M30
