%TF.GenerationSoftware,KiCad,Pcbnew,(6.0.5)*%
%TF.CreationDate,2022-06-09T21:08:53+09:00*%
%TF.ProjectId,KEMgonomics,4b454d67-6f6e-46f6-9d69-63732e6b6963,rev?*%
%TF.SameCoordinates,Original*%
%TF.FileFunction,Legend,Bot*%
%TF.FilePolarity,Positive*%
%FSLAX46Y46*%
G04 Gerber Fmt 4.6, Leading zero omitted, Abs format (unit mm)*
G04 Created by KiCad (PCBNEW (6.0.5)) date 2022-06-09 21:08:53*
%MOMM*%
%LPD*%
G01*
G04 APERTURE LIST*
%ADD10C,0.125000*%
%ADD11C,0.150000*%
%ADD12C,0.120000*%
%ADD13C,0.300000*%
%ADD14C,3.500000*%
%ADD15C,1.000000*%
%ADD16C,0.800000*%
%ADD17C,0.500000*%
%ADD18C,3.000000*%
%ADD19C,0.400000*%
%ADD20C,0.100000*%
%ADD21C,1.524000*%
G04 APERTURE END LIST*
D10*
%TO.C,D31*%
X60024179Y-128130142D02*
X60366200Y-127190449D01*
X60142463Y-127109016D01*
X59991935Y-127104903D01*
X59869867Y-127161824D01*
X59792546Y-127235032D01*
X59682652Y-127397734D01*
X59633792Y-127531976D01*
X59613393Y-127727252D01*
X59625567Y-127833033D01*
X59682488Y-127955101D01*
X59800443Y-128048708D01*
X60024179Y-128130142D01*
X59516001Y-126881002D02*
X58934287Y-126669276D01*
X59117224Y-127141260D01*
X58982983Y-127092400D01*
X58877201Y-127104574D01*
X58816168Y-127133035D01*
X58738847Y-127206243D01*
X58657414Y-127429979D01*
X58669587Y-127535760D01*
X58698048Y-127596794D01*
X58771256Y-127674115D01*
X59039740Y-127771835D01*
X59145521Y-127759661D01*
X59206555Y-127731200D01*
X57697322Y-127283235D02*
X58234289Y-127478675D01*
X57965805Y-127380955D02*
X58307825Y-126441262D01*
X58348460Y-126608077D01*
X58405381Y-126730145D01*
X58478589Y-126807466D01*
%TO.C,D19*%
X99906864Y-102101080D02*
X100248885Y-101161387D01*
X100025148Y-101079954D01*
X99874620Y-101075841D01*
X99752552Y-101132762D01*
X99675231Y-101205970D01*
X99565337Y-101368672D01*
X99516477Y-101502914D01*
X99496078Y-101698190D01*
X99508252Y-101803971D01*
X99565173Y-101926039D01*
X99683128Y-102019646D01*
X99906864Y-102101080D01*
X98474952Y-101579906D02*
X99011919Y-101775346D01*
X98743435Y-101677626D02*
X99085456Y-100737934D01*
X99126090Y-100904749D01*
X99183011Y-101026817D01*
X99256219Y-101104137D01*
X98027479Y-101417039D02*
X97848490Y-101351893D01*
X97775282Y-101274572D01*
X97746822Y-101213538D01*
X97706187Y-101046723D01*
X97726587Y-100851447D01*
X97856880Y-100493469D01*
X97934201Y-100420261D01*
X97995235Y-100391801D01*
X98101016Y-100379627D01*
X98280005Y-100444773D01*
X98353213Y-100522094D01*
X98381673Y-100583128D01*
X98393847Y-100688909D01*
X98312414Y-100912646D01*
X98235093Y-100985853D01*
X98174059Y-101014314D01*
X98068278Y-101026488D01*
X97889289Y-100961341D01*
X97816081Y-100884021D01*
X97787621Y-100822987D01*
X97775447Y-100717205D01*
%TO.C,D35*%
X131628756Y-154192077D02*
X131970777Y-153252384D01*
X131747040Y-153170951D01*
X131596512Y-153166838D01*
X131474444Y-153223759D01*
X131397123Y-153296967D01*
X131287229Y-153459669D01*
X131238369Y-153593911D01*
X131217970Y-153789187D01*
X131230144Y-153894968D01*
X131287065Y-154017036D01*
X131405020Y-154110643D01*
X131628756Y-154192077D01*
X131120578Y-152942937D02*
X130538864Y-152731211D01*
X130721801Y-153203195D01*
X130587560Y-153154335D01*
X130481778Y-153166509D01*
X130420745Y-153194970D01*
X130343424Y-153268178D01*
X130261991Y-153491914D01*
X130274164Y-153597695D01*
X130302625Y-153658729D01*
X130375833Y-153736050D01*
X130644317Y-153833770D01*
X130750098Y-153821596D01*
X130811132Y-153793135D01*
X129688666Y-152421764D02*
X130136139Y-152584630D01*
X130018019Y-153048390D01*
X129989559Y-152987356D01*
X129916351Y-152910035D01*
X129692614Y-152828602D01*
X129586833Y-152840776D01*
X129525799Y-152869236D01*
X129448479Y-152942444D01*
X129367045Y-153166181D01*
X129379219Y-153271962D01*
X129407680Y-153332996D01*
X129480888Y-153410316D01*
X129704624Y-153491750D01*
X129810405Y-153479576D01*
X129871439Y-153451115D01*
D11*
%TO.C,RSW1*%
X74274772Y-121220959D02*
X74750869Y-120887493D01*
X74811739Y-121416399D02*
X75153759Y-120476707D01*
X74795781Y-120346413D01*
X74690000Y-120358587D01*
X74628966Y-120387048D01*
X74551645Y-120460256D01*
X74502785Y-120594497D01*
X74514959Y-120700279D01*
X74543420Y-120761312D01*
X74616628Y-120838633D01*
X74974606Y-120968926D01*
X74051200Y-120582159D02*
X73737969Y-120468152D01*
X73424574Y-120911512D02*
X73872046Y-121074379D01*
X74214066Y-120134686D01*
X73766594Y-119971820D01*
X73082882Y-120736472D02*
X72932354Y-120732359D01*
X72708617Y-120650926D01*
X72635410Y-120573605D01*
X72606949Y-120512571D01*
X72594775Y-120406790D01*
X72627348Y-120317295D01*
X72704669Y-120244087D01*
X72765703Y-120215627D01*
X72871484Y-120203453D01*
X73066760Y-120223852D01*
X73172541Y-120211678D01*
X73233575Y-120183218D01*
X73310896Y-120110010D01*
X73343469Y-120020515D01*
X73331295Y-119914734D01*
X73302834Y-119853700D01*
X73229627Y-119776380D01*
X73005890Y-119694946D01*
X72855362Y-119690833D01*
X72306056Y-119946979D02*
X71992825Y-119832972D01*
X71679430Y-120276332D02*
X72126903Y-120439199D01*
X72468923Y-119499506D01*
X72021450Y-119336639D01*
X71752967Y-119238919D02*
X71216000Y-119043479D01*
X71142463Y-120080892D02*
X71484483Y-119141199D01*
%TO.C,J3*%
X131513415Y-110897657D02*
X130858164Y-111723343D01*
X130886953Y-110669643D01*
X129727308Y-111210395D02*
X129755769Y-111271429D01*
X129873724Y-111365036D01*
X129963218Y-111397609D01*
X130113747Y-111401722D01*
X130235815Y-111344801D01*
X130313135Y-111271593D01*
X130423029Y-111108891D01*
X130471889Y-110974649D01*
X130492289Y-110779373D01*
X130480115Y-110673592D01*
X130423194Y-110551524D01*
X130305239Y-110457917D01*
X130215744Y-110425343D01*
X130065216Y-110421230D01*
X130004182Y-110449691D01*
X128787615Y-110868374D02*
X128816076Y-110929408D01*
X128934031Y-111023016D01*
X129023526Y-111055589D01*
X129174054Y-111059702D01*
X129296122Y-111002781D01*
X129373443Y-110929573D01*
X129483337Y-110766870D01*
X129532197Y-110632629D01*
X129552596Y-110437353D01*
X129540422Y-110331572D01*
X129483501Y-110209504D01*
X129365546Y-110115896D01*
X129276051Y-110083323D01*
X129125523Y-110079210D01*
X129064489Y-110107671D01*
X129643601Y-113899156D02*
X130091074Y-114062022D01*
X130433094Y-113122330D01*
X129509524Y-113292929D02*
X129196293Y-113178922D01*
X128882898Y-113622282D02*
X129330370Y-113785149D01*
X129672390Y-112845456D01*
X129224918Y-112682590D01*
X128480172Y-113475702D02*
X128822192Y-112536010D01*
X128598456Y-112454576D01*
X128447928Y-112450463D01*
X128325860Y-112507385D01*
X128248539Y-112580592D01*
X128138645Y-112743295D01*
X128089785Y-112877537D01*
X128069386Y-113072812D01*
X128081560Y-113178594D01*
X128138481Y-113300661D01*
X128256436Y-113394269D01*
X128480172Y-113475702D01*
X129279944Y-115509512D02*
X129385725Y-115497338D01*
X129519967Y-115546198D01*
X129637922Y-115639805D01*
X129694843Y-115761873D01*
X129707017Y-115867654D01*
X129686618Y-116062930D01*
X129637758Y-116197172D01*
X129527864Y-116359874D01*
X129450543Y-116433082D01*
X129328475Y-116490003D01*
X129177947Y-116485891D01*
X129088452Y-116453317D01*
X128970497Y-116359710D01*
X128942036Y-116298676D01*
X129056043Y-115985445D01*
X129235032Y-116050592D01*
X128506738Y-116241591D02*
X128848758Y-115301898D01*
X127969770Y-116046151D01*
X128311791Y-115106458D01*
X127522298Y-115883284D02*
X127864318Y-114943591D01*
X127640582Y-114862158D01*
X127490053Y-114858045D01*
X127367985Y-114914966D01*
X127290665Y-114988174D01*
X127180771Y-115150876D01*
X127131911Y-115285118D01*
X127111511Y-115480394D01*
X127123685Y-115586175D01*
X127180606Y-115708243D01*
X127298561Y-115801850D01*
X127522298Y-115883284D01*
D10*
%TO.C,D1*%
X26325977Y-47973973D02*
X26325977Y-46973973D01*
X26087882Y-46973973D01*
X25945024Y-47021593D01*
X25849786Y-47116831D01*
X25802167Y-47212069D01*
X25754548Y-47402545D01*
X25754548Y-47545402D01*
X25802167Y-47735878D01*
X25849786Y-47831116D01*
X25945024Y-47926354D01*
X26087882Y-47973973D01*
X26325977Y-47973973D01*
X24802167Y-47973973D02*
X25373596Y-47973973D01*
X25087882Y-47973973D02*
X25087882Y-46973973D01*
X25183120Y-47116831D01*
X25278358Y-47212069D01*
X25373596Y-47259688D01*
%TO.C,D8*%
X26285779Y-69337988D02*
X26285779Y-68337988D01*
X26047684Y-68337988D01*
X25904826Y-68385608D01*
X25809588Y-68480846D01*
X25761969Y-68576084D01*
X25714350Y-68766560D01*
X25714350Y-68909417D01*
X25761969Y-69099893D01*
X25809588Y-69195131D01*
X25904826Y-69290369D01*
X26047684Y-69337988D01*
X26285779Y-69337988D01*
X25142922Y-68766560D02*
X25238160Y-68718941D01*
X25285779Y-68671322D01*
X25333398Y-68576084D01*
X25333398Y-68528465D01*
X25285779Y-68433227D01*
X25238160Y-68385608D01*
X25142922Y-68337988D01*
X24952445Y-68337988D01*
X24857207Y-68385608D01*
X24809588Y-68433227D01*
X24761969Y-68528465D01*
X24761969Y-68576084D01*
X24809588Y-68671322D01*
X24857207Y-68718941D01*
X24952445Y-68766560D01*
X25142922Y-68766560D01*
X25238160Y-68814179D01*
X25285779Y-68861798D01*
X25333398Y-68957036D01*
X25333398Y-69147512D01*
X25285779Y-69242750D01*
X25238160Y-69290369D01*
X25142922Y-69337988D01*
X24952445Y-69337988D01*
X24857207Y-69290369D01*
X24809588Y-69242750D01*
X24761969Y-69147512D01*
X24761969Y-68957036D01*
X24809588Y-68861798D01*
X24857207Y-68814179D01*
X24952445Y-68766560D01*
%TO.C,D2*%
X47375978Y-49807974D02*
X47375978Y-48807974D01*
X47137883Y-48807974D01*
X46995025Y-48855594D01*
X46899787Y-48950832D01*
X46852168Y-49046070D01*
X46804549Y-49236546D01*
X46804549Y-49379403D01*
X46852168Y-49569879D01*
X46899787Y-49665117D01*
X46995025Y-49760355D01*
X47137883Y-49807974D01*
X47375978Y-49807974D01*
X46423597Y-48903213D02*
X46375978Y-48855594D01*
X46280740Y-48807974D01*
X46042644Y-48807974D01*
X45947406Y-48855594D01*
X45899787Y-48903213D01*
X45852168Y-48998451D01*
X45852168Y-49093689D01*
X45899787Y-49236546D01*
X46471216Y-49807974D01*
X45852168Y-49807974D01*
%TO.C,D24*%
X62213434Y-108600127D02*
X62555455Y-107660434D01*
X62331718Y-107579001D01*
X62181190Y-107574888D01*
X62059122Y-107631809D01*
X61981801Y-107705017D01*
X61871907Y-107867719D01*
X61823047Y-108001961D01*
X61802648Y-108197237D01*
X61814822Y-108303018D01*
X61871743Y-108425086D01*
X61989698Y-108518693D01*
X62213434Y-108600127D01*
X61627936Y-107424195D02*
X61599475Y-107363161D01*
X61526267Y-107285841D01*
X61302531Y-107204407D01*
X61196750Y-107216581D01*
X61135716Y-107245042D01*
X61058395Y-107318250D01*
X61025822Y-107407744D01*
X61021709Y-107558273D01*
X61363236Y-108290680D01*
X60781522Y-108078953D01*
X60204084Y-107159331D02*
X59976071Y-107785793D01*
X60558114Y-106882787D02*
X60537550Y-107635429D01*
X59955836Y-107423702D01*
%TO.C,D32*%
X74667582Y-143596200D02*
X75009603Y-142656507D01*
X74785866Y-142575074D01*
X74635338Y-142570961D01*
X74513270Y-142627882D01*
X74435949Y-142701090D01*
X74326055Y-142863792D01*
X74277195Y-142998034D01*
X74256796Y-143193310D01*
X74268970Y-143299091D01*
X74325891Y-143421159D01*
X74443846Y-143514766D01*
X74667582Y-143596200D01*
X74159404Y-142347060D02*
X73577690Y-142135334D01*
X73760627Y-142607318D01*
X73626386Y-142558458D01*
X73520604Y-142570632D01*
X73459571Y-142599093D01*
X73382250Y-142672301D01*
X73300817Y-142896037D01*
X73312990Y-143001818D01*
X73341451Y-143062852D01*
X73414659Y-143140173D01*
X73683143Y-143237893D01*
X73788924Y-143225719D01*
X73849958Y-143197258D01*
X73187139Y-142094535D02*
X73158678Y-142033501D01*
X73085470Y-141956180D01*
X72861734Y-141874747D01*
X72755953Y-141886921D01*
X72694919Y-141915381D01*
X72617598Y-141988589D01*
X72585025Y-142078084D01*
X72580912Y-142228612D01*
X72922439Y-142961019D01*
X72340725Y-142749293D01*
%TO.C,D29*%
X20641375Y-127928036D02*
X20641375Y-126928036D01*
X20403280Y-126928036D01*
X20260423Y-126975656D01*
X20165185Y-127070894D01*
X20117566Y-127166132D01*
X20069947Y-127356608D01*
X20069947Y-127499465D01*
X20117566Y-127689941D01*
X20165185Y-127785179D01*
X20260423Y-127880417D01*
X20403280Y-127928036D01*
X20641375Y-127928036D01*
X19688994Y-127023275D02*
X19641375Y-126975656D01*
X19546137Y-126928036D01*
X19308042Y-126928036D01*
X19212804Y-126975656D01*
X19165185Y-127023275D01*
X19117566Y-127118513D01*
X19117566Y-127213751D01*
X19165185Y-127356608D01*
X19736613Y-127928036D01*
X19117566Y-127928036D01*
X18641375Y-127928036D02*
X18450899Y-127928036D01*
X18355661Y-127880417D01*
X18308042Y-127832798D01*
X18212804Y-127689941D01*
X18165185Y-127499465D01*
X18165185Y-127118513D01*
X18212804Y-127023275D01*
X18260423Y-126975656D01*
X18355661Y-126928036D01*
X18546137Y-126928036D01*
X18641375Y-126975656D01*
X18688994Y-127023275D01*
X18736613Y-127118513D01*
X18736613Y-127356608D01*
X18688994Y-127451846D01*
X18641375Y-127499465D01*
X18546137Y-127547084D01*
X18355661Y-127547084D01*
X18260423Y-127499465D01*
X18212804Y-127451846D01*
X18165185Y-127356608D01*
%TO.C,D3*%
X67737499Y-49847215D02*
X68079519Y-48907522D01*
X67855783Y-48826089D01*
X67705254Y-48821976D01*
X67583186Y-48878897D01*
X67505866Y-48952105D01*
X67395972Y-49114808D01*
X67347112Y-49249049D01*
X67326712Y-49444325D01*
X67338886Y-49550106D01*
X67395807Y-49672174D01*
X67513762Y-49765782D01*
X67737499Y-49847215D01*
X67229321Y-48598076D02*
X66647606Y-48386349D01*
X66830544Y-48858334D01*
X66696302Y-48809474D01*
X66590521Y-48821648D01*
X66529487Y-48850108D01*
X66452166Y-48923316D01*
X66370733Y-49147052D01*
X66382907Y-49252834D01*
X66411367Y-49313868D01*
X66484575Y-49391188D01*
X66753059Y-49488908D01*
X66858840Y-49476734D01*
X66919874Y-49448274D01*
%TO.C,D13*%
X119848205Y-89086548D02*
X120190226Y-88146855D01*
X119966489Y-88065422D01*
X119815961Y-88061309D01*
X119693893Y-88118230D01*
X119616572Y-88191438D01*
X119506678Y-88354140D01*
X119457818Y-88488382D01*
X119437419Y-88683658D01*
X119449593Y-88789439D01*
X119506514Y-88911507D01*
X119624469Y-89005114D01*
X119848205Y-89086548D01*
X118416293Y-88565374D02*
X118953260Y-88760814D01*
X118684776Y-88663094D02*
X119026797Y-87723402D01*
X119067431Y-87890217D01*
X119124352Y-88012285D01*
X119197560Y-88089605D01*
X118445082Y-87511675D02*
X117863368Y-87299948D01*
X118046305Y-87771933D01*
X117912063Y-87723073D01*
X117806282Y-87735247D01*
X117745248Y-87763707D01*
X117667928Y-87836915D01*
X117586494Y-88060652D01*
X117598668Y-88166433D01*
X117627129Y-88227467D01*
X117700337Y-88304787D01*
X117968820Y-88402507D01*
X118074601Y-88390334D01*
X118135635Y-88361873D01*
%TO.C,D9*%
X45335780Y-69337987D02*
X45335780Y-68337987D01*
X45097685Y-68337987D01*
X44954827Y-68385607D01*
X44859589Y-68480845D01*
X44811970Y-68576083D01*
X44764351Y-68766559D01*
X44764351Y-68909416D01*
X44811970Y-69099892D01*
X44859589Y-69195130D01*
X44954827Y-69290368D01*
X45097685Y-69337987D01*
X45335780Y-69337987D01*
X44288161Y-69337987D02*
X44097685Y-69337987D01*
X44002446Y-69290368D01*
X43954827Y-69242749D01*
X43859589Y-69099892D01*
X43811970Y-68909416D01*
X43811970Y-68528464D01*
X43859589Y-68433226D01*
X43907208Y-68385607D01*
X44002446Y-68337987D01*
X44192923Y-68337987D01*
X44288161Y-68385607D01*
X44335780Y-68433226D01*
X44383399Y-68528464D01*
X44383399Y-68766559D01*
X44335780Y-68861797D01*
X44288161Y-68909416D01*
X44192923Y-68957035D01*
X44002446Y-68957035D01*
X43907208Y-68909416D01*
X43859589Y-68861797D01*
X43811970Y-68766559D01*
%TO.C,D30*%
X39691376Y-127928035D02*
X39691376Y-126928035D01*
X39453281Y-126928035D01*
X39310424Y-126975655D01*
X39215186Y-127070893D01*
X39167567Y-127166131D01*
X39119948Y-127356607D01*
X39119948Y-127499464D01*
X39167567Y-127689940D01*
X39215186Y-127785178D01*
X39310424Y-127880416D01*
X39453281Y-127928035D01*
X39691376Y-127928035D01*
X38786614Y-126928035D02*
X38167567Y-126928035D01*
X38500900Y-127308988D01*
X38358043Y-127308988D01*
X38262805Y-127356607D01*
X38215186Y-127404226D01*
X38167567Y-127499464D01*
X38167567Y-127737559D01*
X38215186Y-127832797D01*
X38262805Y-127880416D01*
X38358043Y-127928035D01*
X38643757Y-127928035D01*
X38738995Y-127880416D01*
X38786614Y-127832797D01*
X37548519Y-126928035D02*
X37453281Y-126928035D01*
X37358043Y-126975655D01*
X37310424Y-127023274D01*
X37262805Y-127118512D01*
X37215186Y-127308988D01*
X37215186Y-127547083D01*
X37262805Y-127737559D01*
X37310424Y-127832797D01*
X37358043Y-127880416D01*
X37453281Y-127928035D01*
X37548519Y-127928035D01*
X37643757Y-127880416D01*
X37691376Y-127832797D01*
X37738995Y-127737559D01*
X37786614Y-127547083D01*
X37786614Y-127308988D01*
X37738995Y-127118512D01*
X37691376Y-127023274D01*
X37643757Y-126975655D01*
X37548519Y-126928035D01*
%TO.C,D6*%
X121440931Y-69393665D02*
X121782951Y-68453972D01*
X121559215Y-68372539D01*
X121408686Y-68368426D01*
X121286618Y-68425347D01*
X121209298Y-68498555D01*
X121099404Y-68661258D01*
X121050544Y-68795499D01*
X121030144Y-68990775D01*
X121042318Y-69096556D01*
X121099239Y-69218624D01*
X121217194Y-69312232D01*
X121440931Y-69393665D01*
X120440533Y-67965372D02*
X120619522Y-68030519D01*
X120692730Y-68107839D01*
X120721190Y-68168873D01*
X120761825Y-68335689D01*
X120741425Y-68530964D01*
X120611132Y-68888942D01*
X120533811Y-68962150D01*
X120472778Y-68990611D01*
X120366996Y-69002785D01*
X120188007Y-68937638D01*
X120114799Y-68860318D01*
X120086339Y-68799284D01*
X120074165Y-68693502D01*
X120155598Y-68469766D01*
X120232919Y-68396558D01*
X120293953Y-68368098D01*
X120399734Y-68355924D01*
X120578723Y-68421070D01*
X120651931Y-68498391D01*
X120680392Y-68559425D01*
X120692565Y-68665206D01*
%TO.C,D15*%
X24721772Y-88868003D02*
X24721772Y-87868003D01*
X24483677Y-87868003D01*
X24340820Y-87915623D01*
X24245582Y-88010861D01*
X24197963Y-88106099D01*
X24150344Y-88296575D01*
X24150344Y-88439432D01*
X24197963Y-88629908D01*
X24245582Y-88725146D01*
X24340820Y-88820384D01*
X24483677Y-88868003D01*
X24721772Y-88868003D01*
X23197963Y-88868003D02*
X23769391Y-88868003D01*
X23483677Y-88868003D02*
X23483677Y-87868003D01*
X23578915Y-88010861D01*
X23674153Y-88106099D01*
X23769391Y-88153718D01*
X22293201Y-87868003D02*
X22769391Y-87868003D01*
X22817010Y-88344194D01*
X22769391Y-88296575D01*
X22674153Y-88248956D01*
X22436058Y-88248956D01*
X22340820Y-88296575D01*
X22293201Y-88344194D01*
X22245582Y-88439432D01*
X22245582Y-88677527D01*
X22293201Y-88772765D01*
X22340820Y-88820384D01*
X22436058Y-88868003D01*
X22674153Y-88868003D01*
X22769391Y-88820384D01*
X22817010Y-88772765D01*
%TO.C,D26*%
X97866667Y-121631095D02*
X98208688Y-120691402D01*
X97984951Y-120609969D01*
X97834423Y-120605856D01*
X97712355Y-120662777D01*
X97635034Y-120735985D01*
X97525140Y-120898687D01*
X97476280Y-121032929D01*
X97455881Y-121228205D01*
X97468055Y-121333986D01*
X97524976Y-121456054D01*
X97642931Y-121549661D01*
X97866667Y-121631095D01*
X97281169Y-120455163D02*
X97252708Y-120394129D01*
X97179500Y-120316809D01*
X96955764Y-120235375D01*
X96849983Y-120247549D01*
X96788949Y-120276010D01*
X96711628Y-120349218D01*
X96679055Y-120438712D01*
X96674942Y-120589241D01*
X97016469Y-121321648D01*
X96434755Y-121109921D01*
X95971324Y-119877068D02*
X96150313Y-119942215D01*
X96223521Y-120019536D01*
X96251982Y-120080570D01*
X96292616Y-120247385D01*
X96272217Y-120442661D01*
X96141923Y-120800639D01*
X96064603Y-120873847D01*
X96003569Y-120902307D01*
X95897788Y-120914481D01*
X95718799Y-120849334D01*
X95645591Y-120772014D01*
X95617130Y-120710980D01*
X95604956Y-120605199D01*
X95686390Y-120381462D01*
X95763710Y-120308254D01*
X95824744Y-120279794D01*
X95930525Y-120267620D01*
X96109514Y-120332767D01*
X96182722Y-120410087D01*
X96211183Y-120471121D01*
X96223357Y-120576902D01*
%TO.C,D25*%
X79965520Y-115115611D02*
X80307541Y-114175918D01*
X80083804Y-114094485D01*
X79933276Y-114090372D01*
X79811208Y-114147293D01*
X79733887Y-114220501D01*
X79623993Y-114383203D01*
X79575133Y-114517445D01*
X79554734Y-114712721D01*
X79566908Y-114818502D01*
X79623829Y-114940570D01*
X79741784Y-115034177D01*
X79965520Y-115115611D01*
X79380022Y-113939679D02*
X79351561Y-113878645D01*
X79278353Y-113801325D01*
X79054617Y-113719891D01*
X78948836Y-113732065D01*
X78887802Y-113760526D01*
X78810481Y-113833734D01*
X78777908Y-113923228D01*
X78773795Y-114073757D01*
X79115322Y-114806164D01*
X78533608Y-114594437D01*
X78025430Y-113345298D02*
X78472903Y-113508164D01*
X78354783Y-113971924D01*
X78326323Y-113910890D01*
X78253115Y-113833569D01*
X78029378Y-113752136D01*
X77923597Y-113764310D01*
X77862563Y-113792770D01*
X77785243Y-113865978D01*
X77703809Y-114089715D01*
X77715983Y-114195496D01*
X77744444Y-114256530D01*
X77817652Y-114333850D01*
X78041388Y-114415284D01*
X78147169Y-114403110D01*
X78208203Y-114374649D01*
%TO.C,D20*%
X117808004Y-108616563D02*
X118150025Y-107676870D01*
X117926288Y-107595437D01*
X117775760Y-107591324D01*
X117653692Y-107648245D01*
X117576371Y-107721453D01*
X117466477Y-107884155D01*
X117417617Y-108018397D01*
X117397218Y-108213673D01*
X117409392Y-108319454D01*
X117466313Y-108441522D01*
X117584268Y-108535129D01*
X117808004Y-108616563D01*
X117222506Y-107440631D02*
X117194045Y-107379597D01*
X117120837Y-107302277D01*
X116897101Y-107220843D01*
X116791320Y-107233017D01*
X116730286Y-107261478D01*
X116652965Y-107334686D01*
X116620392Y-107424180D01*
X116616279Y-107574709D01*
X116957806Y-108307116D01*
X116376092Y-108095389D01*
X116136398Y-106943970D02*
X116046903Y-106911396D01*
X115941122Y-106923570D01*
X115880088Y-106952031D01*
X115802767Y-107025239D01*
X115692873Y-107187941D01*
X115611440Y-107411678D01*
X115591040Y-107606953D01*
X115603214Y-107712735D01*
X115631675Y-107773768D01*
X115704883Y-107851089D01*
X115794377Y-107883662D01*
X115900159Y-107871488D01*
X115961193Y-107843028D01*
X116038513Y-107769820D01*
X116148407Y-107607118D01*
X116229840Y-107383381D01*
X116250240Y-107188106D01*
X116238066Y-107082324D01*
X116209605Y-107021290D01*
X116136398Y-106943970D01*
%TO.C,D16*%
X43795952Y-88868004D02*
X43795952Y-87868004D01*
X43557857Y-87868004D01*
X43415000Y-87915624D01*
X43319762Y-88010862D01*
X43272143Y-88106100D01*
X43224524Y-88296576D01*
X43224524Y-88439433D01*
X43272143Y-88629909D01*
X43319762Y-88725147D01*
X43415000Y-88820385D01*
X43557857Y-88868004D01*
X43795952Y-88868004D01*
X42272143Y-88868004D02*
X42843571Y-88868004D01*
X42557857Y-88868004D02*
X42557857Y-87868004D01*
X42653095Y-88010862D01*
X42748333Y-88106100D01*
X42843571Y-88153719D01*
X41415000Y-87868004D02*
X41605476Y-87868004D01*
X41700714Y-87915624D01*
X41748333Y-87963243D01*
X41843571Y-88106100D01*
X41891190Y-88296576D01*
X41891190Y-88677528D01*
X41843571Y-88772766D01*
X41795952Y-88820385D01*
X41700714Y-88868004D01*
X41510238Y-88868004D01*
X41415000Y-88820385D01*
X41367381Y-88772766D01*
X41319762Y-88677528D01*
X41319762Y-88439433D01*
X41367381Y-88344195D01*
X41415000Y-88296576D01*
X41510238Y-88248957D01*
X41700714Y-88248957D01*
X41795952Y-88296576D01*
X41843571Y-88344195D01*
X41891190Y-88439433D01*
%TO.C,D21*%
X135709153Y-115369094D02*
X136051174Y-114429401D01*
X135827437Y-114347968D01*
X135676909Y-114343855D01*
X135554841Y-114400776D01*
X135477520Y-114473984D01*
X135367626Y-114636686D01*
X135318766Y-114770928D01*
X135298367Y-114966204D01*
X135310541Y-115071985D01*
X135367462Y-115194053D01*
X135485417Y-115287660D01*
X135709153Y-115369094D01*
X135123655Y-114193162D02*
X135095194Y-114132128D01*
X135021986Y-114054808D01*
X134798250Y-113973374D01*
X134692469Y-113985548D01*
X134631435Y-114014009D01*
X134554114Y-114087217D01*
X134521541Y-114176711D01*
X134517428Y-114327240D01*
X134858955Y-115059647D01*
X134277241Y-114847920D01*
X133382296Y-114522187D02*
X133919263Y-114717627D01*
X133650779Y-114619907D02*
X133992799Y-113680214D01*
X134033434Y-113847029D01*
X134090355Y-113969097D01*
X134163563Y-114046418D01*
%TO.C,D5*%
X103539785Y-62878183D02*
X103881805Y-61938490D01*
X103658069Y-61857057D01*
X103507540Y-61852944D01*
X103385472Y-61909865D01*
X103308152Y-61983073D01*
X103198258Y-62145776D01*
X103149398Y-62280017D01*
X103128998Y-62475293D01*
X103141172Y-62581074D01*
X103198093Y-62703142D01*
X103316048Y-62796750D01*
X103539785Y-62878183D01*
X102494640Y-61433603D02*
X102942112Y-61596470D01*
X102823993Y-62060230D01*
X102795532Y-61999196D01*
X102722324Y-61921875D01*
X102498588Y-61840442D01*
X102392807Y-61852616D01*
X102331773Y-61881076D01*
X102254452Y-61954284D01*
X102173019Y-62178020D01*
X102185193Y-62283802D01*
X102213653Y-62344836D01*
X102286861Y-62422156D01*
X102510598Y-62503589D01*
X102616379Y-62491416D01*
X102677413Y-62462955D01*
%TO.C,D10*%
X66144772Y-69540095D02*
X66486793Y-68600402D01*
X66263056Y-68518969D01*
X66112528Y-68514856D01*
X65990460Y-68571777D01*
X65913139Y-68644985D01*
X65803245Y-68807687D01*
X65754385Y-68941929D01*
X65733986Y-69137205D01*
X65746160Y-69242986D01*
X65803081Y-69365054D01*
X65921036Y-69458661D01*
X66144772Y-69540095D01*
X64712860Y-69018921D02*
X65249827Y-69214361D01*
X64981343Y-69116641D02*
X65323364Y-68176949D01*
X65363998Y-68343764D01*
X65420919Y-68465832D01*
X65494127Y-68543152D01*
X64473166Y-67867502D02*
X64383671Y-67834928D01*
X64277890Y-67847102D01*
X64216856Y-67875563D01*
X64139535Y-67948771D01*
X64029641Y-68111473D01*
X63948208Y-68335210D01*
X63927808Y-68530485D01*
X63939982Y-68636267D01*
X63968443Y-68697300D01*
X64041651Y-68774621D01*
X64131145Y-68807194D01*
X64236927Y-68795020D01*
X64297961Y-68766560D01*
X64375281Y-68693352D01*
X64485175Y-68530650D01*
X64566608Y-68306913D01*
X64587008Y-68111638D01*
X64574834Y-68005856D01*
X64546373Y-67944822D01*
X64473166Y-67867502D01*
%TO.C,D18*%
X82005717Y-95585596D02*
X82347738Y-94645903D01*
X82124001Y-94564470D01*
X81973473Y-94560357D01*
X81851405Y-94617278D01*
X81774084Y-94690486D01*
X81664190Y-94853188D01*
X81615330Y-94987430D01*
X81594931Y-95182706D01*
X81607105Y-95288487D01*
X81664026Y-95410555D01*
X81781981Y-95504162D01*
X82005717Y-95585596D01*
X80573805Y-95064422D02*
X81110772Y-95259862D01*
X80842288Y-95162142D02*
X81184309Y-94222450D01*
X81224943Y-94389265D01*
X81281864Y-94511333D01*
X81355072Y-94588653D01*
X80232278Y-94332015D02*
X80338059Y-94319841D01*
X80399093Y-94291380D01*
X80476413Y-94218172D01*
X80492700Y-94173425D01*
X80480526Y-94067644D01*
X80452066Y-94006610D01*
X80378858Y-93929289D01*
X80199869Y-93864143D01*
X80094088Y-93876317D01*
X80033054Y-93904777D01*
X79955733Y-93977985D01*
X79939446Y-94022732D01*
X79951620Y-94128514D01*
X79980081Y-94189548D01*
X80053289Y-94266868D01*
X80232278Y-94332015D01*
X80305486Y-94409335D01*
X80333946Y-94470369D01*
X80346120Y-94576151D01*
X80280973Y-94755140D01*
X80203653Y-94828348D01*
X80142619Y-94856808D01*
X80036838Y-94868982D01*
X79857849Y-94803835D01*
X79784641Y-94726515D01*
X79756180Y-94665481D01*
X79744006Y-94559700D01*
X79809153Y-94380711D01*
X79886474Y-94307503D01*
X79947507Y-94279042D01*
X80053289Y-94266868D01*
%TO.C,D27*%
X115767809Y-128146578D02*
X116109830Y-127206885D01*
X115886093Y-127125452D01*
X115735565Y-127121339D01*
X115613497Y-127178260D01*
X115536176Y-127251468D01*
X115426282Y-127414170D01*
X115377422Y-127548412D01*
X115357023Y-127743688D01*
X115369197Y-127849469D01*
X115426118Y-127971537D01*
X115544073Y-128065144D01*
X115767809Y-128146578D01*
X115182311Y-126970646D02*
X115153850Y-126909612D01*
X115080642Y-126832292D01*
X114856906Y-126750858D01*
X114751125Y-126763032D01*
X114690091Y-126791493D01*
X114612770Y-126864701D01*
X114580197Y-126954195D01*
X114576084Y-127104724D01*
X114917611Y-127837131D01*
X114335897Y-127625404D01*
X114364686Y-126571705D02*
X113738224Y-126343691D01*
X113798930Y-127429964D01*
%TO.C,D17*%
X64104574Y-89070113D02*
X64446595Y-88130420D01*
X64222858Y-88048987D01*
X64072330Y-88044874D01*
X63950262Y-88101795D01*
X63872941Y-88175003D01*
X63763047Y-88337705D01*
X63714187Y-88471947D01*
X63693788Y-88667223D01*
X63705962Y-88773004D01*
X63762883Y-88895072D01*
X63880838Y-88988679D01*
X64104574Y-89070113D01*
X62672662Y-88548939D02*
X63209629Y-88744379D01*
X62941145Y-88646659D02*
X63283166Y-87706967D01*
X63323800Y-87873782D01*
X63380721Y-87995850D01*
X63453929Y-88073170D01*
X62701451Y-87495240D02*
X62074989Y-87267226D01*
X62135695Y-88353499D01*
%TO.C,D12*%
X101947060Y-82571063D02*
X102289081Y-81631370D01*
X102065344Y-81549937D01*
X101914816Y-81545824D01*
X101792748Y-81602745D01*
X101715427Y-81675953D01*
X101605533Y-81838655D01*
X101556673Y-81972897D01*
X101536274Y-82168173D01*
X101548448Y-82273954D01*
X101605369Y-82396022D01*
X101723324Y-82489629D01*
X101947060Y-82571063D01*
X100515148Y-82049889D02*
X101052115Y-82245329D01*
X100783631Y-82147609D02*
X101125652Y-81207917D01*
X101166286Y-81374732D01*
X101223207Y-81496800D01*
X101296415Y-81574120D01*
X100466617Y-81069398D02*
X100438156Y-81008364D01*
X100364948Y-80931043D01*
X100141212Y-80849610D01*
X100035431Y-80861784D01*
X99974397Y-80890244D01*
X99897076Y-80963452D01*
X99864503Y-81052947D01*
X99860390Y-81203475D01*
X100201917Y-81935882D01*
X99620203Y-81724156D01*
%TO.C,D22*%
X22681574Y-108398019D02*
X22681574Y-107398019D01*
X22443479Y-107398019D01*
X22300622Y-107445639D01*
X22205384Y-107540877D01*
X22157765Y-107636115D01*
X22110146Y-107826591D01*
X22110146Y-107969448D01*
X22157765Y-108159924D01*
X22205384Y-108255162D01*
X22300622Y-108350400D01*
X22443479Y-108398019D01*
X22681574Y-108398019D01*
X21729193Y-107493258D02*
X21681574Y-107445639D01*
X21586336Y-107398019D01*
X21348241Y-107398019D01*
X21253003Y-107445639D01*
X21205384Y-107493258D01*
X21157765Y-107588496D01*
X21157765Y-107683734D01*
X21205384Y-107826591D01*
X21776812Y-108398019D01*
X21157765Y-108398019D01*
X20776812Y-107493258D02*
X20729193Y-107445639D01*
X20633955Y-107398019D01*
X20395860Y-107398019D01*
X20300622Y-107445639D01*
X20253003Y-107493258D01*
X20205384Y-107588496D01*
X20205384Y-107683734D01*
X20253003Y-107826591D01*
X20824431Y-108398019D01*
X20205384Y-108398019D01*
%TO.C,D34*%
X113727611Y-147676594D02*
X114069632Y-146736901D01*
X113845895Y-146655468D01*
X113695367Y-146651355D01*
X113573299Y-146708276D01*
X113495978Y-146781484D01*
X113386084Y-146944186D01*
X113337224Y-147078428D01*
X113316825Y-147273704D01*
X113328999Y-147379485D01*
X113385920Y-147501553D01*
X113503875Y-147595160D01*
X113727611Y-147676594D01*
X113219433Y-146427454D02*
X112637719Y-146215728D01*
X112820656Y-146687712D01*
X112686415Y-146638852D01*
X112580633Y-146651026D01*
X112519600Y-146679487D01*
X112442279Y-146752695D01*
X112360846Y-146976431D01*
X112373019Y-147082212D01*
X112401480Y-147143246D01*
X112474688Y-147220567D01*
X112743172Y-147318287D01*
X112848953Y-147306113D01*
X112909987Y-147277652D01*
X111718261Y-146235798D02*
X111490248Y-146862260D01*
X112072291Y-145959254D02*
X112051727Y-146711896D01*
X111470013Y-146500169D01*
%TO.C,D14*%
X137749349Y-95602033D02*
X138091370Y-94662340D01*
X137867633Y-94580907D01*
X137717105Y-94576794D01*
X137595037Y-94633715D01*
X137517716Y-94706923D01*
X137407822Y-94869625D01*
X137358962Y-95003867D01*
X137338563Y-95199143D01*
X137350737Y-95304924D01*
X137407658Y-95426992D01*
X137525613Y-95520599D01*
X137749349Y-95602033D01*
X136317437Y-95080859D02*
X136854404Y-95276299D01*
X136585920Y-95178579D02*
X136927941Y-94238887D01*
X136968575Y-94405702D01*
X137025496Y-94527770D01*
X137098704Y-94605090D01*
X135739999Y-94161237D02*
X135511986Y-94787699D01*
X136094029Y-93884693D02*
X136073465Y-94637335D01*
X135491751Y-94425608D01*
%TO.C,D7*%
X139342075Y-75909150D02*
X139684095Y-74969457D01*
X139460359Y-74888024D01*
X139309830Y-74883911D01*
X139187762Y-74940832D01*
X139110442Y-75014040D01*
X139000548Y-75176743D01*
X138951688Y-75310984D01*
X138931288Y-75506260D01*
X138943462Y-75612041D01*
X139000383Y-75734109D01*
X139118338Y-75827717D01*
X139342075Y-75909150D01*
X138833897Y-74660011D02*
X138207435Y-74431997D01*
X138268140Y-75518270D01*
%TO.C,D33*%
X95826468Y-141161109D02*
X96168489Y-140221416D01*
X95944752Y-140139983D01*
X95794224Y-140135870D01*
X95672156Y-140192791D01*
X95594835Y-140265999D01*
X95484941Y-140428701D01*
X95436081Y-140562943D01*
X95415682Y-140758219D01*
X95427856Y-140864000D01*
X95484777Y-140986068D01*
X95602732Y-141079675D01*
X95826468Y-141161109D01*
X95318290Y-139911969D02*
X94736576Y-139700243D01*
X94919513Y-140172227D01*
X94785272Y-140123367D01*
X94679490Y-140135541D01*
X94618457Y-140164002D01*
X94541136Y-140237210D01*
X94459703Y-140460946D01*
X94471876Y-140566727D01*
X94500337Y-140627761D01*
X94573545Y-140705082D01*
X94842029Y-140802802D01*
X94947810Y-140790628D01*
X95008844Y-140762167D01*
X94423345Y-139586236D02*
X93841631Y-139374509D01*
X94024568Y-139846494D01*
X93890326Y-139797634D01*
X93784545Y-139809808D01*
X93723511Y-139838268D01*
X93646191Y-139911476D01*
X93564757Y-140135213D01*
X93576931Y-140240994D01*
X93605392Y-140302028D01*
X93678600Y-140379348D01*
X93947083Y-140477068D01*
X94052864Y-140464895D01*
X94113898Y-140436434D01*
%TO.C,D11*%
X84045916Y-76055580D02*
X84387937Y-75115887D01*
X84164200Y-75034454D01*
X84013672Y-75030341D01*
X83891604Y-75087262D01*
X83814283Y-75160470D01*
X83704389Y-75323172D01*
X83655529Y-75457414D01*
X83635130Y-75652690D01*
X83647304Y-75758471D01*
X83704225Y-75880539D01*
X83822180Y-75974146D01*
X84045916Y-76055580D01*
X82614004Y-75534406D02*
X83150971Y-75729846D01*
X82882487Y-75632126D02*
X83224508Y-74692434D01*
X83265142Y-74859249D01*
X83322063Y-74981317D01*
X83395271Y-75058637D01*
X81719059Y-75208673D02*
X82256026Y-75404113D01*
X81987542Y-75306393D02*
X82329562Y-74366700D01*
X82370197Y-74533515D01*
X82427118Y-74655583D01*
X82500326Y-74732904D01*
%TO.C,D23*%
X41731575Y-108398019D02*
X41731575Y-107398019D01*
X41493480Y-107398019D01*
X41350623Y-107445639D01*
X41255385Y-107540877D01*
X41207766Y-107636115D01*
X41160147Y-107826591D01*
X41160147Y-107969448D01*
X41207766Y-108159924D01*
X41255385Y-108255162D01*
X41350623Y-108350400D01*
X41493480Y-108398019D01*
X41731575Y-108398019D01*
X40779194Y-107493258D02*
X40731575Y-107445639D01*
X40636337Y-107398019D01*
X40398242Y-107398019D01*
X40303004Y-107445639D01*
X40255385Y-107493258D01*
X40207766Y-107588496D01*
X40207766Y-107683734D01*
X40255385Y-107826591D01*
X40826813Y-108398019D01*
X40207766Y-108398019D01*
X39874432Y-107398019D02*
X39255385Y-107398019D01*
X39588718Y-107778972D01*
X39445861Y-107778972D01*
X39350623Y-107826591D01*
X39303004Y-107874210D01*
X39255385Y-107969448D01*
X39255385Y-108207543D01*
X39303004Y-108302781D01*
X39350623Y-108350400D01*
X39445861Y-108398019D01*
X39731575Y-108398019D01*
X39826813Y-108350400D01*
X39874432Y-108302781D01*
%TO.C,D28*%
X133668953Y-134662062D02*
X134010974Y-133722369D01*
X133787237Y-133640936D01*
X133636709Y-133636823D01*
X133514641Y-133693744D01*
X133437320Y-133766952D01*
X133327426Y-133929654D01*
X133278566Y-134063896D01*
X133258167Y-134259172D01*
X133270341Y-134364953D01*
X133327262Y-134487021D01*
X133445217Y-134580628D01*
X133668953Y-134662062D01*
X133083455Y-133486130D02*
X133054994Y-133425096D01*
X132981786Y-133347776D01*
X132758050Y-133266342D01*
X132652269Y-133278516D01*
X132591235Y-133306977D01*
X132513914Y-133380185D01*
X132481341Y-133469679D01*
X132477228Y-133620208D01*
X132818755Y-134352615D01*
X132237041Y-134140888D01*
X131895514Y-133408481D02*
X132001295Y-133396307D01*
X132062329Y-133367846D01*
X132139649Y-133294638D01*
X132155936Y-133249891D01*
X132143762Y-133144110D01*
X132115302Y-133083076D01*
X132042094Y-133005755D01*
X131863105Y-132940609D01*
X131757324Y-132952783D01*
X131696290Y-132981243D01*
X131618969Y-133054451D01*
X131602682Y-133099198D01*
X131614856Y-133204980D01*
X131643317Y-133266014D01*
X131716525Y-133343334D01*
X131895514Y-133408481D01*
X131968722Y-133485801D01*
X131997182Y-133546835D01*
X132009356Y-133652617D01*
X131944209Y-133831606D01*
X131866889Y-133904814D01*
X131805855Y-133933274D01*
X131700074Y-133945448D01*
X131521085Y-133880301D01*
X131447877Y-133802981D01*
X131419416Y-133741947D01*
X131407242Y-133636166D01*
X131472389Y-133457177D01*
X131549710Y-133383969D01*
X131610743Y-133355508D01*
X131716525Y-133343334D01*
%TO.C,D4*%
X85638642Y-56362699D02*
X85980662Y-55423006D01*
X85756926Y-55341573D01*
X85606397Y-55337460D01*
X85484329Y-55394381D01*
X85407009Y-55467589D01*
X85297115Y-55630292D01*
X85248255Y-55764533D01*
X85227855Y-55959809D01*
X85240029Y-56065590D01*
X85296950Y-56187658D01*
X85414905Y-56281266D01*
X85638642Y-56362699D01*
X84524237Y-55247637D02*
X84296224Y-55874099D01*
X84878267Y-54971092D02*
X84857703Y-55723735D01*
X84275989Y-55512008D01*
D12*
%TO.C,U1*%
X11779310Y-32972545D02*
X11779310Y-32210640D01*
X42491453Y-52340164D02*
X42527167Y-52283021D01*
X42527167Y-52168735D01*
X42491453Y-52111593D01*
X42455739Y-52083021D01*
X42384310Y-52054450D01*
X42170024Y-52054450D01*
X42098596Y-52083021D01*
X42062882Y-52111593D01*
X42027167Y-52168735D01*
X42027167Y-52283021D01*
X42062882Y-52340164D01*
X42527167Y-52683021D02*
X42491453Y-52625878D01*
X42455739Y-52597307D01*
X42384310Y-52568735D01*
X42170024Y-52568735D01*
X42098596Y-52597307D01*
X42062882Y-52625878D01*
X42027167Y-52683021D01*
X42027167Y-52768735D01*
X42062882Y-52825878D01*
X42098596Y-52854450D01*
X42170024Y-52883021D01*
X42384310Y-52883021D01*
X42455739Y-52854450D01*
X42491453Y-52825878D01*
X42527167Y-52768735D01*
X42527167Y-52683021D01*
X42527167Y-53225878D02*
X42491453Y-53168735D01*
X42420024Y-53140164D01*
X41777167Y-53140164D01*
X41777167Y-53711593D02*
X41777167Y-53597307D01*
X41812882Y-53540164D01*
X41848596Y-53511593D01*
X41955739Y-53454450D01*
X42098596Y-53425878D01*
X42384310Y-53425878D01*
X42455739Y-53454450D01*
X42491453Y-53483021D01*
X42527167Y-53540164D01*
X42527167Y-53654450D01*
X42491453Y-53711593D01*
X42455739Y-53740164D01*
X42384310Y-53768735D01*
X42205739Y-53768735D01*
X42134310Y-53740164D01*
X42098596Y-53711593D01*
X42062882Y-53654450D01*
X42062882Y-53540164D01*
X42098596Y-53483021D01*
X42134310Y-53454450D01*
X42205739Y-53425878D01*
X21457167Y-52111593D02*
X22207167Y-52311593D01*
X21457167Y-52511593D01*
X22135739Y-53054450D02*
X22171453Y-53025878D01*
X22207167Y-52940164D01*
X22207167Y-52883021D01*
X22171453Y-52797307D01*
X22100024Y-52740164D01*
X22028596Y-52711593D01*
X21885739Y-52683021D01*
X21778596Y-52683021D01*
X21635739Y-52711593D01*
X21564310Y-52740164D01*
X21492882Y-52797307D01*
X21457167Y-52883021D01*
X21457167Y-52940164D01*
X21492882Y-53025878D01*
X21528596Y-53054450D01*
X22135739Y-53654450D02*
X22171453Y-53625878D01*
X22207167Y-53540164D01*
X22207167Y-53483021D01*
X22171453Y-53397307D01*
X22100024Y-53340164D01*
X22028596Y-53311593D01*
X21885739Y-53283021D01*
X21778596Y-53283021D01*
X21635739Y-53311593D01*
X21564310Y-53340164D01*
X21492882Y-53397307D01*
X21457167Y-53483021D01*
X21457167Y-53540164D01*
X21492882Y-53625878D01*
X21528596Y-53654450D01*
X29791453Y-52340164D02*
X29827167Y-52283021D01*
X29827167Y-52168735D01*
X29791453Y-52111593D01*
X29755739Y-52083021D01*
X29684310Y-52054450D01*
X29470024Y-52054450D01*
X29398596Y-52083021D01*
X29362882Y-52111593D01*
X29327167Y-52168735D01*
X29327167Y-52283021D01*
X29362882Y-52340164D01*
X29827167Y-52683021D02*
X29791453Y-52625878D01*
X29755739Y-52597307D01*
X29684310Y-52568735D01*
X29470024Y-52568735D01*
X29398596Y-52597307D01*
X29362882Y-52625878D01*
X29327167Y-52683021D01*
X29327167Y-52768735D01*
X29362882Y-52825878D01*
X29398596Y-52854450D01*
X29470024Y-52883021D01*
X29684310Y-52883021D01*
X29755739Y-52854450D01*
X29791453Y-52825878D01*
X29827167Y-52768735D01*
X29827167Y-52683021D01*
X29827167Y-53225878D02*
X29791453Y-53168735D01*
X29720024Y-53140164D01*
X29077167Y-53140164D01*
X29827167Y-53768735D02*
X29827167Y-53425878D01*
X29827167Y-53597307D02*
X29077167Y-53597307D01*
X29184310Y-53540164D01*
X29255739Y-53483021D01*
X29291453Y-53425878D01*
X16412882Y-52454450D02*
X16377167Y-52397307D01*
X16377167Y-52311593D01*
X16412882Y-52225878D01*
X16484310Y-52168735D01*
X16555739Y-52140164D01*
X16698596Y-52111593D01*
X16805739Y-52111593D01*
X16948596Y-52140164D01*
X17020024Y-52168735D01*
X17091453Y-52225878D01*
X17127167Y-52311593D01*
X17127167Y-52368735D01*
X17091453Y-52454450D01*
X17055739Y-52483021D01*
X16805739Y-52483021D01*
X16805739Y-52368735D01*
X17127167Y-52740164D02*
X16377167Y-52740164D01*
X17127167Y-53083021D01*
X16377167Y-53083021D01*
X17127167Y-53368735D02*
X16377167Y-53368735D01*
X16377167Y-53511593D01*
X16412882Y-53597307D01*
X16484310Y-53654450D01*
X16555739Y-53683021D01*
X16698596Y-53711593D01*
X16805739Y-53711593D01*
X16948596Y-53683021D01*
X17020024Y-53654450D01*
X17091453Y-53597307D01*
X17127167Y-53511593D01*
X17127167Y-53368735D01*
X39987167Y-31677307D02*
X39487167Y-31677307D01*
X39630024Y-31677307D02*
X39558596Y-31705878D01*
X39522882Y-31734450D01*
X39487167Y-31791593D01*
X39487167Y-31848735D01*
X39987167Y-32134450D02*
X39951453Y-32077307D01*
X39915739Y-32048735D01*
X39844310Y-32020164D01*
X39630024Y-32020164D01*
X39558596Y-32048735D01*
X39522882Y-32077307D01*
X39487167Y-32134450D01*
X39487167Y-32220164D01*
X39522882Y-32277307D01*
X39558596Y-32305878D01*
X39630024Y-32334450D01*
X39844310Y-32334450D01*
X39915739Y-32305878D01*
X39951453Y-32277307D01*
X39987167Y-32220164D01*
X39987167Y-32134450D01*
X39487167Y-32534450D02*
X39987167Y-32648735D01*
X39630024Y-32763021D01*
X39987167Y-32877307D01*
X39487167Y-32991593D01*
X39487167Y-33477307D02*
X39987167Y-33477307D01*
X39201453Y-33334450D02*
X39737167Y-33191593D01*
X39737167Y-33563021D01*
X27251453Y-52340164D02*
X27287167Y-52283021D01*
X27287167Y-52168735D01*
X27251453Y-52111593D01*
X27215739Y-52083021D01*
X27144310Y-52054450D01*
X26930024Y-52054450D01*
X26858596Y-52083021D01*
X26822882Y-52111593D01*
X26787167Y-52168735D01*
X26787167Y-52283021D01*
X26822882Y-52340164D01*
X27287167Y-52683021D02*
X27251453Y-52625878D01*
X27215739Y-52597307D01*
X27144310Y-52568735D01*
X26930024Y-52568735D01*
X26858596Y-52597307D01*
X26822882Y-52625878D01*
X26787167Y-52683021D01*
X26787167Y-52768735D01*
X26822882Y-52825878D01*
X26858596Y-52854450D01*
X26930024Y-52883021D01*
X27144310Y-52883021D01*
X27215739Y-52854450D01*
X27251453Y-52825878D01*
X27287167Y-52768735D01*
X27287167Y-52683021D01*
X27287167Y-53225878D02*
X27251453Y-53168735D01*
X27180024Y-53140164D01*
X26537167Y-53140164D01*
X26537167Y-53568735D02*
X26537167Y-53625878D01*
X26572882Y-53683021D01*
X26608596Y-53711593D01*
X26680024Y-53740164D01*
X26822882Y-53768735D01*
X27001453Y-53768735D01*
X27144310Y-53740164D01*
X27215739Y-53711593D01*
X27251453Y-53683021D01*
X27287167Y-53625878D01*
X27287167Y-53568735D01*
X27251453Y-53511593D01*
X27215739Y-53483021D01*
X27144310Y-53454450D01*
X27001453Y-53425878D01*
X26822882Y-53425878D01*
X26680024Y-53454450D01*
X26608596Y-53483021D01*
X26572882Y-53511593D01*
X26537167Y-53568735D01*
X18952882Y-32134450D02*
X18917167Y-32077307D01*
X18917167Y-31991593D01*
X18952882Y-31905878D01*
X19024310Y-31848735D01*
X19095739Y-31820164D01*
X19238596Y-31791593D01*
X19345739Y-31791593D01*
X19488596Y-31820164D01*
X19560024Y-31848735D01*
X19631453Y-31905878D01*
X19667167Y-31991593D01*
X19667167Y-32048735D01*
X19631453Y-32134450D01*
X19595739Y-32163021D01*
X19345739Y-32163021D01*
X19345739Y-32048735D01*
X19667167Y-32420164D02*
X18917167Y-32420164D01*
X19667167Y-32763021D01*
X18917167Y-32763021D01*
X19667167Y-33048735D02*
X18917167Y-33048735D01*
X18917167Y-33191593D01*
X18952882Y-33277307D01*
X19024310Y-33334450D01*
X19095739Y-33363021D01*
X19238596Y-33391593D01*
X19345739Y-33391593D01*
X19488596Y-33363021D01*
X19560024Y-33334450D01*
X19631453Y-33277307D01*
X19667167Y-33191593D01*
X19667167Y-33048735D01*
X14587167Y-32205878D02*
X14587167Y-31920164D01*
X13837167Y-31920164D01*
X14194310Y-32405878D02*
X14194310Y-32605878D01*
X14587167Y-32691593D02*
X14587167Y-32405878D01*
X13837167Y-32405878D01*
X13837167Y-32691593D01*
X14587167Y-32948735D02*
X13837167Y-32948735D01*
X13837167Y-33091593D01*
X13872882Y-33177307D01*
X13944310Y-33234450D01*
X14015739Y-33263021D01*
X14158596Y-33291593D01*
X14265739Y-33291593D01*
X14408596Y-33263021D01*
X14480024Y-33234450D01*
X14551453Y-33177307D01*
X14587167Y-33091593D01*
X14587167Y-32948735D01*
X37411453Y-52340164D02*
X37447167Y-52283021D01*
X37447167Y-52168735D01*
X37411453Y-52111593D01*
X37375739Y-52083021D01*
X37304310Y-52054450D01*
X37090024Y-52054450D01*
X37018596Y-52083021D01*
X36982882Y-52111593D01*
X36947167Y-52168735D01*
X36947167Y-52283021D01*
X36982882Y-52340164D01*
X37447167Y-52683021D02*
X37411453Y-52625878D01*
X37375739Y-52597307D01*
X37304310Y-52568735D01*
X37090024Y-52568735D01*
X37018596Y-52597307D01*
X36982882Y-52625878D01*
X36947167Y-52683021D01*
X36947167Y-52768735D01*
X36982882Y-52825878D01*
X37018596Y-52854450D01*
X37090024Y-52883021D01*
X37304310Y-52883021D01*
X37375739Y-52854450D01*
X37411453Y-52825878D01*
X37447167Y-52768735D01*
X37447167Y-52683021D01*
X37447167Y-53225878D02*
X37411453Y-53168735D01*
X37340024Y-53140164D01*
X36697167Y-53140164D01*
X36947167Y-53711593D02*
X37447167Y-53711593D01*
X36661453Y-53568735D02*
X37197167Y-53425878D01*
X37197167Y-53797307D01*
X32331453Y-52340164D02*
X32367167Y-52283021D01*
X32367167Y-52168735D01*
X32331453Y-52111593D01*
X32295739Y-52083021D01*
X32224310Y-52054450D01*
X32010024Y-52054450D01*
X31938596Y-52083021D01*
X31902882Y-52111593D01*
X31867167Y-52168735D01*
X31867167Y-52283021D01*
X31902882Y-52340164D01*
X32367167Y-52683021D02*
X32331453Y-52625878D01*
X32295739Y-52597307D01*
X32224310Y-52568735D01*
X32010024Y-52568735D01*
X31938596Y-52597307D01*
X31902882Y-52625878D01*
X31867167Y-52683021D01*
X31867167Y-52768735D01*
X31902882Y-52825878D01*
X31938596Y-52854450D01*
X32010024Y-52883021D01*
X32224310Y-52883021D01*
X32295739Y-52854450D01*
X32331453Y-52825878D01*
X32367167Y-52768735D01*
X32367167Y-52683021D01*
X32367167Y-53225878D02*
X32331453Y-53168735D01*
X32260024Y-53140164D01*
X31617167Y-53140164D01*
X31688596Y-53425878D02*
X31652882Y-53454450D01*
X31617167Y-53511593D01*
X31617167Y-53654450D01*
X31652882Y-53711593D01*
X31688596Y-53740164D01*
X31760024Y-53768735D01*
X31831453Y-53768735D01*
X31938596Y-53740164D01*
X32367167Y-53397307D01*
X32367167Y-53768735D01*
X17127167Y-31691593D02*
X16377167Y-31691593D01*
X16377167Y-31834450D01*
X16412882Y-31920164D01*
X16484310Y-31977307D01*
X16555739Y-32005878D01*
X16698596Y-32034450D01*
X16805739Y-32034450D01*
X16948596Y-32005878D01*
X17020024Y-31977307D01*
X17091453Y-31920164D01*
X17127167Y-31834450D01*
X17127167Y-31691593D01*
X16912882Y-32263021D02*
X16912882Y-32548735D01*
X17127167Y-32205878D02*
X16377167Y-32405878D01*
X17127167Y-32605878D01*
X16377167Y-32720164D02*
X16377167Y-33063021D01*
X17127167Y-32891593D02*
X16377167Y-32891593D01*
X16912882Y-33234450D02*
X16912882Y-33520164D01*
X17127167Y-33177307D02*
X16377167Y-33377307D01*
X17127167Y-33577307D01*
X19667167Y-52583021D02*
X19310024Y-52383021D01*
X19667167Y-52240164D02*
X18917167Y-52240164D01*
X18917167Y-52468735D01*
X18952882Y-52525878D01*
X18988596Y-52554450D01*
X19060024Y-52583021D01*
X19167167Y-52583021D01*
X19238596Y-52554450D01*
X19274310Y-52525878D01*
X19310024Y-52468735D01*
X19310024Y-52240164D01*
X19631453Y-52811593D02*
X19667167Y-52897307D01*
X19667167Y-53040164D01*
X19631453Y-53097307D01*
X19595739Y-53125878D01*
X19524310Y-53154450D01*
X19452882Y-53154450D01*
X19381453Y-53125878D01*
X19345739Y-53097307D01*
X19310024Y-53040164D01*
X19274310Y-52925878D01*
X19238596Y-52868735D01*
X19202882Y-52840164D01*
X19131453Y-52811593D01*
X19060024Y-52811593D01*
X18988596Y-52840164D01*
X18952882Y-52868735D01*
X18917167Y-52925878D01*
X18917167Y-53068735D01*
X18952882Y-53154450D01*
X18917167Y-53325878D02*
X18917167Y-53668735D01*
X19667167Y-53497307D02*
X18917167Y-53497307D01*
X34907167Y-31677307D02*
X34407167Y-31677307D01*
X34550024Y-31677307D02*
X34478596Y-31705878D01*
X34442882Y-31734450D01*
X34407167Y-31791593D01*
X34407167Y-31848735D01*
X34907167Y-32134450D02*
X34871453Y-32077307D01*
X34835739Y-32048735D01*
X34764310Y-32020164D01*
X34550024Y-32020164D01*
X34478596Y-32048735D01*
X34442882Y-32077307D01*
X34407167Y-32134450D01*
X34407167Y-32220164D01*
X34442882Y-32277307D01*
X34478596Y-32305878D01*
X34550024Y-32334450D01*
X34764310Y-32334450D01*
X34835739Y-32305878D01*
X34871453Y-32277307D01*
X34907167Y-32220164D01*
X34907167Y-32134450D01*
X34407167Y-32534450D02*
X34907167Y-32648735D01*
X34550024Y-32763021D01*
X34907167Y-32877307D01*
X34407167Y-32991593D01*
X34228596Y-33191593D02*
X34192882Y-33220164D01*
X34157167Y-33277307D01*
X34157167Y-33420164D01*
X34192882Y-33477307D01*
X34228596Y-33505878D01*
X34300024Y-33534450D01*
X34371453Y-33534450D01*
X34478596Y-33505878D01*
X34907167Y-33163021D01*
X34907167Y-33534450D01*
X11779310Y-53292545D02*
X11779310Y-52530640D01*
X12160262Y-52911593D02*
X11398358Y-52911593D01*
X21492882Y-32134450D02*
X21457167Y-32077307D01*
X21457167Y-31991593D01*
X21492882Y-31905878D01*
X21564310Y-31848735D01*
X21635739Y-31820164D01*
X21778596Y-31791593D01*
X21885739Y-31791593D01*
X22028596Y-31820164D01*
X22100024Y-31848735D01*
X22171453Y-31905878D01*
X22207167Y-31991593D01*
X22207167Y-32048735D01*
X22171453Y-32134450D01*
X22135739Y-32163021D01*
X21885739Y-32163021D01*
X21885739Y-32048735D01*
X22207167Y-32420164D02*
X21457167Y-32420164D01*
X22207167Y-32763021D01*
X21457167Y-32763021D01*
X22207167Y-33048735D02*
X21457167Y-33048735D01*
X21457167Y-33191593D01*
X21492882Y-33277307D01*
X21564310Y-33334450D01*
X21635739Y-33363021D01*
X21778596Y-33391593D01*
X21885739Y-33391593D01*
X22028596Y-33363021D01*
X22100024Y-33334450D01*
X22171453Y-33277307D01*
X22207167Y-33191593D01*
X22207167Y-33048735D01*
X39951453Y-52340164D02*
X39987167Y-52283021D01*
X39987167Y-52168735D01*
X39951453Y-52111593D01*
X39915739Y-52083021D01*
X39844310Y-52054450D01*
X39630024Y-52054450D01*
X39558596Y-52083021D01*
X39522882Y-52111593D01*
X39487167Y-52168735D01*
X39487167Y-52283021D01*
X39522882Y-52340164D01*
X39987167Y-52683021D02*
X39951453Y-52625878D01*
X39915739Y-52597307D01*
X39844310Y-52568735D01*
X39630024Y-52568735D01*
X39558596Y-52597307D01*
X39522882Y-52625878D01*
X39487167Y-52683021D01*
X39487167Y-52768735D01*
X39522882Y-52825878D01*
X39558596Y-52854450D01*
X39630024Y-52883021D01*
X39844310Y-52883021D01*
X39915739Y-52854450D01*
X39951453Y-52825878D01*
X39987167Y-52768735D01*
X39987167Y-52683021D01*
X39987167Y-53225878D02*
X39951453Y-53168735D01*
X39880024Y-53140164D01*
X39237167Y-53140164D01*
X39237167Y-53740164D02*
X39237167Y-53454450D01*
X39594310Y-53425878D01*
X39558596Y-53454450D01*
X39522882Y-53511593D01*
X39522882Y-53654450D01*
X39558596Y-53711593D01*
X39594310Y-53740164D01*
X39665739Y-53768735D01*
X39844310Y-53768735D01*
X39915739Y-53740164D01*
X39951453Y-53711593D01*
X39987167Y-53654450D01*
X39987167Y-53511593D01*
X39951453Y-53454450D01*
X39915739Y-53425878D01*
X32367167Y-31677307D02*
X31867167Y-31677307D01*
X32010024Y-31677307D02*
X31938596Y-31705878D01*
X31902882Y-31734450D01*
X31867167Y-31791593D01*
X31867167Y-31848735D01*
X32367167Y-32134450D02*
X32331453Y-32077307D01*
X32295739Y-32048735D01*
X32224310Y-32020164D01*
X32010024Y-32020164D01*
X31938596Y-32048735D01*
X31902882Y-32077307D01*
X31867167Y-32134450D01*
X31867167Y-32220164D01*
X31902882Y-32277307D01*
X31938596Y-32305878D01*
X32010024Y-32334450D01*
X32224310Y-32334450D01*
X32295739Y-32305878D01*
X32331453Y-32277307D01*
X32367167Y-32220164D01*
X32367167Y-32134450D01*
X31867167Y-32534450D02*
X32367167Y-32648735D01*
X32010024Y-32763021D01*
X32367167Y-32877307D01*
X31867167Y-32991593D01*
X32367167Y-33534450D02*
X32367167Y-33191593D01*
X32367167Y-33363021D02*
X31617167Y-33363021D01*
X31724310Y-33305878D01*
X31795739Y-33248735D01*
X31831453Y-33191593D01*
X29827167Y-31677307D02*
X29327167Y-31677307D01*
X29470024Y-31677307D02*
X29398596Y-31705878D01*
X29362882Y-31734450D01*
X29327167Y-31791593D01*
X29327167Y-31848735D01*
X29827167Y-32134450D02*
X29791453Y-32077307D01*
X29755739Y-32048735D01*
X29684310Y-32020164D01*
X29470024Y-32020164D01*
X29398596Y-32048735D01*
X29362882Y-32077307D01*
X29327167Y-32134450D01*
X29327167Y-32220164D01*
X29362882Y-32277307D01*
X29398596Y-32305878D01*
X29470024Y-32334450D01*
X29684310Y-32334450D01*
X29755739Y-32305878D01*
X29791453Y-32277307D01*
X29827167Y-32220164D01*
X29827167Y-32134450D01*
X29327167Y-32534450D02*
X29827167Y-32648735D01*
X29470024Y-32763021D01*
X29827167Y-32877307D01*
X29327167Y-32991593D01*
X29077167Y-33334450D02*
X29077167Y-33391593D01*
X29112882Y-33448735D01*
X29148596Y-33477307D01*
X29220024Y-33505878D01*
X29362882Y-33534450D01*
X29541453Y-33534450D01*
X29684310Y-33505878D01*
X29755739Y-33477307D01*
X29791453Y-33448735D01*
X29827167Y-33391593D01*
X29827167Y-33334450D01*
X29791453Y-33277307D01*
X29755739Y-33248735D01*
X29684310Y-33220164D01*
X29541453Y-33191593D01*
X29362882Y-33191593D01*
X29220024Y-33220164D01*
X29148596Y-33248735D01*
X29112882Y-33277307D01*
X29077167Y-33334450D01*
X37447167Y-31677307D02*
X36947167Y-31677307D01*
X37090024Y-31677307D02*
X37018596Y-31705878D01*
X36982882Y-31734450D01*
X36947167Y-31791593D01*
X36947167Y-31848735D01*
X37447167Y-32134450D02*
X37411453Y-32077307D01*
X37375739Y-32048735D01*
X37304310Y-32020164D01*
X37090024Y-32020164D01*
X37018596Y-32048735D01*
X36982882Y-32077307D01*
X36947167Y-32134450D01*
X36947167Y-32220164D01*
X36982882Y-32277307D01*
X37018596Y-32305878D01*
X37090024Y-32334450D01*
X37304310Y-32334450D01*
X37375739Y-32305878D01*
X37411453Y-32277307D01*
X37447167Y-32220164D01*
X37447167Y-32134450D01*
X36947167Y-32534450D02*
X37447167Y-32648735D01*
X37090024Y-32763021D01*
X37447167Y-32877307D01*
X36947167Y-32991593D01*
X36697167Y-33163021D02*
X36697167Y-33534450D01*
X36982882Y-33334450D01*
X36982882Y-33420164D01*
X37018596Y-33477307D01*
X37054310Y-33505878D01*
X37125739Y-33534450D01*
X37304310Y-33534450D01*
X37375739Y-33505878D01*
X37411453Y-33477307D01*
X37447167Y-33420164D01*
X37447167Y-33248735D01*
X37411453Y-33191593D01*
X37375739Y-33163021D01*
X34871453Y-52340164D02*
X34907167Y-52283021D01*
X34907167Y-52168735D01*
X34871453Y-52111593D01*
X34835739Y-52083021D01*
X34764310Y-52054450D01*
X34550024Y-52054450D01*
X34478596Y-52083021D01*
X34442882Y-52111593D01*
X34407167Y-52168735D01*
X34407167Y-52283021D01*
X34442882Y-52340164D01*
X34907167Y-52683021D02*
X34871453Y-52625878D01*
X34835739Y-52597307D01*
X34764310Y-52568735D01*
X34550024Y-52568735D01*
X34478596Y-52597307D01*
X34442882Y-52625878D01*
X34407167Y-52683021D01*
X34407167Y-52768735D01*
X34442882Y-52825878D01*
X34478596Y-52854450D01*
X34550024Y-52883021D01*
X34764310Y-52883021D01*
X34835739Y-52854450D01*
X34871453Y-52825878D01*
X34907167Y-52768735D01*
X34907167Y-52683021D01*
X34907167Y-53225878D02*
X34871453Y-53168735D01*
X34800024Y-53140164D01*
X34157167Y-53140164D01*
X34157167Y-53397307D02*
X34157167Y-53768735D01*
X34442882Y-53568735D01*
X34442882Y-53654450D01*
X34478596Y-53711593D01*
X34514310Y-53740164D01*
X34585739Y-53768735D01*
X34764310Y-53768735D01*
X34835739Y-53740164D01*
X34871453Y-53711593D01*
X34907167Y-53654450D01*
X34907167Y-53483021D01*
X34871453Y-53425878D01*
X34835739Y-53397307D01*
D13*
%TO.C,SW22*%
X7407289Y-97291639D02*
X7407289Y-96641639D01*
D14*
X15807289Y-96541639D02*
X9107289Y-96541639D01*
D15*
X17107289Y-95341639D02*
X17107289Y-97841639D01*
D16*
X7907289Y-99741639D02*
X7907289Y-97941640D01*
D17*
X17407289Y-98091639D02*
X16107289Y-98041639D01*
D11*
X7307289Y-97391639D02*
X7507289Y-97391639D01*
X7307289Y-96641639D02*
X7307289Y-97391639D01*
X7557289Y-95791639D02*
X7557289Y-100241639D01*
D18*
X9037289Y-96241639D02*
X9037289Y-98481639D01*
D11*
X12807289Y-98341639D02*
X17607289Y-98341639D01*
X17607289Y-94741639D02*
X9407288Y-94741639D01*
D17*
X7757289Y-100041639D02*
X10207289Y-100041639D01*
D11*
X7557289Y-100241639D02*
X10587289Y-100241639D01*
X17587289Y-97341639D02*
X17587289Y-95091639D01*
X17607289Y-98341639D02*
X17607289Y-94741639D01*
D19*
X17457289Y-94941639D02*
X16207289Y-94941639D01*
D15*
X12423607Y-97941639D02*
G75*
G03*
X10211259Y-99792230I-64999J-2170002D01*
G01*
D11*
X9407288Y-94741638D02*
G75*
G03*
X7307289Y-96641640I-100000J-1999999D01*
G01*
X12807289Y-98341639D02*
G75*
G03*
X10590971Y-100220168I-65001J-2169999D01*
G01*
%TO.C,SW26*%
X92027359Y-108803984D02*
X96537884Y-110445681D01*
D17*
X96435450Y-110142354D02*
X95230951Y-109650743D01*
D14*
X95462074Y-108138598D02*
X89166133Y-105847063D01*
D11*
X86444135Y-108793794D02*
X89291403Y-109830115D01*
D13*
X87312140Y-105970398D02*
X87534453Y-105359598D01*
D19*
X97559799Y-107199423D02*
X96385183Y-106771898D01*
D11*
X97769156Y-107062787D02*
X90063676Y-104258222D01*
X87183969Y-106030165D02*
X87371908Y-106098569D01*
X96537884Y-110445681D02*
X97769156Y-107062787D01*
D16*
X86944037Y-108443655D02*
X87559673Y-106752209D01*
D15*
X97094098Y-107455593D02*
X96239048Y-109804824D01*
D18*
X89202961Y-105541214D02*
X88436835Y-107646125D01*
D11*
X87440484Y-105325396D02*
X87183969Y-106030165D01*
X96861110Y-109499148D02*
X97630656Y-107384839D01*
D17*
X86700477Y-108674260D02*
X89002724Y-109512209D01*
D11*
X87966124Y-104612162D02*
X86444135Y-108793794D01*
X90063676Y-104258222D02*
G75*
G03*
X87440484Y-105325397I-778010J-1845180D01*
G01*
D15*
X91803624Y-108296880D02*
G75*
G03*
X89091758Y-109279199I-803263J-2016904D01*
G01*
D11*
X92027359Y-108803984D02*
G75*
G03*
X89302207Y-109811199I-803264J-2016900D01*
G01*
D16*
%TO.C,SW21*%
X124786523Y-101944608D02*
X125402159Y-100253162D01*
D14*
X133304560Y-101639551D02*
X127008619Y-99348016D01*
D11*
X124286621Y-102294747D02*
X127133889Y-103331068D01*
D15*
X134936584Y-100956546D02*
X134081534Y-103305777D01*
D11*
X135611642Y-100563740D02*
X127906162Y-97759175D01*
X129869845Y-102304937D02*
X134380370Y-103946634D01*
D17*
X134277936Y-103643307D02*
X133073437Y-103151696D01*
D11*
X134703596Y-103000101D02*
X135473142Y-100885792D01*
X125282970Y-98826349D02*
X125026455Y-99531118D01*
D19*
X135402285Y-100700376D02*
X134227669Y-100272851D01*
D11*
X134380370Y-103946634D02*
X135611642Y-100563740D01*
X125026455Y-99531118D02*
X125214394Y-99599522D01*
D13*
X125154626Y-99471351D02*
X125376939Y-98860551D01*
D17*
X124542963Y-102175213D02*
X126845210Y-103013162D01*
D18*
X127045447Y-99042167D02*
X126279321Y-101147078D01*
D11*
X125808610Y-98113115D02*
X124286621Y-102294747D01*
X129869845Y-102304937D02*
G75*
G03*
X127144693Y-103312152I-803264J-2016900D01*
G01*
D15*
X129646110Y-101797833D02*
G75*
G03*
X126934244Y-102780152I-803263J-2016904D01*
G01*
D11*
X127906162Y-97759175D02*
G75*
G03*
X125282970Y-98826350I-778010J-1845180D01*
G01*
D16*
%TO.C,SW28*%
X122746323Y-121474622D02*
X123361959Y-119783176D01*
D18*
X125005247Y-118572181D02*
X124239121Y-120677092D01*
D11*
X127829645Y-121834951D02*
X132340170Y-123476648D01*
D19*
X133362085Y-120230390D02*
X132187469Y-119802865D01*
D11*
X132663396Y-122530115D02*
X133432942Y-120415806D01*
X132340170Y-123476648D02*
X133571442Y-120093754D01*
X122246421Y-121824761D02*
X125093689Y-122861082D01*
D14*
X131264360Y-121169565D02*
X124968419Y-118878030D01*
D11*
X123242770Y-118356363D02*
X122986255Y-119061132D01*
X122986255Y-119061132D02*
X123174194Y-119129536D01*
D13*
X123114426Y-119001365D02*
X123336739Y-118390565D01*
D11*
X123768410Y-117643129D02*
X122246421Y-121824761D01*
D15*
X132896384Y-120486560D02*
X132041334Y-122835791D01*
D17*
X132237736Y-123173321D02*
X131033237Y-122681710D01*
D11*
X133571442Y-120093754D02*
X125865962Y-117289189D01*
D17*
X122502763Y-121705227D02*
X124805010Y-122543176D01*
D11*
X125865962Y-117289189D02*
G75*
G03*
X123242770Y-118356364I-778010J-1845180D01*
G01*
D15*
X127605910Y-121327847D02*
G75*
G03*
X124894044Y-122310166I-803263J-2016904D01*
G01*
D11*
X127829645Y-121834951D02*
G75*
G03*
X125104493Y-122842166I-803264J-2016900D01*
G01*
D18*
%TO.C,SW6*%
X113224697Y-53466651D02*
X112458571Y-55571562D01*
D11*
X111205705Y-53955602D02*
X111393644Y-54024006D01*
X120882846Y-57424585D02*
X121652392Y-55310276D01*
X120559620Y-58371118D02*
X121790892Y-54988224D01*
D17*
X120457186Y-58067791D02*
X119252687Y-57576180D01*
D14*
X119483810Y-56064035D02*
X113187869Y-53772500D01*
D11*
X116049095Y-56729421D02*
X120559620Y-58371118D01*
X121790892Y-54988224D02*
X114085412Y-52183659D01*
D19*
X121581535Y-55124860D02*
X120406919Y-54697335D01*
D11*
X110465871Y-56719231D02*
X113313139Y-57755552D01*
X111462220Y-53250833D02*
X111205705Y-53955602D01*
X111987860Y-52537599D02*
X110465871Y-56719231D01*
D13*
X111333876Y-53895835D02*
X111556189Y-53285035D01*
D16*
X110965773Y-56369092D02*
X111581409Y-54677646D01*
D15*
X121115834Y-55381030D02*
X120260784Y-57730261D01*
D17*
X110722213Y-56599697D02*
X113024460Y-57437646D01*
D11*
X116049095Y-56729421D02*
G75*
G03*
X113323943Y-57736636I-803264J-2016900D01*
G01*
X114085412Y-52183659D02*
G75*
G03*
X111462220Y-53250834I-778010J-1845180D01*
G01*
D15*
X115825360Y-56222317D02*
G75*
G03*
X113113494Y-57204636I-803263J-2016904D01*
G01*
D18*
%TO.C,SW4*%
X77422408Y-40435685D02*
X76656282Y-42540596D01*
D11*
X80246806Y-43698455D02*
X84757331Y-45340152D01*
X74663582Y-43688265D02*
X77510850Y-44724586D01*
X76185571Y-39506633D02*
X74663582Y-43688265D01*
X85988603Y-41957258D02*
X78283123Y-39152693D01*
D17*
X74919924Y-43568731D02*
X77222171Y-44406680D01*
D11*
X75659931Y-40219867D02*
X75403416Y-40924636D01*
D14*
X83681521Y-43033069D02*
X77385580Y-40741534D01*
D13*
X75531587Y-40864869D02*
X75753900Y-40254069D01*
D15*
X85313545Y-42350064D02*
X84458495Y-44699295D01*
D11*
X85080557Y-44393619D02*
X85850103Y-42279310D01*
D17*
X84654897Y-45036825D02*
X83450398Y-44545214D01*
D16*
X75163484Y-43338126D02*
X75779120Y-41646680D01*
D11*
X84757331Y-45340152D02*
X85988603Y-41957258D01*
X75403416Y-40924636D02*
X75591355Y-40993040D01*
D19*
X85779246Y-42093894D02*
X84604630Y-41666369D01*
D15*
X80023071Y-43191351D02*
G75*
G03*
X77311205Y-44173670I-803263J-2016904D01*
G01*
D11*
X80246806Y-43698455D02*
G75*
G03*
X77521654Y-44705670I-803264J-2016900D01*
G01*
X78283123Y-39152693D02*
G75*
G03*
X75659931Y-40219868I-778010J-1845180D01*
G01*
%TO.C,SW14*%
X131910041Y-82774922D02*
X136420566Y-84416619D01*
D17*
X126583159Y-82645198D02*
X128885406Y-83483147D01*
D16*
X126826719Y-82414593D02*
X127442355Y-80723147D01*
D17*
X136318132Y-84113292D02*
X135113633Y-83621681D01*
D19*
X137442481Y-81170361D02*
X136267865Y-80742836D01*
D14*
X135344756Y-82109536D02*
X129048815Y-79818001D01*
D13*
X127194822Y-79941336D02*
X127417135Y-79330536D01*
D11*
X127066651Y-80001103D02*
X127254590Y-80069507D01*
X126326817Y-82764732D02*
X129174085Y-83801053D01*
X127848806Y-78583100D02*
X126326817Y-82764732D01*
X136420566Y-84416619D02*
X137651838Y-81033725D01*
D15*
X136976780Y-81426531D02*
X136121730Y-83775762D01*
D11*
X127323166Y-79296334D02*
X127066651Y-80001103D01*
X137651838Y-81033725D02*
X129946358Y-78229160D01*
D18*
X129085643Y-79512152D02*
X128319517Y-81617063D01*
D11*
X136743792Y-83470086D02*
X137513338Y-81355777D01*
D15*
X131686306Y-82267818D02*
G75*
G03*
X128974440Y-83250137I-803263J-2016904D01*
G01*
D11*
X131910041Y-82774922D02*
G75*
G03*
X129184889Y-83782137I-803264J-2016900D01*
G01*
X129946358Y-78229160D02*
G75*
G03*
X127323166Y-79296335I-778010J-1845180D01*
G01*
D14*
%TO.C,SW31*%
X57619586Y-114637645D02*
X51323645Y-112346110D01*
D11*
X48601647Y-115292841D02*
X51448915Y-116329162D01*
X58695396Y-116944728D02*
X59926668Y-113561834D01*
X54184871Y-115303031D02*
X58695396Y-116944728D01*
X49597996Y-111824443D02*
X49341481Y-112529212D01*
D18*
X51360473Y-112040261D02*
X50594347Y-114145172D01*
D11*
X59926668Y-113561834D02*
X52221188Y-110757269D01*
X49341481Y-112529212D02*
X49529420Y-112597616D01*
D15*
X59251610Y-113954640D02*
X58396560Y-116303871D01*
D17*
X48857989Y-115173307D02*
X51160236Y-116011256D01*
D11*
X50123636Y-111111209D02*
X48601647Y-115292841D01*
X59018622Y-115998195D02*
X59788168Y-113883886D01*
D19*
X59717311Y-113698470D02*
X58542695Y-113270945D01*
D13*
X49469652Y-112469445D02*
X49691965Y-111858645D01*
D17*
X58592962Y-116641401D02*
X57388463Y-116149790D01*
D16*
X49101549Y-114942702D02*
X49717185Y-113251256D01*
D11*
X52221188Y-110757269D02*
G75*
G03*
X49597996Y-111824444I-778010J-1845180D01*
G01*
D15*
X53961136Y-114795927D02*
G75*
G03*
X51249270Y-115778246I-803263J-2016904D01*
G01*
D11*
X54184871Y-115303031D02*
G75*
G03*
X51459719Y-116310246I-803264J-2016900D01*
G01*
D14*
%TO.C,SW18*%
X79601124Y-82093099D02*
X73305183Y-79801564D01*
D11*
X72105174Y-78566663D02*
X70583185Y-82748295D01*
D18*
X73342011Y-79495715D02*
X72575885Y-81600626D01*
D13*
X71451190Y-79924899D02*
X71673503Y-79314099D01*
D11*
X81908206Y-81017288D02*
X74202726Y-78212723D01*
X71579534Y-79279897D02*
X71323019Y-79984666D01*
X71323019Y-79984666D02*
X71510958Y-80053070D01*
X80676934Y-84400182D02*
X81908206Y-81017288D01*
X70583185Y-82748295D02*
X73430453Y-83784616D01*
D17*
X80574500Y-84096855D02*
X79370001Y-83605244D01*
D11*
X81000160Y-83453649D02*
X81769706Y-81339340D01*
X76166409Y-82758485D02*
X80676934Y-84400182D01*
D17*
X70839527Y-82628761D02*
X73141774Y-83466710D01*
D19*
X81698849Y-81153924D02*
X80524233Y-80726399D01*
D16*
X71083087Y-82398156D02*
X71698723Y-80706710D01*
D15*
X81233148Y-81410094D02*
X80378098Y-83759325D01*
D11*
X76166409Y-82758485D02*
G75*
G03*
X73441257Y-83765700I-803264J-2016900D01*
G01*
D15*
X75942674Y-82251381D02*
G75*
G03*
X73230808Y-83233700I-803263J-2016904D01*
G01*
D11*
X74202726Y-78212723D02*
G75*
G03*
X71579534Y-79279898I-778010J-1845180D01*
G01*
D19*
%TO.C,SW32*%
X74360714Y-129164528D02*
X73186098Y-128737003D01*
D14*
X72262989Y-130103703D02*
X65967048Y-127812168D01*
D11*
X64241399Y-127290501D02*
X63984884Y-127995270D01*
X63245050Y-130758899D02*
X66092318Y-131795220D01*
X63984884Y-127995270D02*
X64172823Y-128063674D01*
X73338799Y-132410786D02*
X74570071Y-129027892D01*
X73662025Y-131464253D02*
X74431571Y-129349944D01*
D18*
X66003876Y-127506319D02*
X65237750Y-129611230D01*
D16*
X63744952Y-130408760D02*
X64360588Y-128717314D01*
D11*
X64767039Y-126577267D02*
X63245050Y-130758899D01*
X74570071Y-129027892D02*
X66864591Y-126223327D01*
D13*
X64113055Y-127935503D02*
X64335368Y-127324703D01*
D15*
X73895013Y-129420698D02*
X73039963Y-131769929D01*
D17*
X73236365Y-132107459D02*
X72031866Y-131615848D01*
D11*
X68828274Y-130769089D02*
X73338799Y-132410786D01*
D17*
X63501392Y-130639365D02*
X65803639Y-131477314D01*
D11*
X68828274Y-130769089D02*
G75*
G03*
X66103122Y-131776304I-803264J-2016900D01*
G01*
X66864591Y-126223327D02*
G75*
G03*
X64241399Y-127290502I-778010J-1845180D01*
G01*
D15*
X68604539Y-130261985D02*
G75*
G03*
X65892673Y-131244304I-803263J-2016904D01*
G01*
D17*
%TO.C,SW7*%
X138358330Y-64583276D02*
X137153831Y-64091665D01*
D15*
X139016978Y-61896515D02*
X138161928Y-64245746D01*
D11*
X129889004Y-59053084D02*
X128367015Y-63234716D01*
D17*
X128623357Y-63115182D02*
X130925604Y-63953131D01*
D19*
X139482679Y-61640345D02*
X138308063Y-61212820D01*
D11*
X139692036Y-61503709D02*
X131986556Y-58699144D01*
X128367015Y-63234716D02*
X131214283Y-64271037D01*
X129363364Y-59766318D02*
X129106849Y-60471087D01*
D13*
X129235020Y-60411320D02*
X129457333Y-59800520D01*
D14*
X137384954Y-62579520D02*
X131089013Y-60287985D01*
D11*
X138460764Y-64886603D02*
X139692036Y-61503709D01*
D18*
X131125841Y-59982136D02*
X130359715Y-62087047D01*
D16*
X128866917Y-62884577D02*
X129482553Y-61193131D01*
D11*
X129106849Y-60471087D02*
X129294788Y-60539491D01*
X138783990Y-63940070D02*
X139553536Y-61825761D01*
X133950239Y-63244906D02*
X138460764Y-64886603D01*
X133950239Y-63244906D02*
G75*
G03*
X131225087Y-64252121I-803264J-2016900D01*
G01*
D15*
X133726504Y-62737802D02*
G75*
G03*
X131014638Y-63720121I-803263J-2016904D01*
G01*
D11*
X131986556Y-58699144D02*
G75*
G03*
X129363364Y-59766319I-778010J-1845180D01*
G01*
%TO.C,SW16*%
X38697487Y-78811624D02*
X38697487Y-75211624D01*
D16*
X28997487Y-80211624D02*
X28997487Y-78411625D01*
D17*
X28847487Y-80511624D02*
X31297487Y-80511624D01*
D11*
X28397487Y-77861624D02*
X28597487Y-77861624D01*
D14*
X36897487Y-77011624D02*
X30197487Y-77011624D01*
D19*
X38547487Y-75411624D02*
X37297487Y-75411624D01*
D17*
X38497487Y-78561624D02*
X37197487Y-78511624D01*
D11*
X28647487Y-80711624D02*
X31677487Y-80711624D01*
X28647487Y-76261624D02*
X28647487Y-80711624D01*
X38697487Y-75211624D02*
X30497486Y-75211624D01*
X38677487Y-77811624D02*
X38677487Y-75561624D01*
D13*
X28497487Y-77761624D02*
X28497487Y-77111624D01*
D15*
X38197487Y-75811624D02*
X38197487Y-78311624D01*
D11*
X33897487Y-78811624D02*
X38697487Y-78811624D01*
X28397487Y-77111624D02*
X28397487Y-77861624D01*
D18*
X30127487Y-76711624D02*
X30127487Y-78951624D01*
D11*
X33897487Y-78811624D02*
G75*
G03*
X31681169Y-80690153I-65001J-2169999D01*
G01*
D15*
X33513805Y-78411624D02*
G75*
G03*
X31301457Y-80262215I-64999J-2170002D01*
G01*
D11*
X30497486Y-75211623D02*
G75*
G03*
X28397487Y-77111625I-100000J-1999999D01*
G01*
%TO.C,SW33*%
X94497685Y-129975695D02*
X95728957Y-126592801D01*
X95728957Y-126592801D02*
X88023477Y-123788236D01*
X85925925Y-124142176D02*
X84403936Y-128323808D01*
D13*
X85271941Y-125500412D02*
X85494254Y-124889612D01*
D15*
X95053899Y-126985607D02*
X94198849Y-129334838D01*
D11*
X94820911Y-129029162D02*
X95590457Y-126914853D01*
X84403936Y-128323808D02*
X87251204Y-129360129D01*
D19*
X95519600Y-126729437D02*
X94344984Y-126301912D01*
D11*
X85143770Y-125560179D02*
X85331709Y-125628583D01*
D17*
X94395251Y-129672368D02*
X93190752Y-129180757D01*
D14*
X93421875Y-127668612D02*
X87125934Y-125377077D01*
D18*
X87162762Y-125071228D02*
X86396636Y-127176139D01*
D11*
X85400285Y-124855410D02*
X85143770Y-125560179D01*
X89987160Y-128333998D02*
X94497685Y-129975695D01*
D17*
X84660278Y-128204274D02*
X86962525Y-129042223D01*
D16*
X84903838Y-127973669D02*
X85519474Y-126282223D01*
D15*
X89763425Y-127826894D02*
G75*
G03*
X87051559Y-128809213I-803263J-2016904D01*
G01*
D11*
X89987160Y-128333998D02*
G75*
G03*
X87262008Y-129341213I-803264J-2016900D01*
G01*
X88023477Y-123788236D02*
G75*
G03*
X85400285Y-124855411I-778010J-1845180D01*
G01*
%TO.C,SW19*%
X89480681Y-85795381D02*
X89224166Y-86500150D01*
X98901307Y-89969133D02*
X99670853Y-87854824D01*
D19*
X99599996Y-87669408D02*
X98425380Y-87241883D01*
D13*
X89352337Y-86440383D02*
X89574650Y-85829583D01*
D11*
X88484332Y-89263779D02*
X91331600Y-90300100D01*
D16*
X88984234Y-88913640D02*
X89599870Y-87222194D01*
D11*
X90006321Y-85082147D02*
X88484332Y-89263779D01*
D14*
X97502271Y-88608583D02*
X91206330Y-86317048D01*
D11*
X89224166Y-86500150D02*
X89412105Y-86568554D01*
D15*
X99134295Y-87925578D02*
X98279245Y-90274809D01*
D17*
X88740674Y-89144245D02*
X91042921Y-89982194D01*
X98475647Y-90612339D02*
X97271148Y-90120728D01*
D18*
X91243158Y-86011199D02*
X90477032Y-88116110D01*
D11*
X99809353Y-87532772D02*
X92103873Y-84728207D01*
X94067556Y-89273969D02*
X98578081Y-90915666D01*
X98578081Y-90915666D02*
X99809353Y-87532772D01*
X92103873Y-84728207D02*
G75*
G03*
X89480681Y-85795382I-778010J-1845180D01*
G01*
D15*
X93843821Y-88766865D02*
G75*
G03*
X91131955Y-89749184I-803263J-2016904D01*
G01*
D11*
X94067556Y-89273969D02*
G75*
G03*
X91342404Y-90281184I-803264J-2016900D01*
G01*
D19*
%TO.C,SW1*%
X23577882Y-36351593D02*
X22327882Y-36351593D01*
D17*
X23527882Y-39501593D02*
X22227882Y-39451593D01*
D13*
X13527882Y-38701593D02*
X13527882Y-38051593D01*
D11*
X23727882Y-39751593D02*
X23727882Y-36151593D01*
D14*
X21927882Y-37951593D02*
X15227882Y-37951593D01*
D11*
X23727882Y-36151593D02*
X15527881Y-36151593D01*
D17*
X13877882Y-41451593D02*
X16327882Y-41451593D01*
D11*
X13427882Y-38801593D02*
X13627882Y-38801593D01*
D16*
X14027882Y-41151593D02*
X14027882Y-39351594D01*
D11*
X13677882Y-37201593D02*
X13677882Y-41651593D01*
X13427882Y-38051593D02*
X13427882Y-38801593D01*
D15*
X23227882Y-36751593D02*
X23227882Y-39251593D01*
D11*
X23707882Y-38751593D02*
X23707882Y-36501593D01*
X18927882Y-39751593D02*
X23727882Y-39751593D01*
X13677882Y-41651593D02*
X16707882Y-41651593D01*
D18*
X15157882Y-37651593D02*
X15157882Y-39891593D01*
D11*
X18927882Y-39751593D02*
G75*
G03*
X16711564Y-41630122I-65001J-2169999D01*
G01*
X15527881Y-36151592D02*
G75*
G03*
X13427882Y-38051594I-100000J-1999999D01*
G01*
D15*
X18544200Y-39351593D02*
G75*
G03*
X16331852Y-41202184I-64999J-2170002D01*
G01*
D14*
%TO.C,SW15*%
X17847487Y-77011623D02*
X11147487Y-77011623D01*
D11*
X19647487Y-78811623D02*
X19647487Y-75211623D01*
X9597487Y-80711623D02*
X12627487Y-80711623D01*
X19647487Y-75211623D02*
X11447486Y-75211623D01*
D18*
X11077487Y-76711623D02*
X11077487Y-78951623D01*
D13*
X9447487Y-77761623D02*
X9447487Y-77111623D01*
D15*
X19147487Y-75811623D02*
X19147487Y-78311623D01*
D11*
X9597487Y-76261623D02*
X9597487Y-80711623D01*
X14847487Y-78811623D02*
X19647487Y-78811623D01*
D17*
X19447487Y-78561623D02*
X18147487Y-78511623D01*
X9797487Y-80511623D02*
X12247487Y-80511623D01*
D11*
X9347487Y-77861623D02*
X9547487Y-77861623D01*
D19*
X19497487Y-75411623D02*
X18247487Y-75411623D01*
D11*
X9347487Y-77111623D02*
X9347487Y-77861623D01*
X19627487Y-77811623D02*
X19627487Y-75561623D01*
D16*
X9947487Y-80211623D02*
X9947487Y-78411624D01*
D15*
X14463805Y-78411623D02*
G75*
G03*
X12251457Y-80262214I-64999J-2170002D01*
G01*
D11*
X14847487Y-78811623D02*
G75*
G03*
X12631169Y-80690152I-65001J-2169999D01*
G01*
X11447486Y-75211622D02*
G75*
G03*
X9347487Y-77111624I-100000J-1999999D01*
G01*
%TO.C,SW25*%
X68542988Y-102278310D02*
X71390256Y-103314631D01*
X78636737Y-103930197D02*
X79868009Y-100547303D01*
D18*
X71301814Y-99025730D02*
X70535688Y-101130641D01*
D13*
X69410993Y-99454914D02*
X69633306Y-98844114D01*
D11*
X69282822Y-99514681D02*
X69470761Y-99583085D01*
X69539337Y-98809912D02*
X69282822Y-99514681D01*
D17*
X78534303Y-103626870D02*
X77329804Y-103135259D01*
D11*
X74126212Y-102288500D02*
X78636737Y-103930197D01*
X78959963Y-102983664D02*
X79729509Y-100869355D01*
D14*
X77560927Y-101623114D02*
X71264986Y-99331579D01*
D16*
X69042890Y-101928171D02*
X69658526Y-100236725D01*
D19*
X79658652Y-100683939D02*
X78484036Y-100256414D01*
D15*
X79192951Y-100940109D02*
X78337901Y-103289340D01*
D17*
X68799330Y-102158776D02*
X71101577Y-102996725D01*
D11*
X79868009Y-100547303D02*
X72162529Y-97742738D01*
X70064977Y-98096678D02*
X68542988Y-102278310D01*
X74126212Y-102288500D02*
G75*
G03*
X71401060Y-103295715I-803264J-2016900D01*
G01*
D15*
X73902477Y-101781396D02*
G75*
G03*
X71190611Y-102763715I-803263J-2016904D01*
G01*
D11*
X72162529Y-97742738D02*
G75*
G03*
X69539337Y-98809913I-778010J-1845180D01*
G01*
D17*
%TO.C,SW29*%
X15367090Y-117621656D02*
X14067090Y-117571656D01*
D15*
X15067090Y-114871656D02*
X15067090Y-117371656D01*
D16*
X5867090Y-119271656D02*
X5867090Y-117471657D01*
D11*
X5267090Y-116171656D02*
X5267090Y-116921656D01*
D17*
X5717090Y-119571656D02*
X8167090Y-119571656D01*
D11*
X10767090Y-117871656D02*
X15567090Y-117871656D01*
X5517090Y-119771656D02*
X8547090Y-119771656D01*
D18*
X6997090Y-115771656D02*
X6997090Y-118011656D01*
D11*
X15567090Y-114271656D02*
X7367089Y-114271656D01*
D19*
X15417090Y-114471656D02*
X14167090Y-114471656D01*
D13*
X5367090Y-116821656D02*
X5367090Y-116171656D01*
D11*
X5517090Y-115321656D02*
X5517090Y-119771656D01*
X5267090Y-116921656D02*
X5467090Y-116921656D01*
X15547090Y-116871656D02*
X15547090Y-114621656D01*
X15567090Y-117871656D02*
X15567090Y-114271656D01*
D14*
X13767090Y-116071656D02*
X7067090Y-116071656D01*
D15*
X10383408Y-117471656D02*
G75*
G03*
X8171060Y-119322247I-64999J-2170002D01*
G01*
D11*
X7367089Y-114271655D02*
G75*
G03*
X5267090Y-116171657I-100000J-1999999D01*
G01*
X10767090Y-117871656D02*
G75*
G03*
X8550772Y-119750185I-65001J-2169999D01*
G01*
D18*
%TO.C,SW35*%
X122965050Y-138102196D02*
X122198924Y-140207107D01*
D11*
X131531245Y-139623769D02*
X123825765Y-136819204D01*
X121728213Y-137173144D02*
X120206224Y-141354776D01*
D14*
X129224163Y-140699580D02*
X122928222Y-138408045D01*
D16*
X120706126Y-141004637D02*
X121321762Y-139313191D01*
D15*
X130856187Y-140016575D02*
X130001137Y-142365806D01*
D11*
X130623199Y-142060130D02*
X131392745Y-139945821D01*
X120946058Y-138591147D02*
X121133997Y-138659551D01*
D17*
X120462566Y-141235242D02*
X122764813Y-142073191D01*
X130197539Y-142703336D02*
X128993040Y-142211725D01*
D11*
X125789448Y-141364966D02*
X130299973Y-143006663D01*
D19*
X131321888Y-139760405D02*
X130147272Y-139332880D01*
D11*
X120206224Y-141354776D02*
X123053492Y-142391097D01*
X121202573Y-137886378D02*
X120946058Y-138591147D01*
D13*
X121074229Y-138531380D02*
X121296542Y-137920580D01*
D11*
X130299973Y-143006663D02*
X131531245Y-139623769D01*
X125789448Y-141364966D02*
G75*
G03*
X123064296Y-142372181I-803264J-2016900D01*
G01*
X123825765Y-136819204D02*
G75*
G03*
X121202573Y-137886379I-778010J-1845180D01*
G01*
D15*
X125565713Y-140857862D02*
G75*
G03*
X122853847Y-141840181I-803263J-2016904D01*
G01*
D19*
%TO.C,SW9*%
X40587685Y-55881607D02*
X39337685Y-55881607D01*
D11*
X35937685Y-59281607D02*
X40737685Y-59281607D01*
D17*
X40537685Y-59031607D02*
X39237685Y-58981607D01*
D13*
X30537685Y-58231607D02*
X30537685Y-57581607D01*
D11*
X40737685Y-55681607D02*
X32537684Y-55681607D01*
X40717685Y-58281607D02*
X40717685Y-56031607D01*
D18*
X32167685Y-57181607D02*
X32167685Y-59421607D01*
D11*
X30687685Y-61181607D02*
X33717685Y-61181607D01*
D14*
X38937685Y-57481607D02*
X32237685Y-57481607D01*
D11*
X30687685Y-56731607D02*
X30687685Y-61181607D01*
X30437685Y-58331607D02*
X30637685Y-58331607D01*
D15*
X40237685Y-56281607D02*
X40237685Y-58781607D01*
D16*
X31037685Y-60681607D02*
X31037685Y-58881608D01*
D17*
X30887685Y-60981607D02*
X33337685Y-60981607D01*
D11*
X40737685Y-59281607D02*
X40737685Y-55681607D01*
X30437685Y-57581607D02*
X30437685Y-58331607D01*
X32537684Y-55681606D02*
G75*
G03*
X30437685Y-57581608I-100000J-1999999D01*
G01*
D15*
X35554003Y-58881607D02*
G75*
G03*
X33341655Y-60732198I-64999J-2170002D01*
G01*
D11*
X35937685Y-59281607D02*
G75*
G03*
X33721367Y-61160136I-65001J-2169999D01*
G01*
D15*
%TO.C,SW27*%
X114995240Y-113971076D02*
X114140190Y-116320307D01*
D17*
X104601619Y-115189743D02*
X106903866Y-116027692D01*
D11*
X105867266Y-111127645D02*
X104345277Y-115309277D01*
X105085111Y-112545648D02*
X105273050Y-112614052D01*
D14*
X113363216Y-114654081D02*
X107067275Y-112362546D01*
D11*
X114439026Y-116961164D02*
X115670298Y-113578270D01*
D16*
X104845179Y-114959138D02*
X105460815Y-113267692D01*
D18*
X107104103Y-112056697D02*
X106337977Y-114161608D01*
D11*
X114762252Y-116014631D02*
X115531798Y-113900322D01*
D17*
X114336592Y-116657837D02*
X113132093Y-116166226D01*
D11*
X104345277Y-115309277D02*
X107192545Y-116345598D01*
D19*
X115460941Y-113714906D02*
X114286325Y-113287381D01*
D11*
X115670298Y-113578270D02*
X107964818Y-110773705D01*
X109928501Y-115319467D02*
X114439026Y-116961164D01*
X105341626Y-111840879D02*
X105085111Y-112545648D01*
D13*
X105213282Y-112485881D02*
X105435595Y-111875081D01*
D15*
X109704766Y-114812363D02*
G75*
G03*
X106992900Y-115794682I-803263J-2016904D01*
G01*
D11*
X109928501Y-115319467D02*
G75*
G03*
X107203349Y-116326682I-803264J-2016900D01*
G01*
X107964818Y-110773705D02*
G75*
G03*
X105341626Y-111840880I-778010J-1845180D01*
G01*
D16*
%TO.C,SW34*%
X102804981Y-134489154D02*
X103420617Y-132797708D01*
D11*
X113630100Y-133108286D02*
X105924620Y-130303721D01*
X102305079Y-134839293D02*
X105152347Y-135875614D01*
X112722054Y-135544647D02*
X113491600Y-133430338D01*
X112398828Y-136491180D02*
X113630100Y-133108286D01*
D14*
X111323018Y-134184097D02*
X105027077Y-131892562D01*
D17*
X102561421Y-134719759D02*
X104863668Y-135557708D01*
D15*
X112955042Y-133501092D02*
X112099992Y-135850323D01*
D11*
X103301428Y-131370895D02*
X103044913Y-132075664D01*
D13*
X103173084Y-132015897D02*
X103395397Y-131405097D01*
D11*
X107888303Y-134849483D02*
X112398828Y-136491180D01*
D19*
X113420743Y-133244922D02*
X112246127Y-132817397D01*
D11*
X103827068Y-130657661D02*
X102305079Y-134839293D01*
D18*
X105063905Y-131586713D02*
X104297779Y-133691624D01*
D17*
X112296394Y-136187853D02*
X111091895Y-135696242D01*
D11*
X103044913Y-132075664D02*
X103232852Y-132144068D01*
X105924620Y-130303721D02*
G75*
G03*
X103301428Y-131370896I-778010J-1845180D01*
G01*
D15*
X107664568Y-134342379D02*
G75*
G03*
X104952702Y-135324698I-803263J-2016904D01*
G01*
D11*
X107888303Y-134849483D02*
G75*
G03*
X105163151Y-135856698I-803264J-2016900D01*
G01*
%TO.C,SW20*%
X106385472Y-95779262D02*
X109232740Y-96815583D01*
D16*
X106885374Y-95429123D02*
X107501010Y-93737677D01*
D11*
X107125306Y-93015633D02*
X107313245Y-93084037D01*
D18*
X109144298Y-92526682D02*
X108378172Y-94631593D01*
D11*
X107381821Y-92310864D02*
X107125306Y-93015633D01*
X111968696Y-95789452D02*
X116479221Y-97431149D01*
D13*
X107253477Y-92955866D02*
X107475790Y-92345066D01*
D11*
X117710493Y-94048255D02*
X110005013Y-91243690D01*
X116479221Y-97431149D02*
X117710493Y-94048255D01*
X107907461Y-91597630D02*
X106385472Y-95779262D01*
D19*
X117501136Y-94184891D02*
X116326520Y-93757366D01*
D14*
X115403411Y-95124066D02*
X109107470Y-92832531D01*
D15*
X117035435Y-94441061D02*
X116180385Y-96790292D01*
D17*
X106641814Y-95659728D02*
X108944061Y-96497677D01*
D11*
X116802447Y-96484616D02*
X117571993Y-94370307D01*
D17*
X116376787Y-97127822D02*
X115172288Y-96636211D01*
D11*
X111968696Y-95789452D02*
G75*
G03*
X109243544Y-96796667I-803264J-2016900D01*
G01*
X110005013Y-91243690D02*
G75*
G03*
X107381821Y-92310865I-778010J-1845180D01*
G01*
D15*
X111744961Y-95282348D02*
G75*
G03*
X109033095Y-96264667I-803263J-2016904D01*
G01*
D11*
%TO.C,SW17*%
X63099017Y-76938166D02*
X63868563Y-74823857D01*
X64007063Y-74501805D02*
X56301583Y-71697240D01*
D18*
X55440868Y-72980232D02*
X54674742Y-75085143D01*
D11*
X62775791Y-77884699D02*
X64007063Y-74501805D01*
X53421876Y-73469183D02*
X53609815Y-73537587D01*
D16*
X53181944Y-75882673D02*
X53797580Y-74191227D01*
D11*
X54204031Y-72051180D02*
X52682042Y-76232812D01*
D19*
X63797706Y-74638441D02*
X62623090Y-74210916D01*
D11*
X52682042Y-76232812D02*
X55529310Y-77269133D01*
D17*
X52938384Y-76113278D02*
X55240631Y-76951227D01*
D15*
X63332005Y-74894611D02*
X62476955Y-77243842D01*
D11*
X58265266Y-76243002D02*
X62775791Y-77884699D01*
D13*
X53550047Y-73409416D02*
X53772360Y-72798616D01*
D17*
X62673357Y-77581372D02*
X61468858Y-77089761D01*
D14*
X61699981Y-75577616D02*
X55404040Y-73286081D01*
D11*
X53678391Y-72764414D02*
X53421876Y-73469183D01*
X56301583Y-71697240D02*
G75*
G03*
X53678391Y-72764415I-778010J-1845180D01*
G01*
D15*
X58041531Y-75735898D02*
G75*
G03*
X55329665Y-76718217I-803263J-2016904D01*
G01*
D11*
X58265266Y-76243002D02*
G75*
G03*
X55540114Y-77250217I-803264J-2016900D01*
G01*
%TO.C,SW3*%
X58284428Y-32991149D02*
X56762439Y-37172781D01*
D13*
X57630444Y-34349385D02*
X57852757Y-33738585D01*
D14*
X65780378Y-36517585D02*
X59484437Y-34226050D01*
D18*
X59521265Y-33920201D02*
X58755139Y-36025112D01*
D15*
X67412402Y-35834580D02*
X66557352Y-38183811D01*
D19*
X67878103Y-35578410D02*
X66703487Y-35150885D01*
D17*
X57018781Y-37053247D02*
X59321028Y-37891196D01*
D16*
X57262341Y-36822642D02*
X57877977Y-35131196D01*
D11*
X68087460Y-35441774D02*
X60381980Y-32637209D01*
D17*
X66753754Y-38521341D02*
X65549255Y-38029730D01*
D11*
X66856188Y-38824668D02*
X68087460Y-35441774D01*
X57502273Y-34409152D02*
X57690212Y-34477556D01*
X57758788Y-33704383D02*
X57502273Y-34409152D01*
X56762439Y-37172781D02*
X59609707Y-38209102D01*
X62345663Y-37182971D02*
X66856188Y-38824668D01*
X67179414Y-37878135D02*
X67948960Y-35763826D01*
D15*
X62121928Y-36675867D02*
G75*
G03*
X59410062Y-37658186I-803263J-2016904D01*
G01*
D11*
X62345663Y-37182971D02*
G75*
G03*
X59620511Y-38190186I-803264J-2016900D01*
G01*
X60381980Y-32637209D02*
G75*
G03*
X57758788Y-33704384I-778010J-1845180D01*
G01*
%TO.C,D31*%
X61503039Y-121978577D02*
X60563347Y-121636557D01*
X61161019Y-122918269D02*
X60221327Y-122576249D01*
X60725375Y-122653290D02*
X61503039Y-121978577D01*
X60563347Y-121636557D02*
X60725375Y-122653290D01*
%TO.C,SW30*%
X24317091Y-116921655D02*
X24517091Y-116921655D01*
X24567091Y-115321655D02*
X24567091Y-119771655D01*
X29817091Y-117871655D02*
X34617091Y-117871655D01*
D14*
X32817091Y-116071655D02*
X26117091Y-116071655D01*
D11*
X24317091Y-116171655D02*
X24317091Y-116921655D01*
D16*
X24917091Y-119271655D02*
X24917091Y-117471656D01*
D11*
X34617091Y-117871655D02*
X34617091Y-114271655D01*
X34617091Y-114271655D02*
X26417090Y-114271655D01*
X24567091Y-119771655D02*
X27597091Y-119771655D01*
D18*
X26047091Y-115771655D02*
X26047091Y-118011655D01*
D11*
X34597091Y-116871655D02*
X34597091Y-114621655D01*
D17*
X24767091Y-119571655D02*
X27217091Y-119571655D01*
X34417091Y-117621655D02*
X33117091Y-117571655D01*
D13*
X24417091Y-116821655D02*
X24417091Y-116171655D01*
D15*
X34117091Y-114871655D02*
X34117091Y-117371655D01*
D19*
X34467091Y-114471655D02*
X33217091Y-114471655D01*
D11*
X26417090Y-114271654D02*
G75*
G03*
X24317091Y-116171656I-100000J-1999999D01*
G01*
X29817091Y-117871655D02*
G75*
G03*
X27600773Y-119750184I-65001J-2169999D01*
G01*
D15*
X29433409Y-117471655D02*
G75*
G03*
X27221061Y-119322246I-64999J-2170002D01*
G01*
D18*
%TO.C,SW8*%
X13117684Y-57181608D02*
X13117684Y-59421608D01*
D17*
X11837684Y-60981608D02*
X14287684Y-60981608D01*
D16*
X11987684Y-60681608D02*
X11987684Y-58881609D01*
D14*
X19887684Y-57481608D02*
X13187684Y-57481608D01*
D19*
X21537684Y-55881608D02*
X20287684Y-55881608D01*
D15*
X21187684Y-56281608D02*
X21187684Y-58781608D01*
D17*
X21487684Y-59031608D02*
X20187684Y-58981608D01*
D11*
X11637684Y-56731608D02*
X11637684Y-61181608D01*
X11637684Y-61181608D02*
X14667684Y-61181608D01*
X21687684Y-55681608D02*
X13487683Y-55681608D01*
D13*
X11487684Y-58231608D02*
X11487684Y-57581608D01*
D11*
X21687684Y-59281608D02*
X21687684Y-55681608D01*
X11387684Y-58331608D02*
X11587684Y-58331608D01*
X16887684Y-59281608D02*
X21687684Y-59281608D01*
X21667684Y-58281608D02*
X21667684Y-56031608D01*
X11387684Y-57581608D02*
X11387684Y-58331608D01*
X16887684Y-59281608D02*
G75*
G03*
X14671366Y-61160137I-65001J-2169999D01*
G01*
D15*
X16504002Y-58881608D02*
G75*
G03*
X14291654Y-60732199I-64999J-2170002D01*
G01*
D11*
X13487683Y-55681607D02*
G75*
G03*
X11387684Y-57581609I-100000J-1999999D01*
G01*
D18*
%TO.C,SW24*%
X53400671Y-92510246D02*
X52634545Y-94615157D01*
D11*
X60735594Y-97414713D02*
X61966866Y-94031819D01*
X61058820Y-96468180D02*
X61828366Y-94353871D01*
D19*
X61757509Y-94168455D02*
X60582893Y-93740930D01*
D15*
X61291808Y-94424625D02*
X60436758Y-96773856D01*
D17*
X50898187Y-95643292D02*
X53200434Y-96481241D01*
D11*
X61966866Y-94031819D02*
X54261386Y-91227254D01*
D14*
X59659784Y-95107630D02*
X53363843Y-92816095D01*
D11*
X56225069Y-95773016D02*
X60735594Y-97414713D01*
X52163834Y-91581194D02*
X50641845Y-95762826D01*
X51381679Y-92999197D02*
X51569618Y-93067601D01*
X51638194Y-92294428D02*
X51381679Y-92999197D01*
X50641845Y-95762826D02*
X53489113Y-96799147D01*
D17*
X60633160Y-97111386D02*
X59428661Y-96619775D01*
D16*
X51141747Y-95412687D02*
X51757383Y-93721241D01*
D13*
X51509850Y-92939430D02*
X51732163Y-92328630D01*
D15*
X56001334Y-95265912D02*
G75*
G03*
X53289468Y-96248231I-803263J-2016904D01*
G01*
D11*
X56225069Y-95773016D02*
G75*
G03*
X53499917Y-96780231I-803264J-2016900D01*
G01*
X54261386Y-91227254D02*
G75*
G03*
X51638194Y-92294429I-778010J-1845180D01*
G01*
%TO.C,D19*%
X100446032Y-95607495D02*
X100608060Y-96624228D01*
X101043704Y-96889207D02*
X100104012Y-96547187D01*
X101385724Y-95949515D02*
X100446032Y-95607495D01*
X100608060Y-96624228D02*
X101385724Y-95949515D01*
%TO.C,D35*%
X132167924Y-147698492D02*
X132329952Y-148715225D01*
X133107616Y-148040512D02*
X132167924Y-147698492D01*
X132765596Y-148980204D02*
X131825904Y-148638184D01*
X132329952Y-148715225D02*
X133107616Y-148040512D01*
%TO.C,RSW1*%
X75195596Y-122777383D02*
X75281101Y-122542459D01*
X76290060Y-119770366D02*
X70933812Y-117820851D01*
X69839348Y-120827868D02*
X69924853Y-120592945D01*
X70933812Y-117820851D02*
X70848307Y-118055775D01*
X75195596Y-122777383D02*
X69839348Y-120827868D01*
X76290060Y-119770366D02*
X76204555Y-120005289D01*
%TO.C,D1*%
X28087882Y-43521593D02*
X27087882Y-43521593D01*
X28087882Y-44521593D02*
X27087882Y-44521593D01*
X27087882Y-43521593D02*
X27587882Y-44421593D01*
X27587882Y-44421593D02*
X28087882Y-43521593D01*
%TO.C,D8*%
X25547684Y-63951608D02*
X26047684Y-63051608D01*
X25047684Y-63051608D02*
X25547684Y-63951608D01*
X26047684Y-64051608D02*
X25047684Y-64051608D01*
X26047684Y-63051608D02*
X25047684Y-63051608D01*
%TO.C,D2*%
X46637883Y-44421594D02*
X47137883Y-43521594D01*
X47137883Y-43521594D02*
X46137883Y-43521594D01*
X47137883Y-44521594D02*
X46137883Y-44521594D01*
X46137883Y-43521594D02*
X46637883Y-44421594D01*
%TO.C,D24*%
X63350274Y-103388254D02*
X62410582Y-103046234D01*
X62752602Y-102106542D02*
X62914630Y-103123275D01*
X63692294Y-102448562D02*
X62752602Y-102106542D01*
X62914630Y-103123275D02*
X63692294Y-102448562D01*
%TO.C,D32*%
X75368778Y-138119348D02*
X76146442Y-137444635D01*
X75206750Y-137102615D02*
X75368778Y-138119348D01*
X76146442Y-137444635D02*
X75206750Y-137102615D01*
X75804422Y-138384327D02*
X74864730Y-138042307D01*
%TO.C,D29*%
X19927090Y-122641656D02*
X18927090Y-122641656D01*
X19927090Y-121641656D02*
X18927090Y-121641656D01*
X18927090Y-121641656D02*
X19427090Y-122541656D01*
X19427090Y-122541656D02*
X19927090Y-121641656D01*
%TO.C,D3*%
X69321811Y-44798209D02*
X68382119Y-44456189D01*
X69663831Y-43858517D02*
X68724139Y-43516497D01*
X68886167Y-44533230D02*
X69663831Y-43858517D01*
X68724139Y-43516497D02*
X68886167Y-44533230D01*
%TO.C,D13*%
X121327065Y-82934983D02*
X120387373Y-82592963D01*
X120549401Y-83609696D02*
X121327065Y-82934983D01*
X120387373Y-82592963D02*
X120549401Y-83609696D01*
X120985045Y-83874675D02*
X120045353Y-83532655D01*
%TO.C,D9*%
X45097685Y-64051607D02*
X44097685Y-64051607D01*
X45097685Y-63051607D02*
X44097685Y-63051607D01*
X44097685Y-63051607D02*
X44597685Y-63951607D01*
X44597685Y-63951607D02*
X45097685Y-63051607D01*
%TO.C,D30*%
X38477091Y-122541655D02*
X38977091Y-121641655D01*
X38977091Y-121641655D02*
X37977091Y-121641655D01*
X38977091Y-122641655D02*
X37977091Y-122641655D01*
X37977091Y-121641655D02*
X38477091Y-122541655D01*
%TO.C,D6*%
X123025243Y-64344659D02*
X122085551Y-64002639D01*
X122427571Y-63062947D02*
X122589599Y-64079680D01*
X123367263Y-63404967D02*
X122427571Y-63062947D01*
X122589599Y-64079680D02*
X123367263Y-63404967D01*
%TO.C,D15*%
X23507487Y-83481623D02*
X24007487Y-82581623D01*
X24007487Y-83581623D02*
X23007487Y-83581623D01*
X23007487Y-82581623D02*
X23507487Y-83481623D01*
X24007487Y-82581623D02*
X23007487Y-82581623D01*
%TO.C,D26*%
X98567863Y-116154243D02*
X99345527Y-115479530D01*
X99003507Y-116419222D02*
X98063815Y-116077202D01*
X98405835Y-115137510D02*
X98567863Y-116154243D01*
X99345527Y-115479530D02*
X98405835Y-115137510D01*
%TO.C,D25*%
X80504688Y-108622026D02*
X80666716Y-109638759D01*
X81102360Y-109903738D02*
X80162668Y-109561718D01*
X80666716Y-109638759D02*
X81444380Y-108964046D01*
X81444380Y-108964046D02*
X80504688Y-108622026D01*
%TO.C,D20*%
X119286864Y-102464998D02*
X118347172Y-102122978D01*
X118347172Y-102122978D02*
X118509200Y-103139711D01*
X118509200Y-103139711D02*
X119286864Y-102464998D01*
X118944844Y-103404690D02*
X118005152Y-103062670D01*
%TO.C,D16*%
X43081667Y-82581624D02*
X42081667Y-82581624D01*
X43081667Y-83581624D02*
X42081667Y-83581624D01*
X42581667Y-83481624D02*
X43081667Y-82581624D01*
X42081667Y-82581624D02*
X42581667Y-83481624D01*
%TO.C,D21*%
X136410349Y-109892242D02*
X137188013Y-109217529D01*
X136845993Y-110157221D02*
X135906301Y-109815201D01*
X137188013Y-109217529D02*
X136248321Y-108875509D01*
X136248321Y-108875509D02*
X136410349Y-109892242D01*
%TO.C,D5*%
X104526425Y-56547465D02*
X104688453Y-57564198D01*
X105124097Y-57829177D02*
X104184405Y-57487157D01*
X105466117Y-56889485D02*
X104526425Y-56547465D01*
X104688453Y-57564198D02*
X105466117Y-56889485D01*
%TO.C,D10*%
X67281612Y-64328222D02*
X66341920Y-63986202D01*
X66683940Y-63046510D02*
X66845968Y-64063243D01*
X67623632Y-63388530D02*
X66683940Y-63046510D01*
X66845968Y-64063243D02*
X67623632Y-63388530D01*
%TO.C,D18*%
X82544885Y-89092011D02*
X82706913Y-90108744D01*
X83484577Y-89434031D02*
X82544885Y-89092011D01*
X82706913Y-90108744D02*
X83484577Y-89434031D01*
X83142557Y-90373723D02*
X82202865Y-90031703D01*
%TO.C,D27*%
X116306977Y-121652993D02*
X116469005Y-122669726D01*
X116904649Y-122934705D02*
X115964957Y-122592685D01*
X116469005Y-122669726D02*
X117246669Y-121995013D01*
X117246669Y-121995013D02*
X116306977Y-121652993D01*
%TO.C,D17*%
X64643742Y-82576528D02*
X64805770Y-83593261D01*
X65583434Y-82918548D02*
X64643742Y-82576528D01*
X64805770Y-83593261D02*
X65583434Y-82918548D01*
X65241414Y-83858240D02*
X64301722Y-83516220D01*
%TO.C,D12*%
X103083900Y-77359190D02*
X102144208Y-77017170D01*
X102486228Y-76077478D02*
X102648256Y-77094211D01*
X102648256Y-77094211D02*
X103425920Y-76419498D01*
X103425920Y-76419498D02*
X102486228Y-76077478D01*
%TO.C,D22*%
X21967289Y-102111639D02*
X20967289Y-102111639D01*
X20967289Y-102111639D02*
X21467289Y-103011639D01*
X21467289Y-103011639D02*
X21967289Y-102111639D01*
X21967289Y-103111639D02*
X20967289Y-103111639D01*
%TO.C,D34*%
X115206471Y-141525029D02*
X114266779Y-141183009D01*
X114864451Y-142464721D02*
X113924759Y-142122701D01*
X114428807Y-142199742D02*
X115206471Y-141525029D01*
X114266779Y-141183009D02*
X114428807Y-142199742D01*
%TO.C,D14*%
X139228209Y-89450468D02*
X138288517Y-89108448D01*
X138886189Y-90390160D02*
X137946497Y-90048140D01*
X138288517Y-89108448D02*
X138450545Y-90125181D01*
X138450545Y-90125181D02*
X139228209Y-89450468D01*
%TO.C,D7*%
X140328715Y-69578432D02*
X140490743Y-70595165D01*
X140490743Y-70595165D02*
X141268407Y-69920452D01*
X141268407Y-69920452D02*
X140328715Y-69578432D01*
X140926387Y-70860144D02*
X139986695Y-70518124D01*
%TO.C,D33*%
X96365636Y-134667524D02*
X96527664Y-135684257D01*
X96963308Y-135949236D02*
X96023616Y-135607216D01*
X97305328Y-135009544D02*
X96365636Y-134667524D01*
X96527664Y-135684257D02*
X97305328Y-135009544D01*
%TO.C,D11*%
X85524776Y-69904015D02*
X84585084Y-69561995D01*
X84585084Y-69561995D02*
X84747112Y-70578728D01*
X85182756Y-70843707D02*
X84243064Y-70501687D01*
X84747112Y-70578728D02*
X85524776Y-69904015D01*
%TO.C,D23*%
X40017290Y-102111639D02*
X40517290Y-103011639D01*
X40517290Y-103011639D02*
X41017290Y-102111639D01*
X41017290Y-102111639D02*
X40017290Y-102111639D01*
X41017290Y-103111639D02*
X40017290Y-103111639D01*
%TO.C,D28*%
X134370149Y-129185210D02*
X135147813Y-128510497D01*
X135147813Y-128510497D02*
X134208121Y-128168477D01*
X134805793Y-129450189D02*
X133866101Y-129108169D01*
X134208121Y-128168477D02*
X134370149Y-129185210D01*
%TO.C,D4*%
X86625282Y-50031981D02*
X86787310Y-51048714D01*
X86787310Y-51048714D02*
X87564974Y-50374001D01*
X87222954Y-51313693D02*
X86283262Y-50971673D01*
X87564974Y-50374001D02*
X86625282Y-50031981D01*
%TO.C,SW10*%
X60305464Y-56712984D02*
X64815989Y-58354681D01*
D15*
X65372203Y-55364593D02*
X64517153Y-57713824D01*
D11*
X54722240Y-56702794D02*
X57569508Y-57739115D01*
D16*
X55222142Y-56352655D02*
X55837778Y-54661209D01*
D18*
X57481066Y-53450214D02*
X56714940Y-55555125D01*
D14*
X63740179Y-56047598D02*
X57444238Y-53756063D01*
D19*
X65837904Y-55108423D02*
X64663288Y-54680898D01*
D17*
X64713555Y-58051354D02*
X63509056Y-57559743D01*
D11*
X66047261Y-54971787D02*
X58341781Y-52167222D01*
D17*
X54978582Y-56583260D02*
X57280829Y-57421209D01*
D11*
X64815989Y-58354681D02*
X66047261Y-54971787D01*
X55718589Y-53234396D02*
X55462074Y-53939165D01*
X55462074Y-53939165D02*
X55650013Y-54007569D01*
X56244229Y-52521162D02*
X54722240Y-56702794D01*
D13*
X55590245Y-53879398D02*
X55812558Y-53268598D01*
D11*
X65139215Y-57408148D02*
X65908761Y-55293839D01*
D15*
X60081729Y-56205880D02*
G75*
G03*
X57369863Y-57188199I-803263J-2016904D01*
G01*
D11*
X60305464Y-56712984D02*
G75*
G03*
X57580312Y-57720199I-803264J-2016900D01*
G01*
X58341781Y-52167222D02*
G75*
G03*
X55718589Y-53234397I-778010J-1845180D01*
G01*
%TO.C,SW13*%
X109422022Y-72780849D02*
X109165507Y-73485618D01*
X114008897Y-76259437D02*
X118519422Y-77901134D01*
D19*
X119541337Y-74654876D02*
X118366721Y-74227351D01*
D15*
X119075636Y-74911046D02*
X118220586Y-77260277D01*
D11*
X109947662Y-72067615D02*
X108425673Y-76249247D01*
X119750694Y-74518240D02*
X112045214Y-71713675D01*
D16*
X108925575Y-75899108D02*
X109541211Y-74207662D01*
D13*
X109293678Y-73425851D02*
X109515991Y-72815051D01*
D17*
X108682015Y-76129713D02*
X110984262Y-76967662D01*
D11*
X118842648Y-76954601D02*
X119612194Y-74840292D01*
D17*
X118416988Y-77597807D02*
X117212489Y-77106196D01*
D18*
X111184499Y-72996667D02*
X110418373Y-75101578D01*
D11*
X118519422Y-77901134D02*
X119750694Y-74518240D01*
D14*
X117443612Y-75594051D02*
X111147671Y-73302516D01*
D11*
X109165507Y-73485618D02*
X109353446Y-73554022D01*
X108425673Y-76249247D02*
X111272941Y-77285568D01*
X112045214Y-71713675D02*
G75*
G03*
X109422022Y-72780850I-778010J-1845180D01*
G01*
D15*
X113785162Y-75752333D02*
G75*
G03*
X111073296Y-76734652I-803263J-2016904D01*
G01*
D11*
X114008897Y-76259437D02*
G75*
G03*
X111283745Y-77266652I-803264J-2016900D01*
G01*
%TO.C,SW12*%
X101849549Y-68002755D02*
X94144069Y-65198190D01*
X92046517Y-65552130D02*
X90524528Y-69733762D01*
X91264362Y-66970133D02*
X91452301Y-67038537D01*
D14*
X99542467Y-69078566D02*
X93246526Y-66787031D01*
D16*
X91024430Y-69383623D02*
X91640066Y-67692177D01*
D17*
X90780870Y-69614228D02*
X93083117Y-70452177D01*
X100515843Y-71082322D02*
X99311344Y-70590711D01*
D18*
X93283354Y-66481182D02*
X92517228Y-68586093D01*
D11*
X90524528Y-69733762D02*
X93371796Y-70770083D01*
D13*
X91392533Y-66910366D02*
X91614846Y-66299566D01*
D15*
X101174491Y-68395561D02*
X100319441Y-70744792D01*
D19*
X101640192Y-68139391D02*
X100465576Y-67711866D01*
D11*
X100618277Y-71385649D02*
X101849549Y-68002755D01*
X96107752Y-69743952D02*
X100618277Y-71385649D01*
X100941503Y-70439116D02*
X101711049Y-68324807D01*
X91520877Y-66265364D02*
X91264362Y-66970133D01*
X96107752Y-69743952D02*
G75*
G03*
X93382600Y-70751167I-803264J-2016900D01*
G01*
X94144069Y-65198190D02*
G75*
G03*
X91520877Y-66265365I-778010J-1845180D01*
G01*
D15*
X95884017Y-69236848D02*
G75*
G03*
X93172151Y-70219167I-803263J-2016904D01*
G01*
D18*
%TO.C,SW5*%
X95323551Y-46951169D02*
X94557425Y-49056080D01*
D11*
X102981700Y-50909103D02*
X103751246Y-48794794D01*
X94086714Y-46022117D02*
X92564725Y-50203749D01*
D14*
X101582664Y-49548553D02*
X95286723Y-47257018D01*
D16*
X93064627Y-49853610D02*
X93680263Y-48162164D01*
D13*
X93432730Y-47380353D02*
X93655043Y-46769553D01*
D17*
X102556040Y-51552309D02*
X101351541Y-51060698D01*
D11*
X103889746Y-48472742D02*
X96184266Y-45668177D01*
X102658474Y-51855636D02*
X103889746Y-48472742D01*
X92564725Y-50203749D02*
X95411993Y-51240070D01*
X93304559Y-47440120D02*
X93492498Y-47508524D01*
D15*
X103214688Y-48865548D02*
X102359638Y-51214779D01*
D17*
X92821067Y-50084215D02*
X95123314Y-50922164D01*
D11*
X98147949Y-50213939D02*
X102658474Y-51855636D01*
X93561074Y-46735351D02*
X93304559Y-47440120D01*
D19*
X103680389Y-48609378D02*
X102505773Y-48181853D01*
D11*
X98147949Y-50213939D02*
G75*
G03*
X95422797Y-51221154I-803264J-2016900D01*
G01*
X96184266Y-45668177D02*
G75*
G03*
X93561074Y-46735352I-778010J-1845180D01*
G01*
D15*
X97924214Y-49706835D02*
G75*
G03*
X95212348Y-50689154I-803263J-2016904D01*
G01*
D18*
%TO.C,SW2*%
X34207883Y-37651594D02*
X34207883Y-39891594D01*
D16*
X33077883Y-41151594D02*
X33077883Y-39351595D01*
D13*
X32577883Y-38701594D02*
X32577883Y-38051594D01*
D11*
X32477883Y-38051594D02*
X32477883Y-38801594D01*
X32727883Y-41651594D02*
X35757883Y-41651594D01*
X42777883Y-39751594D02*
X42777883Y-36151594D01*
X37977883Y-39751594D02*
X42777883Y-39751594D01*
X42757883Y-38751594D02*
X42757883Y-36501594D01*
D14*
X40977883Y-37951594D02*
X34277883Y-37951594D01*
D17*
X42577883Y-39501594D02*
X41277883Y-39451594D01*
D19*
X42627883Y-36351594D02*
X41377883Y-36351594D01*
D11*
X42777883Y-36151594D02*
X34577882Y-36151594D01*
X32477883Y-38801594D02*
X32677883Y-38801594D01*
D17*
X32927883Y-41451594D02*
X35377883Y-41451594D01*
D11*
X32727883Y-37201594D02*
X32727883Y-41651594D01*
D15*
X42277883Y-36751594D02*
X42277883Y-39251594D01*
X37594201Y-39351594D02*
G75*
G03*
X35381853Y-41202185I-64999J-2170002D01*
G01*
D11*
X37977883Y-39751594D02*
G75*
G03*
X35761565Y-41630123I-65001J-2169999D01*
G01*
X34577882Y-36151593D02*
G75*
G03*
X32477883Y-38051595I-100000J-1999999D01*
G01*
%TO.C,SW23*%
X26357290Y-97391639D02*
X26557290Y-97391639D01*
X36657290Y-94741639D02*
X28457289Y-94741639D01*
D15*
X36157290Y-95341639D02*
X36157290Y-97841639D01*
D16*
X26957290Y-99741639D02*
X26957290Y-97941640D01*
D17*
X26807290Y-100041639D02*
X29257290Y-100041639D01*
D11*
X26607290Y-100241639D02*
X29637290Y-100241639D01*
X26357290Y-96641639D02*
X26357290Y-97391639D01*
D14*
X34857290Y-96541639D02*
X28157290Y-96541639D01*
D18*
X28087290Y-96241639D02*
X28087290Y-98481639D01*
D11*
X36657290Y-98341639D02*
X36657290Y-94741639D01*
D13*
X26457290Y-97291639D02*
X26457290Y-96641639D01*
D17*
X36457290Y-98091639D02*
X35157290Y-98041639D01*
D19*
X36507290Y-94941639D02*
X35257290Y-94941639D01*
D11*
X26607290Y-95791639D02*
X26607290Y-100241639D01*
X31857290Y-98341639D02*
X36657290Y-98341639D01*
X36637290Y-97341639D02*
X36637290Y-95091639D01*
X28457289Y-94741638D02*
G75*
G03*
X26357290Y-96641640I-100000J-1999999D01*
G01*
D15*
X31473608Y-97941639D02*
G75*
G03*
X29261260Y-99792230I-64999J-2170002D01*
G01*
D11*
X31857290Y-98341639D02*
G75*
G03*
X29640972Y-100220168I-65001J-2169999D01*
G01*
%TO.C,SW11*%
X73363218Y-60454650D02*
X73551157Y-60523054D01*
X74145373Y-59036647D02*
X72623384Y-63218279D01*
D14*
X81641323Y-62563083D02*
X75345382Y-60271548D01*
D17*
X72879726Y-63098745D02*
X75181973Y-63936694D01*
D11*
X82717133Y-64870166D02*
X83948405Y-61487272D01*
X72623384Y-63218279D02*
X75470652Y-64254600D01*
D13*
X73491389Y-60394883D02*
X73713702Y-59784083D01*
D19*
X83739048Y-61623908D02*
X82564432Y-61196383D01*
D11*
X78206608Y-63228469D02*
X82717133Y-64870166D01*
X83040359Y-63923633D02*
X83809905Y-61809324D01*
X83948405Y-61487272D02*
X76242925Y-58682707D01*
D18*
X75382210Y-59965699D02*
X74616084Y-62070610D01*
D11*
X73619733Y-59749881D02*
X73363218Y-60454650D01*
D15*
X83273347Y-61880078D02*
X82418297Y-64229309D01*
D17*
X82614699Y-64566839D02*
X81410200Y-64075228D01*
D16*
X73123286Y-62868140D02*
X73738922Y-61176694D01*
D15*
X77982873Y-62721365D02*
G75*
G03*
X75271007Y-63703684I-803263J-2016904D01*
G01*
D11*
X76242925Y-58682707D02*
G75*
G03*
X73619733Y-59749882I-778010J-1845180D01*
G01*
X78206608Y-63228469D02*
G75*
G03*
X75481456Y-64235684I-803264J-2016900D01*
G01*
%TO.C,U1*%
X10437882Y-36411593D02*
X12937882Y-36411593D01*
X10437882Y-49091593D02*
X12937882Y-49091593D01*
X43457882Y-36401593D02*
X43457882Y-33871593D01*
X43457882Y-33871593D02*
X10437882Y-33871593D01*
X43457882Y-51631593D02*
X43457882Y-49101593D01*
X12977882Y-33871593D02*
X12977882Y-51631593D01*
X10437882Y-49101593D02*
X10437882Y-51631593D01*
X10437882Y-51631593D02*
X43457882Y-51631593D01*
X10437882Y-33871593D02*
X10437882Y-36411593D01*
G36*
X12937882Y-51631593D02*
G01*
X10437882Y-51631593D01*
X10437882Y-49091593D01*
X12937882Y-49091593D01*
X12937882Y-51631593D01*
G37*
D20*
X12937882Y-51631593D02*
X10437882Y-51631593D01*
X10437882Y-49091593D01*
X12937882Y-49091593D01*
X12937882Y-51631593D01*
G36*
X12937882Y-36411593D02*
G01*
X10437882Y-36411593D01*
X10437882Y-33911593D01*
X12937882Y-33911593D01*
X12937882Y-36411593D01*
G37*
X12937882Y-36411593D02*
X10437882Y-36411593D01*
X10437882Y-33911593D01*
X12937882Y-33911593D01*
X12937882Y-36411593D01*
%TD*%
D21*
%TO.C,U1*%
X14247882Y-35131593D03*
X16787882Y-35121593D03*
X19327882Y-35121593D03*
X21867882Y-35121593D03*
X24407882Y-35121593D03*
X26947882Y-35121593D03*
X29487882Y-35121593D03*
X32027882Y-35121593D03*
X34567882Y-35121593D03*
X37107882Y-35121593D03*
X39647882Y-35121593D03*
X42187882Y-35121593D03*
X42187882Y-50381593D03*
X39647882Y-50381593D03*
X37107882Y-50381593D03*
X34567882Y-50381593D03*
X32027882Y-50381593D03*
X29487882Y-50381593D03*
X26947882Y-50381593D03*
X24407882Y-50381593D03*
X21867882Y-50371593D03*
X19327882Y-50371593D03*
X16787882Y-50371593D03*
X14247882Y-50371593D03*
X11707882Y-50371593D03*
X11707882Y-35131593D03*
%TD*%
M02*
