%TF.GenerationSoftware,KiCad,Pcbnew,(6.0.5)*%
%TF.CreationDate,2022-06-09T21:08:53+09:00*%
%TF.ProjectId,KEMgonomics,4b454d67-6f6e-46f6-9d69-63732e6b6963,rev?*%
%TF.SameCoordinates,Original*%
%TF.FileFunction,Soldermask,Bot*%
%TF.FilePolarity,Negative*%
%FSLAX46Y46*%
G04 Gerber Fmt 4.6, Leading zero omitted, Abs format (unit mm)*
G04 Created by KiCad (PCBNEW (6.0.5)) date 2022-06-09 21:08:53*
%MOMM*%
%LPD*%
G01*
G04 APERTURE LIST*
G04 Aperture macros list*
%AMHorizOval*
0 Thick line with rounded ends*
0 $1 width*
0 $2 $3 position (X,Y) of the first rounded end (center of the circle)*
0 $4 $5 position (X,Y) of the second rounded end (center of the circle)*
0 Add line between two ends*
20,1,$1,$2,$3,$4,$5,0*
0 Add two circle primitives to create the rounded ends*
1,1,$1,$2,$3*
1,1,$1,$4,$5*%
%AMRotRect*
0 Rectangle, with rotation*
0 The origin of the aperture is its center*
0 $1 length*
0 $2 width*
0 $3 Rotation angle, in degrees counterclockwise*
0 Add horizontal line*
21,1,$1,$2,0,0,$3*%
%AMFreePoly0*
4,1,5,1.275000,-1.250000,-1.275000,-1.250000,-1.275000,1.250000,1.275000,1.250000,1.275000,-1.250000,1.275000,-1.250000,$1*%
%AMFreePoly1*
4,1,5,0.100000,-0.500000,-0.100000,-0.500000,-0.100000,0.500000,0.100000,0.500000,0.100000,-0.500000,0.100000,-0.500000,$1*%
%AMFreePoly2*
4,1,5,0.700000,-0.650000,-0.700000,-0.650000,-0.700000,0.650000,0.700000,0.650000,0.700000,-0.650000,0.700000,-0.650000,$1*%
%AMFreePoly3*
4,1,5,0.300000,-0.500000,-0.300000,-0.500000,-0.300000,0.500000,0.300000,0.500000,0.300000,-0.500000,0.300000,-0.500000,$1*%
G04 Aperture macros list end*
%ADD10C,1.900000*%
%ADD11C,4.100000*%
%ADD12C,3.000000*%
%ADD13C,1.000000*%
%ADD14FreePoly0,180.000000*%
%ADD15C,1.524000*%
%ADD16FreePoly0,0.000000*%
%ADD17FreePoly0,160.000000*%
%ADD18FreePoly0,340.000000*%
%ADD19C,5.000000*%
%ADD20C,1.200000*%
%ADD21HorizOval,1.700000X-0.136808X-0.375877X0.136808X0.375877X0*%
%ADD22FreePoly1,250.000000*%
%ADD23RotRect,1.700000X1.300000X70.000000*%
%ADD24FreePoly2,250.000000*%
%ADD25FreePoly3,250.000000*%
%ADD26HorizOval,1.300000X0.068404X0.187939X-0.068404X-0.187939X0*%
%ADD27RotRect,1.524000X1.524000X160.000000*%
%ADD28FreePoly2,270.000000*%
%ADD29R,1.300000X1.700000*%
%ADD30FreePoly1,270.000000*%
%ADD31FreePoly3,270.000000*%
%ADD32O,1.300000X1.700000*%
G04 APERTURE END LIST*
D10*
%TO.C,SW22*%
X18287289Y-101341639D03*
D11*
X13207289Y-101341639D03*
D12*
X15747289Y-96261639D03*
X9397289Y-98801639D03*
D10*
X8127289Y-101341639D03*
D13*
X4872289Y-98801639D03*
D14*
X6122289Y-98801639D03*
D15*
X6122289Y-96591639D03*
D16*
X19049289Y-96261639D03*
D13*
X20299289Y-96261639D03*
%TD*%
D11*
%TO.C,SW26*%
X91377176Y-111759870D03*
D12*
X95501458Y-107854963D03*
X88665678Y-108069954D03*
D10*
X96150815Y-113497332D03*
X86603537Y-110022408D03*
D13*
X84413569Y-106522313D03*
D17*
X85588185Y-106949838D03*
D15*
X86344049Y-104873117D03*
D13*
X99778938Y-109411838D03*
D18*
X98604323Y-108984313D03*
%TD*%
D12*
%TO.C,SW21*%
X133343944Y-101355916D03*
X126508164Y-101570907D03*
D10*
X124446023Y-103523361D03*
X133993301Y-106998285D03*
D11*
X129219662Y-105260823D03*
D13*
X122256055Y-100023266D03*
D15*
X124186535Y-98374070D03*
D17*
X123430671Y-100450791D03*
D13*
X137621424Y-102912791D03*
D18*
X136446809Y-102485266D03*
%TD*%
D10*
%TO.C,SW28*%
X131953101Y-126528299D03*
D11*
X127179462Y-124790837D03*
D10*
X122405823Y-123053375D03*
D12*
X131303744Y-120885930D03*
X124467964Y-121100921D03*
D17*
X121390471Y-119980805D03*
D13*
X120215855Y-119553280D03*
D15*
X122146335Y-117904084D03*
D18*
X134406609Y-122015280D03*
D13*
X135581224Y-122442805D03*
%TD*%
D12*
%TO.C,SW6*%
X112687414Y-55995391D03*
X119523194Y-55780400D03*
D10*
X110625273Y-57947845D03*
X120172551Y-61422769D03*
D11*
X115398912Y-59685307D03*
D13*
X108435305Y-54447750D03*
D17*
X109609921Y-54875275D03*
D15*
X110365785Y-52798554D03*
D18*
X122626059Y-56909750D03*
D13*
X123800674Y-57337275D03*
%TD*%
D12*
%TO.C,SW4*%
X76885125Y-42964425D03*
D10*
X74822984Y-44916879D03*
D12*
X83720905Y-42749434D03*
D11*
X79596623Y-46654341D03*
D10*
X84370262Y-48391803D03*
D15*
X74563496Y-39767588D03*
D13*
X72633016Y-41416784D03*
D17*
X73807632Y-41844309D03*
D18*
X86823770Y-43878784D03*
D13*
X87998385Y-44306309D03*
%TD*%
D19*
%TO.C,H4*%
X20692091Y-130396655D03*
%TD*%
D11*
%TO.C,SW14*%
X131259858Y-85730808D03*
D10*
X126486219Y-83993346D03*
D12*
X128548360Y-82040892D03*
X135384140Y-81825901D03*
D10*
X136033497Y-87468270D03*
D15*
X126226731Y-78844055D03*
D17*
X125470867Y-80920776D03*
D13*
X124296251Y-80493251D03*
X139661620Y-83382776D03*
D18*
X138487005Y-82955251D03*
%TD*%
D12*
%TO.C,SW31*%
X57658970Y-114354010D03*
D11*
X53534688Y-118258917D03*
D12*
X50823190Y-114569001D03*
D10*
X48761049Y-116521455D03*
X58308327Y-119996379D03*
D15*
X48501561Y-111372164D03*
D13*
X46571081Y-113021360D03*
D17*
X47745697Y-113448885D03*
D18*
X60761835Y-115483360D03*
D13*
X61936450Y-115910885D03*
%TD*%
D12*
%TO.C,SW18*%
X72804728Y-82024455D03*
D10*
X80289865Y-87451833D03*
D11*
X75516226Y-85714371D03*
D12*
X79640508Y-81809464D03*
D10*
X70742587Y-83976909D03*
D17*
X69727235Y-80904339D03*
D15*
X70483099Y-78827618D03*
D13*
X68552619Y-80476814D03*
D18*
X82743373Y-82938814D03*
D13*
X83917988Y-83366339D03*
%TD*%
D20*
%TO.C,J1*%
X148797811Y-59949327D03*
X146403670Y-66527176D03*
D21*
X149129469Y-65178094D03*
X150155530Y-62359016D03*
X143301649Y-68909919D03*
X147761389Y-68936865D03*
%TD*%
D10*
%TO.C,SW32*%
X63404452Y-131987513D03*
X72951730Y-135462437D03*
D12*
X65466593Y-130035059D03*
D11*
X68178091Y-133724975D03*
D12*
X72302373Y-129820068D03*
D15*
X63144964Y-126838222D03*
D13*
X61214484Y-128487418D03*
D17*
X62389100Y-128914943D03*
D18*
X75405238Y-130949418D03*
D13*
X76579853Y-131376943D03*
%TD*%
D12*
%TO.C,SW7*%
X137424338Y-62295885D03*
D10*
X128526417Y-64463330D03*
D11*
X133300056Y-66200792D03*
D10*
X138073695Y-67938254D03*
D12*
X130588558Y-62510876D03*
D15*
X128266929Y-59314039D03*
D13*
X126336449Y-60963235D03*
D17*
X127511065Y-61390760D03*
D18*
X140527203Y-63425235D03*
D13*
X141701818Y-63852760D03*
%TD*%
D10*
%TO.C,SW16*%
X29217487Y-81811624D03*
X39377487Y-81811624D03*
D12*
X36837487Y-76731624D03*
X30487487Y-79271624D03*
D11*
X34297487Y-81811624D03*
D15*
X27212487Y-77061624D03*
D14*
X27212487Y-79271624D03*
D13*
X25962487Y-79271624D03*
D16*
X40139487Y-76731624D03*
D13*
X41389487Y-76731624D03*
%TD*%
D12*
%TO.C,SW33*%
X93461259Y-127384977D03*
D10*
X84563338Y-129552422D03*
D12*
X86625479Y-127599968D03*
D11*
X89336977Y-131289884D03*
D10*
X94110616Y-133027346D03*
D17*
X83547986Y-126479852D03*
D15*
X84303850Y-124403131D03*
D13*
X82373370Y-126052327D03*
X97738739Y-128941852D03*
D18*
X96564124Y-128514327D03*
%TD*%
D12*
%TO.C,SW19*%
X97541655Y-88324948D03*
X90705875Y-88539939D03*
D11*
X93417373Y-92229855D03*
D10*
X98191012Y-93967317D03*
X88643734Y-90492393D03*
D17*
X87628382Y-87419823D03*
D13*
X86453766Y-86992298D03*
D15*
X88384246Y-85343102D03*
D18*
X100644520Y-89454298D03*
D13*
X101819135Y-89881823D03*
%TD*%
D19*
%TO.C,H1*%
X73903794Y-34446027D03*
%TD*%
D10*
%TO.C,SW1*%
X24407882Y-42751593D03*
D12*
X15517882Y-40211593D03*
D11*
X19327882Y-42751593D03*
D10*
X14247882Y-42751593D03*
D12*
X21867882Y-37671593D03*
D14*
X12242882Y-40211593D03*
D13*
X10992882Y-40211593D03*
D15*
X12242882Y-38001593D03*
D16*
X25169882Y-37671593D03*
D13*
X26419882Y-37671593D03*
%TD*%
D12*
%TO.C,SW15*%
X17787487Y-76731623D03*
D10*
X20327487Y-81811623D03*
D12*
X11437487Y-79271623D03*
D10*
X10167487Y-81811623D03*
D11*
X15247487Y-81811623D03*
D13*
X6912487Y-79271623D03*
D15*
X8162487Y-77061623D03*
D14*
X8162487Y-79271623D03*
D16*
X21089487Y-76731623D03*
D13*
X22339487Y-76731623D03*
%TD*%
D12*
%TO.C,SW25*%
X77600311Y-101339479D03*
X70764531Y-101554470D03*
D10*
X68702390Y-103506924D03*
D11*
X73476029Y-105244386D03*
D10*
X78249668Y-106981848D03*
D17*
X67687038Y-100434354D03*
D15*
X68442902Y-98357633D03*
D13*
X66512422Y-100006829D03*
D18*
X80703176Y-102468829D03*
D13*
X81877791Y-102896354D03*
%TD*%
D11*
%TO.C,SW29*%
X11167090Y-120871656D03*
D10*
X6087090Y-120871656D03*
X16247090Y-120871656D03*
D12*
X13707090Y-115791656D03*
X7357090Y-118331656D03*
D13*
X2832090Y-118331656D03*
D15*
X4082090Y-116121656D03*
D14*
X4082090Y-118331656D03*
D16*
X17009090Y-115791656D03*
D13*
X18259090Y-115791656D03*
%TD*%
D12*
%TO.C,SW35*%
X129263547Y-140415945D03*
D10*
X129912904Y-146058314D03*
D11*
X125139265Y-144320852D03*
D10*
X120365626Y-142583390D03*
D12*
X122427767Y-140630936D03*
D17*
X119350274Y-139510820D03*
D15*
X120106138Y-137434099D03*
D13*
X118175658Y-139083295D03*
X133541027Y-141972820D03*
D18*
X132366412Y-141545295D03*
%TD*%
D12*
%TO.C,SW9*%
X38877685Y-57201607D03*
X32527685Y-59741607D03*
D10*
X31257685Y-62281607D03*
D11*
X36337685Y-62281607D03*
D10*
X41417685Y-62281607D03*
D15*
X29252685Y-57531607D03*
D13*
X28002685Y-59741607D03*
D14*
X29252685Y-59741607D03*
D13*
X43429685Y-57201607D03*
D16*
X42179685Y-57201607D03*
%TD*%
D10*
%TO.C,SW27*%
X104504679Y-116537891D03*
D12*
X106566820Y-114585437D03*
X113402600Y-114370446D03*
D11*
X109278318Y-118275353D03*
D10*
X114051957Y-120012815D03*
D15*
X104245191Y-111388600D03*
D13*
X102314711Y-113037796D03*
D17*
X103489327Y-113465321D03*
D13*
X117680080Y-115927321D03*
D18*
X116505465Y-115499796D03*
%TD*%
D11*
%TO.C,SW34*%
X107238120Y-137805369D03*
D12*
X104526622Y-134115453D03*
D10*
X102464481Y-136067907D03*
X112011759Y-139542831D03*
D12*
X111362402Y-133900462D03*
D15*
X102204993Y-130918616D03*
D17*
X101449129Y-132995337D03*
D13*
X100274513Y-132567812D03*
D18*
X114465267Y-135029812D03*
D13*
X115639882Y-135457337D03*
%TD*%
D11*
%TO.C,SW20*%
X111318513Y-98745338D03*
D10*
X106544874Y-97007876D03*
X116092152Y-100482800D03*
D12*
X115442795Y-94840431D03*
X108607015Y-95055422D03*
D17*
X105529522Y-93935306D03*
D15*
X106285386Y-91858585D03*
D13*
X104354906Y-93507781D03*
D18*
X118545660Y-95969781D03*
D13*
X119720275Y-96397306D03*
%TD*%
D10*
%TO.C,SW17*%
X52841444Y-77461426D03*
D12*
X54903585Y-75508972D03*
D10*
X62388722Y-80936350D03*
D11*
X57615083Y-79198888D03*
D12*
X61739365Y-75293981D03*
D15*
X52581956Y-72312135D03*
D17*
X51826092Y-74388856D03*
D13*
X50651476Y-73961331D03*
X66016845Y-76850856D03*
D18*
X64842230Y-76423331D03*
%TD*%
D10*
%TO.C,SW3*%
X66469119Y-41876319D03*
X56921841Y-38401395D03*
D12*
X65819762Y-36233950D03*
D11*
X61695480Y-40138857D03*
D12*
X58983982Y-36448941D03*
D15*
X56662353Y-33252104D03*
D17*
X55906489Y-35328825D03*
D13*
X54731873Y-34901300D03*
X70097242Y-37790825D03*
D18*
X68922627Y-37363300D03*
%TD*%
D22*
%TO.C,D31*%
X59990032Y-124673629D03*
D23*
X59665112Y-125566337D03*
D24*
X60255097Y-123945367D03*
D25*
X61802738Y-119693258D03*
D24*
X61469269Y-120609459D03*
D26*
X62059254Y-118988489D03*
%TD*%
D12*
%TO.C,SW30*%
X32757091Y-115791655D03*
D10*
X35297091Y-120871655D03*
D11*
X30217091Y-120871655D03*
D12*
X26407091Y-118331655D03*
D10*
X25137091Y-120871655D03*
D13*
X21882091Y-118331655D03*
D14*
X23132091Y-118331655D03*
D15*
X23132091Y-116121655D03*
D16*
X36059091Y-115791655D03*
D13*
X37309091Y-115791655D03*
%TD*%
D11*
%TO.C,SW8*%
X17287684Y-62281608D03*
D12*
X19827684Y-57201608D03*
X13477684Y-59741608D03*
D10*
X22367684Y-62281608D03*
X12207684Y-62281608D03*
D14*
X10202684Y-59741608D03*
D13*
X8952684Y-59741608D03*
D15*
X10202684Y-57531608D03*
D13*
X24379684Y-57201608D03*
D16*
X23129684Y-57201608D03*
%TD*%
D10*
%TO.C,SW24*%
X60348525Y-100466364D03*
D11*
X55574886Y-98728902D03*
D12*
X59699168Y-94823995D03*
X52863388Y-95038986D03*
D10*
X50801247Y-96991440D03*
D13*
X48611279Y-93491345D03*
D15*
X50541759Y-91842149D03*
D17*
X49785895Y-93918870D03*
D18*
X62802033Y-95953345D03*
D13*
X63976648Y-96380870D03*
%TD*%
D19*
%TO.C,H3*%
X2747487Y-81811623D03*
%TD*%
D24*
%TO.C,D19*%
X100137782Y-97916305D03*
D22*
X99872717Y-98644567D03*
D23*
X99547797Y-99537275D03*
D25*
X101685423Y-93664196D03*
D24*
X101351954Y-94580397D03*
D26*
X101941939Y-92959427D03*
%TD*%
D24*
%TO.C,D35*%
X131859674Y-150007302D03*
D22*
X131594609Y-150735564D03*
D23*
X131269689Y-151628272D03*
D25*
X133407315Y-145755193D03*
D26*
X133663831Y-145050424D03*
D24*
X133073846Y-146671394D03*
%TD*%
D27*
%TO.C,J3*%
X127523242Y-109921699D03*
X126654511Y-112308518D03*
X125785780Y-114695338D03*
%TD*%
D28*
%TO.C,D1*%
X27587882Y-45796593D03*
D29*
X27587882Y-47521593D03*
D30*
X27587882Y-46571593D03*
D31*
X27587882Y-41271593D03*
D32*
X27587882Y-40521593D03*
D28*
X27587882Y-42246593D03*
%TD*%
%TO.C,D8*%
X25547684Y-65326608D03*
D30*
X25547684Y-66101608D03*
D29*
X25547684Y-67051608D03*
D31*
X25547684Y-60801608D03*
D32*
X25547684Y-60051608D03*
D28*
X25547684Y-61776608D03*
%TD*%
D29*
%TO.C,D2*%
X46637883Y-47521594D03*
D30*
X46637883Y-46571594D03*
D28*
X46637883Y-45796594D03*
D32*
X46637883Y-40521594D03*
D31*
X46637883Y-41271594D03*
D28*
X46637883Y-42246594D03*
%TD*%
D23*
%TO.C,D24*%
X61854367Y-106036322D03*
D22*
X62179287Y-105143614D03*
D24*
X62444352Y-104415352D03*
X63658524Y-101079444D03*
D26*
X64248509Y-99458474D03*
D25*
X63991993Y-100163243D03*
%TD*%
D22*
%TO.C,D32*%
X74633435Y-140139687D03*
D23*
X74308515Y-141032395D03*
D24*
X74898500Y-139411425D03*
D26*
X76702657Y-134454547D03*
D24*
X76112672Y-136075517D03*
D25*
X76446141Y-135159316D03*
%TD*%
D29*
%TO.C,D29*%
X19427090Y-125641656D03*
D28*
X19427090Y-123916656D03*
D30*
X19427090Y-124691656D03*
D32*
X19427090Y-118641656D03*
D28*
X19427090Y-120366656D03*
D31*
X19427090Y-119391656D03*
%TD*%
D22*
%TO.C,D3*%
X68150824Y-46553569D03*
D24*
X68415889Y-45825307D03*
D23*
X67825904Y-47446277D03*
D26*
X70220046Y-40868429D03*
D25*
X69963530Y-41573198D03*
D24*
X69630061Y-42489399D03*
%TD*%
D22*
%TO.C,D13*%
X119814058Y-85630035D03*
D23*
X119489138Y-86522743D03*
D24*
X120079123Y-84901773D03*
D25*
X121626764Y-80649664D03*
D26*
X121883280Y-79944895D03*
D24*
X121293295Y-81565865D03*
%TD*%
D29*
%TO.C,D9*%
X44597685Y-67051607D03*
D28*
X44597685Y-65326607D03*
D30*
X44597685Y-66101607D03*
D31*
X44597685Y-60801607D03*
D28*
X44597685Y-61776607D03*
D32*
X44597685Y-60051607D03*
%TD*%
D30*
%TO.C,D30*%
X38477091Y-124691655D03*
D28*
X38477091Y-123916655D03*
D29*
X38477091Y-125641655D03*
D31*
X38477091Y-119391655D03*
D28*
X38477091Y-120366655D03*
D32*
X38477091Y-118641655D03*
%TD*%
D22*
%TO.C,D6*%
X121854256Y-66100019D03*
D24*
X122119321Y-65371757D03*
D23*
X121529336Y-66992727D03*
D25*
X123666962Y-61119648D03*
D26*
X123923478Y-60414879D03*
D24*
X123333493Y-62035849D03*
%TD*%
D30*
%TO.C,D15*%
X23507487Y-85631623D03*
D29*
X23507487Y-86581623D03*
D28*
X23507487Y-84856623D03*
D31*
X23507487Y-80331623D03*
D32*
X23507487Y-79581623D03*
D28*
X23507487Y-81306623D03*
%TD*%
D24*
%TO.C,D26*%
X98097585Y-117446320D03*
D22*
X97832520Y-118174582D03*
D23*
X97507600Y-119067290D03*
D25*
X99645226Y-113194211D03*
D26*
X99901742Y-112489442D03*
D24*
X99311757Y-114110412D03*
%TD*%
D23*
%TO.C,D25*%
X79606453Y-112551806D03*
D22*
X79931373Y-111659098D03*
D24*
X80196438Y-110930836D03*
X81410610Y-107594928D03*
D26*
X82000595Y-105973958D03*
D25*
X81744079Y-106678727D03*
%TD*%
D24*
%TO.C,D20*%
X118038922Y-104431788D03*
D23*
X117448937Y-106052758D03*
D22*
X117773857Y-105160050D03*
D24*
X119253094Y-101095880D03*
D26*
X119843079Y-99474910D03*
D25*
X119586563Y-100179679D03*
%TD*%
D28*
%TO.C,D16*%
X42581667Y-84856624D03*
D30*
X42581667Y-85631624D03*
D29*
X42581667Y-86581624D03*
D28*
X42581667Y-81306624D03*
D32*
X42581667Y-79581624D03*
D31*
X42581667Y-80331624D03*
%TD*%
D22*
%TO.C,D21*%
X135675006Y-111912581D03*
D23*
X135350086Y-112805289D03*
D24*
X135940071Y-111184319D03*
D26*
X137744228Y-106227441D03*
D24*
X137154243Y-107848411D03*
D25*
X137487712Y-106932210D03*
%TD*%
D23*
%TO.C,D5*%
X103628190Y-60477245D03*
D22*
X103953110Y-59584537D03*
D24*
X104218175Y-58856275D03*
X105432347Y-55520367D03*
D26*
X106022332Y-53899397D03*
D25*
X105765816Y-54604166D03*
%TD*%
D23*
%TO.C,D10*%
X65785705Y-66976290D03*
D24*
X66375690Y-65355320D03*
D22*
X66110625Y-66083582D03*
D24*
X67589862Y-62019412D03*
D26*
X68179847Y-60398442D03*
D25*
X67923331Y-61103211D03*
%TD*%
D24*
%TO.C,D18*%
X82236635Y-91400821D03*
D22*
X81971570Y-92129083D03*
D23*
X81646650Y-93021791D03*
D25*
X83784276Y-87148712D03*
D24*
X83450807Y-88064913D03*
D26*
X84040792Y-86443943D03*
%TD*%
D22*
%TO.C,D27*%
X115733662Y-124690065D03*
D23*
X115408742Y-125582773D03*
D24*
X115998727Y-123961803D03*
D25*
X117546368Y-119709694D03*
D26*
X117802884Y-119004925D03*
D24*
X117212899Y-120625895D03*
%TD*%
%TO.C,D17*%
X64335492Y-84885338D03*
D22*
X64070427Y-85613600D03*
D23*
X63745507Y-86506308D03*
D25*
X65883133Y-80633229D03*
D24*
X65549664Y-81549430D03*
D26*
X66139649Y-79928460D03*
%TD*%
D22*
%TO.C,D12*%
X101912913Y-79114550D03*
D24*
X102177978Y-78386288D03*
D23*
X101587993Y-80007258D03*
D25*
X103725619Y-74134179D03*
D26*
X103982135Y-73429410D03*
D24*
X103392150Y-75050380D03*
%TD*%
D28*
%TO.C,D22*%
X21467289Y-104386639D03*
D29*
X21467289Y-106111639D03*
D30*
X21467289Y-105161639D03*
D32*
X21467289Y-99111639D03*
D31*
X21467289Y-99861639D03*
D28*
X21467289Y-100836639D03*
%TD*%
D24*
%TO.C,D34*%
X113958529Y-143491819D03*
D22*
X113693464Y-144220081D03*
D23*
X113368544Y-145112789D03*
D26*
X115762686Y-138534941D03*
D25*
X115506170Y-139239710D03*
D24*
X115172701Y-140155911D03*
%TD*%
D23*
%TO.C,D14*%
X137390282Y-93038228D03*
D22*
X137715202Y-92145520D03*
D24*
X137980267Y-91417258D03*
D26*
X139784424Y-86460380D03*
D25*
X139527908Y-87165149D03*
D24*
X139194439Y-88081350D03*
%TD*%
%TO.C,D7*%
X140020465Y-71887242D03*
D22*
X139755400Y-72615504D03*
D23*
X139430480Y-73508212D03*
D26*
X141824622Y-66930364D03*
D24*
X141234637Y-68551334D03*
D25*
X141568106Y-67635133D03*
%TD*%
D24*
%TO.C,D33*%
X96057386Y-136976334D03*
D22*
X95792321Y-137704596D03*
D23*
X95467401Y-138597304D03*
D24*
X97271558Y-133640426D03*
D26*
X97861543Y-132019456D03*
D25*
X97605027Y-132724225D03*
%TD*%
D22*
%TO.C,D11*%
X84011769Y-72599067D03*
D23*
X83686849Y-73491775D03*
D24*
X84276834Y-71870805D03*
X85491006Y-68534897D03*
D25*
X85824475Y-67618696D03*
D26*
X86080991Y-66913927D03*
%TD*%
D30*
%TO.C,D23*%
X40517290Y-105161639D03*
D29*
X40517290Y-106111639D03*
D28*
X40517290Y-104386639D03*
D32*
X40517290Y-99111639D03*
D31*
X40517290Y-99861639D03*
D28*
X40517290Y-100836639D03*
%TD*%
D23*
%TO.C,D28*%
X133309886Y-132098257D03*
D22*
X133634806Y-131205549D03*
D24*
X133899871Y-130477287D03*
D25*
X135447512Y-126225178D03*
D24*
X135114043Y-127141379D03*
D26*
X135704028Y-125520409D03*
%TD*%
D23*
%TO.C,D4*%
X85727047Y-53961761D03*
D24*
X86317032Y-52340791D03*
D22*
X86051967Y-53069053D03*
D24*
X87531204Y-49004883D03*
D25*
X87864673Y-48088682D03*
D26*
X88121189Y-47383913D03*
%TD*%
D12*
%TO.C,SW10*%
X63779563Y-55763963D03*
D10*
X64428920Y-61406332D03*
D11*
X59655281Y-59668870D03*
D10*
X54881642Y-57931408D03*
D12*
X56943783Y-55978954D03*
D17*
X53866290Y-54858838D03*
D13*
X52691674Y-54431313D03*
D15*
X54622154Y-52782117D03*
D13*
X68057043Y-57320838D03*
D18*
X66882428Y-56893313D03*
%TD*%
D19*
%TO.C,H2*%
X127607226Y-53992477D03*
%TD*%
D10*
%TO.C,SW13*%
X118132353Y-80952785D03*
D12*
X117482996Y-75310416D03*
D11*
X113358714Y-79215323D03*
D12*
X110647216Y-75525407D03*
D10*
X108585075Y-77477861D03*
D13*
X106395107Y-73977766D03*
D17*
X107569723Y-74405291D03*
D15*
X108325587Y-72328570D03*
D18*
X120585861Y-76439766D03*
D13*
X121760476Y-76867291D03*
%TD*%
D10*
%TO.C,SW12*%
X100231208Y-74437300D03*
X90683930Y-70962376D03*
D12*
X99581851Y-68794931D03*
D11*
X95457569Y-72699838D03*
D12*
X92746071Y-69009922D03*
D13*
X88493962Y-67462281D03*
D15*
X90424442Y-65813085D03*
D17*
X89668578Y-67889806D03*
D13*
X103859331Y-70351806D03*
D18*
X102684716Y-69924281D03*
%TD*%
D11*
%TO.C,SW5*%
X97497766Y-53169825D03*
D12*
X101622048Y-49264918D03*
D10*
X102271405Y-54907287D03*
D12*
X94786268Y-49479909D03*
D10*
X92724127Y-51432363D03*
D13*
X90534159Y-47932268D03*
D15*
X92464639Y-46283072D03*
D17*
X91708775Y-48359793D03*
D13*
X105899528Y-50821793D03*
D18*
X104724913Y-50394268D03*
%TD*%
D12*
%TO.C,SW2*%
X34567883Y-40211594D03*
D10*
X33297883Y-42751594D03*
D11*
X38377883Y-42751594D03*
D10*
X43457883Y-42751594D03*
D12*
X40917883Y-37671594D03*
D14*
X31292883Y-40211594D03*
D15*
X31292883Y-38001594D03*
D13*
X30042883Y-40211594D03*
X45469883Y-37671594D03*
D16*
X44219883Y-37671594D03*
%TD*%
D12*
%TO.C,SW23*%
X28447290Y-98801639D03*
X34797290Y-96261639D03*
D10*
X27177290Y-101341639D03*
X37337290Y-101341639D03*
D11*
X32257290Y-101341639D03*
D15*
X25172290Y-96591639D03*
D14*
X25172290Y-98801639D03*
D13*
X23922290Y-98801639D03*
X39349290Y-96261639D03*
D16*
X38099290Y-96261639D03*
%TD*%
D12*
%TO.C,SW11*%
X74844927Y-62494439D03*
D11*
X77556425Y-66184355D03*
D12*
X81680707Y-62279448D03*
D10*
X72782786Y-64446893D03*
X82330064Y-67921817D03*
D17*
X71767434Y-61374323D03*
D13*
X70592818Y-60946798D03*
D15*
X72523298Y-59297602D03*
D18*
X84783572Y-63408798D03*
D13*
X85958187Y-63836323D03*
%TD*%
D15*
%TO.C,U1*%
X14247882Y-35131593D03*
X16787882Y-35121593D03*
X19327882Y-35121593D03*
X21867882Y-35121593D03*
X24407882Y-35121593D03*
X26947882Y-35121593D03*
X29487882Y-35121593D03*
X32027882Y-35121593D03*
X34567882Y-35121593D03*
X37107882Y-35121593D03*
X39647882Y-35121593D03*
X42187882Y-35121593D03*
X42187882Y-50381593D03*
X39647882Y-50381593D03*
X37107882Y-50381593D03*
X34567882Y-50381593D03*
X32027882Y-50381593D03*
X29487882Y-50381593D03*
X26947882Y-50381593D03*
X24407882Y-50381593D03*
X21867882Y-50371593D03*
X19327882Y-50371593D03*
X16787882Y-50371593D03*
X14247882Y-50371593D03*
X11707882Y-50371593D03*
X11707882Y-35131593D03*
%TD*%
M02*
