%TF.GenerationSoftware,KiCad,Pcbnew,(6.0.5)*%
%TF.CreationDate,2022-06-09T21:08:53+09:00*%
%TF.ProjectId,KEMgonomics,4b454d67-6f6e-46f6-9d69-63732e6b6963,rev?*%
%TF.SameCoordinates,Original*%
%TF.FileFunction,Soldermask,Top*%
%TF.FilePolarity,Negative*%
%FSLAX46Y46*%
G04 Gerber Fmt 4.6, Leading zero omitted, Abs format (unit mm)*
G04 Created by KiCad (PCBNEW (6.0.5)) date 2022-06-09 21:08:53*
%MOMM*%
%LPD*%
G01*
G04 APERTURE LIST*
G04 Aperture macros list*
%AMHorizOval*
0 Thick line with rounded ends*
0 $1 width*
0 $2 $3 position (X,Y) of the first rounded end (center of the circle)*
0 $4 $5 position (X,Y) of the second rounded end (center of the circle)*
0 Add line between two ends*
20,1,$1,$2,$3,$4,$5,0*
0 Add two circle primitives to create the rounded ends*
1,1,$1,$2,$3*
1,1,$1,$4,$5*%
%AMRotRect*
0 Rectangle, with rotation*
0 The origin of the aperture is its center*
0 $1 length*
0 $2 width*
0 $3 Rotation angle, in degrees counterclockwise*
0 Add horizontal line*
21,1,$1,$2,0,0,$3*%
G04 Aperture macros list end*
%ADD10C,1.900000*%
%ADD11C,4.100000*%
%ADD12C,3.000000*%
%ADD13C,1.524000*%
%ADD14C,5.000000*%
%ADD15C,1.200000*%
%ADD16RotRect,1.700000X1.300000X70.000000*%
%ADD17HorizOval,1.300000X0.068404X0.187939X-0.068404X-0.187939X0*%
%ADD18C,2.000000*%
%ADD19R,1.300000X1.700000*%
%ADD20O,1.300000X1.700000*%
G04 APERTURE END LIST*
D10*
%TO.C,SW22*%
X18287289Y-101341639D03*
D11*
X13207289Y-101341639D03*
D12*
X15747289Y-96261639D03*
X9397289Y-98801639D03*
D10*
X8127289Y-101341639D03*
D13*
X6122289Y-96591639D03*
%TD*%
D11*
%TO.C,SW26*%
X91377176Y-111759870D03*
D12*
X95501458Y-107854963D03*
X88665678Y-108069954D03*
D10*
X96150815Y-113497332D03*
X86603537Y-110022408D03*
D13*
X86344049Y-104873117D03*
%TD*%
D12*
%TO.C,SW21*%
X133343944Y-101355916D03*
X126508164Y-101570907D03*
D10*
X124446023Y-103523361D03*
X133993301Y-106998285D03*
D11*
X129219662Y-105260823D03*
D13*
X124186535Y-98374070D03*
%TD*%
D10*
%TO.C,SW28*%
X131953101Y-126528299D03*
D11*
X127179462Y-124790837D03*
D10*
X122405823Y-123053375D03*
D12*
X131303744Y-120885930D03*
X124467964Y-121100921D03*
D13*
X122146335Y-117904084D03*
%TD*%
D12*
%TO.C,SW6*%
X112687414Y-55995391D03*
X119523194Y-55780400D03*
D10*
X110625273Y-57947845D03*
X120172551Y-61422769D03*
D11*
X115398912Y-59685307D03*
D13*
X110365785Y-52798554D03*
%TD*%
D12*
%TO.C,SW4*%
X76885125Y-42964425D03*
D10*
X74822984Y-44916879D03*
D12*
X83720905Y-42749434D03*
D11*
X79596623Y-46654341D03*
D10*
X84370262Y-48391803D03*
D13*
X74563496Y-39767588D03*
%TD*%
D14*
%TO.C,H4*%
X20692091Y-130396655D03*
%TD*%
D11*
%TO.C,SW14*%
X131259858Y-85730808D03*
D10*
X126486219Y-83993346D03*
D12*
X128548360Y-82040892D03*
X135384140Y-81825901D03*
D10*
X136033497Y-87468270D03*
D13*
X126226731Y-78844055D03*
%TD*%
D12*
%TO.C,SW31*%
X57658970Y-114354010D03*
D11*
X53534688Y-118258917D03*
D12*
X50823190Y-114569001D03*
D10*
X48761049Y-116521455D03*
X58308327Y-119996379D03*
D13*
X48501561Y-111372164D03*
%TD*%
D12*
%TO.C,SW18*%
X72804728Y-82024455D03*
D10*
X80289865Y-87451833D03*
D11*
X75516226Y-85714371D03*
D12*
X79640508Y-81809464D03*
D10*
X70742587Y-83976909D03*
D13*
X70483099Y-78827618D03*
%TD*%
D15*
%TO.C,J1*%
X148797811Y-59949327D03*
X146403670Y-66527176D03*
%TD*%
D10*
%TO.C,SW32*%
X63404452Y-131987513D03*
X72951730Y-135462437D03*
D12*
X65466593Y-130035059D03*
D11*
X68178091Y-133724975D03*
D12*
X72302373Y-129820068D03*
D13*
X63144964Y-126838222D03*
%TD*%
D12*
%TO.C,SW7*%
X137424338Y-62295885D03*
D10*
X128526417Y-64463330D03*
D11*
X133300056Y-66200792D03*
D10*
X138073695Y-67938254D03*
D12*
X130588558Y-62510876D03*
D13*
X128266929Y-59314039D03*
%TD*%
D10*
%TO.C,SW16*%
X29217487Y-81811624D03*
X39377487Y-81811624D03*
D12*
X36837487Y-76731624D03*
X30487487Y-79271624D03*
D11*
X34297487Y-81811624D03*
D13*
X27212487Y-77061624D03*
%TD*%
D12*
%TO.C,SW33*%
X93461259Y-127384977D03*
D10*
X84563338Y-129552422D03*
D12*
X86625479Y-127599968D03*
D11*
X89336977Y-131289884D03*
D10*
X94110616Y-133027346D03*
D13*
X84303850Y-124403131D03*
%TD*%
D12*
%TO.C,SW19*%
X97541655Y-88324948D03*
X90705875Y-88539939D03*
D11*
X93417373Y-92229855D03*
D10*
X98191012Y-93967317D03*
X88643734Y-90492393D03*
D13*
X88384246Y-85343102D03*
%TD*%
D14*
%TO.C,H1*%
X73903794Y-34446027D03*
%TD*%
D10*
%TO.C,SW1*%
X24407882Y-42751593D03*
D12*
X15517882Y-40211593D03*
D11*
X19327882Y-42751593D03*
D10*
X14247882Y-42751593D03*
D12*
X21867882Y-37671593D03*
D13*
X12242882Y-38001593D03*
%TD*%
D12*
%TO.C,SW15*%
X17787487Y-76731623D03*
D10*
X20327487Y-81811623D03*
D12*
X11437487Y-79271623D03*
D10*
X10167487Y-81811623D03*
D11*
X15247487Y-81811623D03*
D13*
X8162487Y-77061623D03*
%TD*%
D12*
%TO.C,SW25*%
X77600311Y-101339479D03*
X70764531Y-101554470D03*
D10*
X68702390Y-103506924D03*
D11*
X73476029Y-105244386D03*
D10*
X78249668Y-106981848D03*
D13*
X68442902Y-98357633D03*
%TD*%
D11*
%TO.C,SW29*%
X11167090Y-120871656D03*
D10*
X6087090Y-120871656D03*
X16247090Y-120871656D03*
D12*
X13707090Y-115791656D03*
X7357090Y-118331656D03*
D13*
X4082090Y-116121656D03*
%TD*%
D12*
%TO.C,SW35*%
X129263547Y-140415945D03*
D10*
X129912904Y-146058314D03*
D11*
X125139265Y-144320852D03*
D10*
X120365626Y-142583390D03*
D12*
X122427767Y-140630936D03*
D13*
X120106138Y-137434099D03*
%TD*%
D12*
%TO.C,SW9*%
X38877685Y-57201607D03*
X32527685Y-59741607D03*
D10*
X31257685Y-62281607D03*
D11*
X36337685Y-62281607D03*
D10*
X41417685Y-62281607D03*
D13*
X29252685Y-57531607D03*
%TD*%
D10*
%TO.C,SW27*%
X104504679Y-116537891D03*
D12*
X106566820Y-114585437D03*
X113402600Y-114370446D03*
D11*
X109278318Y-118275353D03*
D10*
X114051957Y-120012815D03*
D13*
X104245191Y-111388600D03*
%TD*%
D11*
%TO.C,SW34*%
X107238120Y-137805369D03*
D12*
X104526622Y-134115453D03*
D10*
X102464481Y-136067907D03*
X112011759Y-139542831D03*
D12*
X111362402Y-133900462D03*
D13*
X102204993Y-130918616D03*
%TD*%
D11*
%TO.C,SW20*%
X111318513Y-98745338D03*
D10*
X106544874Y-97007876D03*
X116092152Y-100482800D03*
D12*
X115442795Y-94840431D03*
X108607015Y-95055422D03*
D13*
X106285386Y-91858585D03*
%TD*%
D10*
%TO.C,SW17*%
X52841444Y-77461426D03*
D12*
X54903585Y-75508972D03*
D10*
X62388722Y-80936350D03*
D11*
X57615083Y-79198888D03*
D12*
X61739365Y-75293981D03*
D13*
X52581956Y-72312135D03*
%TD*%
D10*
%TO.C,SW3*%
X66469119Y-41876319D03*
X56921841Y-38401395D03*
D12*
X65819762Y-36233950D03*
D11*
X61695480Y-40138857D03*
D12*
X58983982Y-36448941D03*
D13*
X56662353Y-33252104D03*
%TD*%
D16*
%TO.C,D31*%
X59665112Y-125566337D03*
D17*
X62059254Y-118988489D03*
%TD*%
D12*
%TO.C,SW30*%
X32757091Y-115791655D03*
D10*
X35297091Y-120871655D03*
D11*
X30217091Y-120871655D03*
D12*
X26407091Y-118331655D03*
D10*
X25137091Y-120871655D03*
D13*
X23132091Y-116121655D03*
%TD*%
D11*
%TO.C,SW8*%
X17287684Y-62281608D03*
D12*
X19827684Y-57201608D03*
X13477684Y-59741608D03*
D10*
X22367684Y-62281608D03*
X12207684Y-62281608D03*
D13*
X10202684Y-57531608D03*
%TD*%
D10*
%TO.C,SW24*%
X60348525Y-100466364D03*
D11*
X55574886Y-98728902D03*
D12*
X59699168Y-94823995D03*
X52863388Y-95038986D03*
D10*
X50801247Y-96991440D03*
D13*
X50541759Y-91842149D03*
%TD*%
D14*
%TO.C,H3*%
X2747487Y-81811623D03*
%TD*%
D16*
%TO.C,D19*%
X99547797Y-99537275D03*
D17*
X101941939Y-92959427D03*
%TD*%
D16*
%TO.C,D35*%
X131269689Y-151628272D03*
D17*
X133663831Y-145050424D03*
%TD*%
D18*
%TO.C,RSW1*%
X70010703Y-119187552D03*
X76118705Y-121410682D03*
%TD*%
D19*
%TO.C,D1*%
X27587882Y-47521593D03*
D20*
X27587882Y-40521593D03*
%TD*%
D19*
%TO.C,D8*%
X25547684Y-67051608D03*
D20*
X25547684Y-60051608D03*
%TD*%
D19*
%TO.C,D2*%
X46637883Y-47521594D03*
D20*
X46637883Y-40521594D03*
%TD*%
D16*
%TO.C,D24*%
X61854367Y-106036322D03*
D17*
X64248509Y-99458474D03*
%TD*%
D16*
%TO.C,D32*%
X74308515Y-141032395D03*
D17*
X76702657Y-134454547D03*
%TD*%
D19*
%TO.C,D29*%
X19427090Y-125641656D03*
D20*
X19427090Y-118641656D03*
%TD*%
D16*
%TO.C,D3*%
X67825904Y-47446277D03*
D17*
X70220046Y-40868429D03*
%TD*%
D16*
%TO.C,D13*%
X119489138Y-86522743D03*
D17*
X121883280Y-79944895D03*
%TD*%
D19*
%TO.C,D9*%
X44597685Y-67051607D03*
D20*
X44597685Y-60051607D03*
%TD*%
D19*
%TO.C,D30*%
X38477091Y-125641655D03*
D20*
X38477091Y-118641655D03*
%TD*%
D16*
%TO.C,D6*%
X121529336Y-66992727D03*
D17*
X123923478Y-60414879D03*
%TD*%
D19*
%TO.C,D15*%
X23507487Y-86581623D03*
D20*
X23507487Y-79581623D03*
%TD*%
D16*
%TO.C,D26*%
X97507600Y-119067290D03*
D17*
X99901742Y-112489442D03*
%TD*%
D16*
%TO.C,D25*%
X79606453Y-112551806D03*
D17*
X82000595Y-105973958D03*
%TD*%
D16*
%TO.C,D20*%
X117448937Y-106052758D03*
D17*
X119843079Y-99474910D03*
%TD*%
D19*
%TO.C,D16*%
X42581667Y-86581624D03*
D20*
X42581667Y-79581624D03*
%TD*%
D16*
%TO.C,D21*%
X135350086Y-112805289D03*
D17*
X137744228Y-106227441D03*
%TD*%
D16*
%TO.C,D5*%
X103628190Y-60477245D03*
D17*
X106022332Y-53899397D03*
%TD*%
D16*
%TO.C,D10*%
X65785705Y-66976290D03*
D17*
X68179847Y-60398442D03*
%TD*%
D16*
%TO.C,D18*%
X81646650Y-93021791D03*
D17*
X84040792Y-86443943D03*
%TD*%
D16*
%TO.C,D27*%
X115408742Y-125582773D03*
D17*
X117802884Y-119004925D03*
%TD*%
D16*
%TO.C,D17*%
X63745507Y-86506308D03*
D17*
X66139649Y-79928460D03*
%TD*%
D16*
%TO.C,D12*%
X101587993Y-80007258D03*
D17*
X103982135Y-73429410D03*
%TD*%
D19*
%TO.C,D22*%
X21467289Y-106111639D03*
D20*
X21467289Y-99111639D03*
%TD*%
D16*
%TO.C,D34*%
X113368544Y-145112789D03*
D17*
X115762686Y-138534941D03*
%TD*%
D16*
%TO.C,D14*%
X137390282Y-93038228D03*
D17*
X139784424Y-86460380D03*
%TD*%
D16*
%TO.C,D7*%
X139430480Y-73508212D03*
D17*
X141824622Y-66930364D03*
%TD*%
D16*
%TO.C,D33*%
X95467401Y-138597304D03*
D17*
X97861543Y-132019456D03*
%TD*%
D16*
%TO.C,D11*%
X83686849Y-73491775D03*
D17*
X86080991Y-66913927D03*
%TD*%
D19*
%TO.C,D23*%
X40517290Y-106111639D03*
D20*
X40517290Y-99111639D03*
%TD*%
D16*
%TO.C,D28*%
X133309886Y-132098257D03*
D17*
X135704028Y-125520409D03*
%TD*%
D16*
%TO.C,D4*%
X85727047Y-53961761D03*
D17*
X88121189Y-47383913D03*
%TD*%
D12*
%TO.C,SW10*%
X63779563Y-55763963D03*
D10*
X64428920Y-61406332D03*
D11*
X59655281Y-59668870D03*
D10*
X54881642Y-57931408D03*
D12*
X56943783Y-55978954D03*
D13*
X54622154Y-52782117D03*
%TD*%
D14*
%TO.C,H2*%
X127607226Y-53992477D03*
%TD*%
D10*
%TO.C,SW13*%
X118132353Y-80952785D03*
D12*
X117482996Y-75310416D03*
D11*
X113358714Y-79215323D03*
D12*
X110647216Y-75525407D03*
D10*
X108585075Y-77477861D03*
D13*
X108325587Y-72328570D03*
%TD*%
D10*
%TO.C,SW12*%
X100231208Y-74437300D03*
X90683930Y-70962376D03*
D12*
X99581851Y-68794931D03*
D11*
X95457569Y-72699838D03*
D12*
X92746071Y-69009922D03*
D13*
X90424442Y-65813085D03*
%TD*%
D11*
%TO.C,SW5*%
X97497766Y-53169825D03*
D12*
X101622048Y-49264918D03*
D10*
X102271405Y-54907287D03*
D12*
X94786268Y-49479909D03*
D10*
X92724127Y-51432363D03*
D13*
X92464639Y-46283072D03*
%TD*%
D12*
%TO.C,SW2*%
X34567883Y-40211594D03*
D10*
X33297883Y-42751594D03*
D11*
X38377883Y-42751594D03*
D10*
X43457883Y-42751594D03*
D12*
X40917883Y-37671594D03*
D13*
X31292883Y-38001594D03*
%TD*%
D12*
%TO.C,SW23*%
X28447290Y-98801639D03*
X34797290Y-96261639D03*
D10*
X27177290Y-101341639D03*
X37337290Y-101341639D03*
D11*
X32257290Y-101341639D03*
D13*
X25172290Y-96591639D03*
%TD*%
D12*
%TO.C,SW11*%
X74844927Y-62494439D03*
D11*
X77556425Y-66184355D03*
D12*
X81680707Y-62279448D03*
D10*
X72782786Y-64446893D03*
X82330064Y-67921817D03*
D13*
X72523298Y-59297602D03*
%TD*%
%TO.C,U1*%
X14247882Y-35131593D03*
X16787882Y-35121593D03*
X19327882Y-35121593D03*
X21867882Y-35121593D03*
X24407882Y-35121593D03*
X26947882Y-35121593D03*
X29487882Y-35121593D03*
X32027882Y-35121593D03*
X34567882Y-35121593D03*
X37107882Y-35121593D03*
X39647882Y-35121593D03*
X42187882Y-35121593D03*
X42187882Y-50381593D03*
X39647882Y-50381593D03*
X37107882Y-50381593D03*
X34567882Y-50381593D03*
X32027882Y-50381593D03*
X29487882Y-50381593D03*
X26947882Y-50381593D03*
X24407882Y-50381593D03*
X21867882Y-50371593D03*
X19327882Y-50371593D03*
X16787882Y-50371593D03*
X14247882Y-50371593D03*
X11707882Y-50371593D03*
X11707882Y-35131593D03*
%TD*%
M02*
